<svg width="582" height="571" viewBox="0 0 582 571" fill="none" xmlns="http://www.w3.org/2000/svg">
<path d="M290.989 0.0103818C130.277 0.0103818 0 127.662 0 285.137C0 442.611 130.287 570.263 291 570.263C451.713 570.263 582 442.611 582 285.137C582 127.662 451.713 0 291 0L290.989 0.0103818ZM290.989 443.556C201.696 443.556 129.312 372.63 129.312 285.137C129.312 197.643 201.696 126.717 290.989 126.717C380.282 126.717 452.667 197.643 452.667 285.137C452.667 372.63 380.282 443.556 290.989 443.556Z" fill="url(#paint0_linear_1155_2289)" fill-opacity="0.3"/>
<defs>
<linearGradient id="paint0_linear_1155_2289" x1="0" y1="285.137" x2="581.989" y2="285.137" gradientUnits="userSpaceOnUse">
<stop stop-color="#34BFE0"/>
<stop offset="1" stop-color="#4591FF"/>
</linearGradient>
</defs>
</svg>
