<svg width="1021" height="1001" viewBox="0 0 1021 1001" fill="none" xmlns="http://www.w3.org/2000/svg">
<path d="M510.481 0.0182127C228.544 0.0182127 0 223.957 0 500.214C0 776.47 228.563 1000.41 510.5 1000.41C792.437 1000.41 1021 776.47 1021 500.214C1021 223.957 792.437 0 510.5 0L510.481 0.0182127ZM510.481 778.129C353.835 778.129 226.852 653.704 226.852 500.214C226.852 346.724 353.835 222.299 510.481 222.299C667.128 222.299 794.111 346.724 794.111 500.214C794.111 653.704 667.128 778.129 510.481 778.129Z" fill="url(#paint0_linear_1155_2290)" fill-opacity="0.3"/>
<defs>
<linearGradient id="paint0_linear_1155_2290" x1="0" y1="500.214" x2="1020.98" y2="500.214" gradientUnits="userSpaceOnUse">
<stop stop-color="#34BFE0"/>
<stop offset="1" stop-color="#4591FF"/>
</linearGradient>
</defs>
</svg>
