<svg width="314" height="311" viewBox="0 0 314 311" fill="none" xmlns="http://www.w3.org/2000/svg">
<path d="M264.179 49.6526C235.571 21.1419 197.496 5.44043 157.002 5.44043C116.508 5.44043 78.4328 21.1419 49.8245 49.6526C21.2162 78.2321 5.46094 116.108 5.46094 156.464C5.46094 183.597 12.7858 210.249 26.6062 233.525C39.5283 255.149 57.7021 273.33 79.3311 286.277C114.435 307.901 136.133 302.047 145.946 296.607C157.624 290.134 164.534 277.944 164.534 264.033C164.534 257.698 164.534 243.855 164.534 243.718C164.534 243.511 164.534 243.304 164.534 243.098C190.516 239.448 210.487 217.273 210.487 190.346V153.227C210.487 152.539 210.487 151.919 210.487 151.299H195.837V90.4214C195.837 86.4271 192.589 83.1216 188.512 83.1216C184.435 83.1216 181.257 86.3583 181.257 90.4214V151.299H132.885V90.4214C132.885 86.4271 129.637 83.1216 125.56 83.1216C121.483 83.1216 118.236 86.3583 118.236 90.4214V151.299H103.586C103.586 151.919 103.586 152.608 103.586 153.227V190.346C103.586 217.273 123.556 239.448 149.539 243.098C149.539 243.304 149.539 243.442 149.539 243.649C149.539 243.787 149.539 257.697 149.539 264.102C149.539 272.573 145.6 279.597 138.759 283.453C127.495 289.72 109.736 286.621 89.8346 274.914L87.0705 273.261C46.093 248.745 20.8016 204.326 20.8016 156.602C20.5943 81.5376 81.8188 20.5221 157.002 20.5221C232.185 20.5221 293.409 81.4688 293.409 156.464C293.409 213.692 257.131 265.066 203.162 284.418C195.63 287.103 187.752 289.169 179.806 290.478C175.659 291.167 172.895 295.092 173.586 299.224C174.208 302.943 177.456 305.56 181.049 305.56C181.464 305.56 181.879 305.56 182.293 305.422C191.138 303.976 199.845 301.634 208.276 298.673C237.368 288.274 262.244 269.474 280.349 244.269C298.799 218.581 308.543 188.211 308.543 156.464C308.543 116.108 292.788 78.1632 264.179 49.6526Z" fill="#E1E1E1"/>
<path d="M181.046 311C174.689 311 169.299 306.455 168.193 300.188C167.019 293.164 171.787 286.415 178.904 285.244C186.574 283.936 194.107 282.007 201.362 279.39C253.189 260.865 288.016 211.488 288.016 156.533C288.016 84.5678 229.28 26.0314 157.068 26.0314C84.8562 26.0314 26.0503 84.4989 26.0503 156.464C26.0503 202.054 50.4433 244.957 89.6933 268.441L95.6361 271.884C112.221 280.974 127.147 283.454 135.923 278.564C141.105 275.672 143.938 270.507 143.938 263.964C143.938 259.695 143.938 252.119 143.938 247.505C117.472 241.514 98.0547 217.755 98.0547 190.277L98.262 146.203L103.583 145.721H112.843V90.2148C112.843 83.1904 118.578 77.5434 125.557 77.5434C132.537 77.5434 138.272 83.2593 138.272 90.2148V145.721H175.725V90.2148C175.725 83.1904 181.461 77.5434 188.44 77.5434C195.42 77.5434 201.155 83.2593 201.155 90.2148V145.721H215.666L215.805 150.955C215.805 151.643 215.805 152.332 215.805 153.09V190.209C215.805 217.686 196.387 241.445 169.921 247.436C169.921 252.257 169.921 259.695 169.921 263.827C169.921 279.735 161.974 293.715 148.568 301.152C143.869 303.769 135.923 306.937 124.866 306.937C110.148 306.937 93.9086 301.496 76.4257 290.753C54.1058 277.462 35.1718 258.524 21.8351 236.211C7.46182 212.108 -0.0703125 184.562 -0.0703125 156.395C-0.0703125 114.593 16.2378 75.3397 45.9517 45.7272C75.6656 16.2524 115.054 0 156.999 0C198.944 0 238.401 16.2524 268.046 45.7961C297.691 75.3397 313.999 114.662 313.999 156.464C313.999 189.313 303.91 220.785 284.769 247.436C266.042 273.537 240.267 292.957 210.138 303.769C201.501 306.868 192.379 309.278 183.189 310.793C182.567 310.931 181.806 311 181.046 311ZM156.999 15.1506C235.222 15.1506 298.865 78.5764 298.865 156.533C298.865 216.033 261.136 269.474 205.025 289.583C197.147 292.406 188.993 294.541 180.701 295.918C179.526 296.125 178.766 297.227 178.973 298.397C179.111 299.43 180.079 300.188 181.046 300.188H181.323C189.961 298.742 198.391 296.538 206.476 293.646C234.531 283.591 258.51 265.479 275.924 241.238C293.683 216.447 303.15 187.178 303.15 156.602C303.15 117.692 287.947 81.1244 260.376 53.6468C232.804 26.1692 196.041 10.9497 157.068 10.9497C118.094 10.9497 81.2629 26.0314 53.6911 53.5091C26.0503 80.9867 10.8478 117.555 10.8478 156.464C10.8478 182.633 17.8962 208.32 31.2329 230.702C43.6713 251.5 61.2233 269.129 82.0921 281.525C97.8474 291.235 112.221 296.125 124.866 296.125C133.504 296.125 139.654 293.715 143.247 291.717C153.198 286.208 159.072 275.809 159.072 263.895C159.072 258.18 159.072 246.472 159.072 243.993L158.588 238.897L163.702 237.589C187.196 234.283 204.956 213.899 204.956 190.209V156.533H190.237V90.2148C190.237 89.1818 189.408 88.3554 188.371 88.3554C187.335 88.3554 186.505 89.1818 186.505 90.2148V156.533H127.285V90.2148C127.285 89.1818 126.456 88.3554 125.419 88.3554C124.383 88.3554 123.553 89.1818 123.553 90.2148V156.533H108.835V190.209C108.835 213.899 126.594 234.283 150.089 237.589L155.271 238.346L154.718 243.511C154.718 246.541 154.649 258.248 154.649 263.895C154.649 274.363 149.743 283.178 141.036 287.999C128.114 295.161 108.282 292.062 86.7219 279.39L82.6449 276.98C40.8381 251.293 14.9939 205.29 14.9939 156.395C15.2013 78.5075 78.8443 15.1506 156.999 15.1506Z" fill="#E1E1E1"/>
</svg>
