<svg width="206" height="64" viewBox="0 0 206 64" fill="none" xmlns="http://www.w3.org/2000/svg">
<path d="M54.612 0H18.198L0 31.518L18.198 63.036H54.594L72.792 31.518L54.612 0ZM21.384 7.002H51.282L44.838 13.986H17.37L21.366 7.002H21.384ZM28.224 15.732L35.406 24.3L29.682 30.258L17.388 15.732H28.224ZM16.344 47.952L52.506 8.892L56.664 15.732L20.322 55.152L16.344 47.952ZM55.098 48.042H44.442L37.422 39.546L43.146 33.588L55.098 48.042ZM51.48 56.862H21.708L27.756 50.292H55.314L51.462 56.862H51.48Z" fill="#55BBF9"/>
<path d="M100.601 30.3374L99.1066 32.2994C97.6666 31.1834 95.7586 30.0134 93.4006 28.7534C91.8346 30.7694 89.7286 32.2454 87.0466 33.1814L85.3906 31.1294C88.6486 29.9054 90.7186 28.4834 91.6186 26.8274H86.0746V24.4874H92.2126C92.3386 23.8754 92.4106 23.0474 92.4106 22.0394H89.9806C89.3326 22.7414 88.5946 23.3894 87.7666 24.0014L85.6786 22.4174C87.6046 20.8514 89.1166 19.3034 90.1966 17.7554L92.7166 18.5294C92.4826 19.0334 92.2306 19.4294 91.9786 19.7354H99.6286V22.0394H95.0746L94.8766 24.4874H100.331V26.8274H94.4266C96.6406 27.8354 98.7106 29.0054 100.619 30.3374H100.601ZM109.565 45.0794H106.829V43.5314H91.4746V45.0074H88.7386V32.8394H109.565V45.0794ZM106.829 37.0514V35.2334H91.4746V37.0514H106.829ZM106.829 41.1554V39.3014H91.4746V41.1554H106.829ZM111.833 30.8954H101.537V19.8074H111.833V30.8954ZM109.187 28.4834V22.2734H104.201V28.4834H109.187Z" fill="#373C3F"/>
<path d="M128.071 31.8836C128.071 38.7956 124.669 43.2236 117.865 45.1676L116.551 42.6476C122.077 41.1896 124.975 38.0036 125.227 33.0896C122.131 35.2676 119.593 36.8516 117.613 37.8776L116.227 35.4116C118.999 34.0976 122.023 32.2436 125.281 29.8316V18.3656H128.071V31.8836ZM123.931 27.8696L121.591 29.1836C120.223 26.4656 118.729 24.1256 117.109 22.1276L119.449 20.6696C121.375 23.1716 122.869 25.5836 123.931 27.8696ZM143.425 35.2856L141.751 37.4816C139.825 35.8616 137.359 34.2416 134.371 32.6216V41.4056C134.371 41.6756 134.497 41.8556 134.731 41.9636C134.965 42.0716 135.775 42.1256 137.143 42.1256C138.385 42.1256 139.159 42.0356 139.447 41.8556C139.735 41.6756 139.987 41.2796 140.221 40.6676C140.437 40.0556 140.545 39.2096 140.545 38.1116L143.281 39.2096C143.011 41.1536 142.705 42.4496 142.345 43.0796C141.985 43.7096 141.499 44.1776 140.887 44.4476C140.275 44.7176 138.961 44.8436 136.945 44.8436C135.181 44.8436 134.029 44.7716 133.489 44.6276C132.949 44.4836 132.499 44.1956 132.139 43.7816C131.779 43.3496 131.599 42.8636 131.599 42.3236V18.3296H134.389V24.9896C136.765 23.7656 138.745 22.3436 140.347 20.7236L142.723 22.2176C140.851 24.3596 138.079 26.2676 134.407 27.9596V29.5796C138.043 31.4336 141.049 33.3056 143.461 35.2316L143.425 35.2856Z" fill="#373C3F"/>
<path d="M159.912 20.259C158.508 20.727 156.996 21.087 155.376 21.357V25.335H159.246V27.909H155.376V28.755C156.978 30.429 158.364 32.175 159.48 33.975L157.572 35.991C156.834 34.533 156.114 33.291 155.376 32.247V44.955H152.712V32.787C151.29 35.577 149.904 37.611 148.554 38.907L146.988 36.477C149.13 34.317 150.984 31.455 152.55 27.891H147.294V25.317H152.712V21.771C151.416 21.969 150.048 22.113 148.608 22.203L147.456 19.719C151.362 19.521 155.088 18.927 158.598 17.937L159.912 20.241V20.259ZM174.042 37.233L171.198 37.665V45.027H168.48V38.007L159.246 39.249L159.012 36.549L168.498 35.253V18.243H171.216V34.893L173.97 34.551L174.06 37.215L174.042 37.233ZM167.13 31.779L165.276 33.831C163.98 32.175 162.072 30.429 159.534 28.557L161.316 26.559C163.8 28.395 165.726 30.123 167.13 31.779ZM167.562 24.345L165.726 26.343C163.998 24.399 162.198 22.725 160.29 21.303L162.198 19.359C164.25 20.943 166.032 22.617 167.562 24.345Z" fill="#373C3F"/>
<path d="M187.918 31.8891C186.766 32.4291 185.686 32.8791 184.732 33.2391V42.1491C184.732 43.0311 184.516 43.7151 184.084 44.1831C183.652 44.6691 182.932 44.9031 181.924 44.9211C180.916 44.9211 180.052 44.9211 179.314 44.9031L178.468 42.2391C179.548 42.2751 180.484 42.2931 181.258 42.2931C181.456 42.2931 181.636 42.2031 181.798 42.0231C181.978 41.8431 182.068 41.6451 182.068 41.4291V34.2471C180.934 34.6431 179.764 35.0031 178.558 35.3091L177.82 32.7891C179.746 32.2131 181.15 31.7451 182.068 31.3851V25.6971H178.162V23.0871H182.068V18.1011H184.732V23.0871H187.558V25.6971H184.732V30.3231C185.524 30.0711 186.406 29.6931 187.378 29.2071L187.936 31.8711L187.918 31.8891ZM205.036 42.9771L203.452 45.2811C200.554 44.0031 198.16 42.5991 196.27 41.0331C194.074 42.6891 191.446 44.0931 188.386 45.2811L186.874 42.8151C189.826 41.8251 192.328 40.6011 194.344 39.1791C192.634 37.3071 191.176 34.6611 189.988 31.2591H188.944V28.6851H195.028V24.6891H188.512V22.1151H195.028V18.2091H197.782V22.1151H204.226V24.6891H197.782V28.6851H203.47V31.2591C202.048 34.6971 200.32 37.3611 198.34 39.2331C200.032 40.6371 202.264 41.8791 205.054 42.9591L205.036 42.9771ZM200.446 31.2771H192.904C193.66 33.5631 194.848 35.6151 196.432 37.4331C198.106 35.7591 199.438 33.7071 200.446 31.2771Z" fill="#373C3F"/>
</svg>
