<svg width="213" height="66" viewBox="0 0 213 66" fill="none" xmlns="http://www.w3.org/2000/svg">
<path d="M54.35 0H18.12L0 32.8602L18.12 65.7204H54.36L72.48 32.8602L54.36 0H54.35ZM21.28 7.30924H51.05L44.64 14.5871H17.31L21.29 7.30924H21.28ZM28.08 16.4092L35.24 25.331L29.54 31.5512L17.31 16.4092H28.09H28.08ZM16.26 49.9919L52.25 9.26744L56.39 16.4092L20.22 57.5001L16.26 49.9919ZM54.83 50.0861H44.23L37.24 41.2271L42.94 35.0278L54.83 50.0966V50.0861ZM51.22 59.2803H21.6L27.61 52.4213H55.05L51.22 59.2803Z" fill="#373C3F"/>
<path d="M108.15 32.1001L106.66 34.1525C105.23 33.0006 103.33 31.765 100.97 30.4665C99.42 32.5608 97.31 34.1002 94.64 35.074L93 32.9273C96.24 31.6603 98.3 30.1628 99.2 28.435H93.68V25.9951H99.79C99.92 25.3458 99.98 24.4976 99.98 23.4505H97.56C96.91 24.1835 96.18 24.8641 95.35 25.5029L93.27 23.8589C95.19 22.2358 96.69 20.6126 97.76 19L100.27 19.7958C100.03 20.3194 99.79 20.7383 99.54 21.0524H107.15V23.4609H102.63L102.44 26.0056H107.86V28.4455H101.99C104.19 29.5031 106.25 30.7178 108.16 32.1001H108.15ZM117.08 47.4725H114.36V45.8599H99.07V47.3888H96.35V34.7075H117.07V47.4621L117.08 47.4725ZM114.36 39.1057V37.2103H99.07V39.1057H114.36ZM114.36 43.3886V41.4513H99.07V43.3886H114.36ZM119.35 32.697H109.11V21.1467H119.35V32.697ZM116.72 30.1838V23.7123H111.76V30.1838H116.72Z" fill="#373C3F"/>
<path d="M135.491 33.7232C135.491 40.9277 132.111 45.5353 125.341 47.5563L124.031 44.9279C129.531 43.4095 132.411 40.09 132.661 34.9693C129.581 37.2312 127.061 38.8962 125.081 39.9539L123.711 37.3883C126.481 36.027 129.481 34.0792 132.731 31.5765V19.6283H135.511V33.7127L135.491 33.7232ZM131.371 29.5345L129.041 30.9063C127.681 28.079 126.191 25.6286 124.581 23.5447L126.911 22.0263C128.831 24.6442 130.321 27.147 131.371 29.5345ZM150.781 37.2731L149.111 39.5559C147.191 37.87 144.741 36.1841 141.761 34.4876V43.6504C141.761 43.9331 141.881 44.1321 142.121 44.2368C142.361 44.3415 143.161 44.4043 144.521 44.4043C145.761 44.4043 146.531 44.3101 146.821 44.1321C147.111 43.9541 147.361 43.5352 147.581 42.8964C147.801 42.2576 147.911 41.3675 147.911 40.2366L150.631 41.378C150.361 43.3991 150.051 44.7499 149.691 45.4201C149.331 46.0903 148.851 46.572 148.231 46.8547C147.621 47.1374 146.311 47.2736 144.311 47.2736C142.561 47.2736 141.411 47.2003 140.881 47.0537C140.341 46.9071 139.891 46.6139 139.531 46.1636C139.171 45.7133 138.991 45.2107 138.991 44.6452V19.6388H141.771V26.5815C144.141 25.3144 146.111 23.8275 147.701 22.1415L150.061 23.7018C148.201 25.9323 145.441 27.9324 141.771 29.6916V31.3775C145.381 33.3043 148.391 35.273 150.791 37.2731H150.781Z" fill="#373C3F"/>
<path d="M167.171 21.5865C165.781 22.0786 164.271 22.4556 162.651 22.7279V26.8747H166.501V29.5659H162.651V30.456C164.251 32.2048 165.621 34.0164 166.741 35.9013L164.841 38.0166C164.111 36.4982 163.381 35.1997 162.651 34.1211V47.3678H159.991V34.6866C158.571 37.5977 157.191 39.7234 155.851 41.0638L154.301 38.5297C156.431 36.2783 158.281 33.2938 159.841 29.5659H154.601V26.8747H159.991V23.1886C158.701 23.3981 157.341 23.5447 155.911 23.6389L154.761 21.0419C158.651 20.843 162.351 20.2251 165.851 19.178L167.161 21.5865H167.171ZM181.241 39.2836L178.401 39.7339V47.4097H175.701V40.09L166.501 41.3884L166.261 38.5716L175.701 37.2312V19.5026H178.401V36.8542L181.151 36.4982L181.241 39.2836ZM174.361 33.5975L172.521 35.7442C171.241 34.0268 169.331 32.1943 166.801 30.2361L168.581 28.1522C171.051 30.0581 172.971 31.8697 174.361 33.5975ZM174.791 25.838L172.951 27.9218C171.241 25.9008 169.441 24.152 167.551 22.6651L169.451 20.644C171.491 22.2985 173.271 24.0368 174.801 25.838H174.791Z" fill="#373C3F"/>
<path d="M195.072 33.7232C193.922 34.2886 192.862 34.7599 191.892 35.1264V44.4148C191.892 45.3363 191.682 46.0379 191.252 46.5405C190.822 47.0431 190.112 47.2945 189.102 47.3154C188.092 47.3364 187.232 47.3154 186.502 47.2945L185.652 44.509C186.732 44.5509 187.652 44.5718 188.432 44.5718C188.622 44.5718 188.802 44.4776 188.972 44.2996C189.142 44.1215 189.232 43.9121 189.232 43.6817V36.1945C188.112 36.6133 186.942 36.9799 185.742 37.3045L185.012 34.6761C186.922 34.0687 188.332 33.587 189.242 33.21V27.2831H185.362V24.5604H189.242V19.3665H191.902V24.5604H194.712V27.2831H191.902V32.1C192.702 31.8278 193.572 31.4403 194.532 30.9482L195.082 33.7336L195.072 33.7232ZM212.112 45.2734L210.542 47.6819C207.652 46.3625 205.272 44.886 203.392 43.2524C201.202 44.9698 198.582 46.4463 195.542 47.6819L194.032 45.1164C196.982 44.0692 199.452 42.8126 201.472 41.3361C199.772 39.3779 198.322 36.6238 197.132 33.0844H196.092V30.3932H202.152V26.2359H195.672V23.5447H202.152V19.4816H204.902V23.5447H211.322V26.2359H204.902V30.3932H210.562V33.0844C209.142 36.6657 207.432 39.4407 205.452 41.3989C207.132 42.8545 209.362 44.153 212.122 45.2734H212.112ZM207.542 33.0739H200.032C200.792 35.4615 201.962 37.5977 203.542 39.4826C205.202 37.7338 206.542 35.5976 207.542 33.0739Z" fill="#373C3F"/>
</svg>
