<svg width="105" height="88" viewBox="0 0 105 88" fill="none" xmlns="http://www.w3.org/2000/svg">
<path d="M89.2449 61.3242C86.9769 60.3603 85.9185 61.6779 84.6819 63.6192C83.4966 65.4849 83.3481 66.8322 84.7089 68.4981C85.3029 69.2244 85.6593 70.137 86.175 70.9335C86.4504 71.3601 86.3883 71.6301 86.0481 71.9784C84.8385 73.215 83.6478 74.4705 82.4814 75.7476C82.1223 76.1418 81.828 76.2012 81.3501 75.9447C79.9164 75.1752 78.4503 74.4732 77.0139 73.7118C76.5063 73.4418 76.1418 73.431 75.6477 73.8117C74.5488 74.6595 73.4013 75.4479 72.2214 76.1823C71.7003 76.5063 71.5653 76.86 71.6328 77.4216C71.8218 78.9687 71.9271 80.5293 72.1674 82.0683C72.2781 82.7892 72.0648 83.0808 71.4114 83.3265C69.8913 83.8989 68.3901 84.528 66.9078 85.1895C66.3408 85.4433 66.0195 85.3488 65.6469 84.8601C64.6803 83.5938 63.6381 82.3842 62.6634 81.1233C62.2989 80.6535 61.9452 80.5428 61.362 80.7021C60.3522 80.9775 59.3154 81.1773 58.2786 81.3312C57.7305 81.4149 57.4794 81.6255 57.3336 82.1709C56.9124 83.7396 56.3967 85.284 55.9674 86.8527C55.827 87.3684 55.6029 87.5601 55.0602 87.552C53.3295 87.5223 51.5988 87.5196 49.8708 87.552C49.3146 87.5628 49.1175 87.3441 48.9771 86.8365C48.5559 85.3029 48.0402 83.7936 47.6379 82.2546C47.4759 81.6363 47.1978 81.3447 46.5714 81.2772C45.189 81.1287 43.8309 80.829 42.4944 80.4402C41.9814 80.289 41.6304 80.37 41.2686 80.8155C40.2426 82.0791 39.1356 83.2779 38.1123 84.5415C37.7343 85.0086 37.4319 85.0248 36.9189 84.7818C35.4231 84.0663 33.9084 83.3832 32.3775 82.746C31.8024 82.5057 31.6296 82.1925 31.7214 81.5958C31.9617 79.9866 32.1264 78.3666 32.3883 76.7628C32.4828 76.1904 32.2884 75.9177 31.8456 75.6153C30.7251 74.8539 29.6181 74.0655 28.5651 73.2177C28.0791 72.8262 27.7227 72.7209 27.1368 73.0233C25.6923 73.7658 24.1938 74.4057 22.7385 75.1266C22.2633 75.3615 21.969 75.3264 21.6126 74.9133C20.4867 73.6011 19.3392 72.3051 18.1539 71.0442C17.7624 70.6284 17.8218 70.3341 18.0918 69.9075C18.9504 68.5656 19.7388 67.1778 20.6244 65.8548C21.0105 65.277 20.9565 64.8747 20.5974 64.3131C19.8873 63.2034 19.2393 62.0451 18.6372 60.8706C18.3537 60.3171 18.0486 60.0795 17.3979 60.12C15.8076 60.2118 14.2092 60.1902 12.6189 60.2631C12.0573 60.2874 11.7738 60.1362 11.6091 59.5719C11.1366 57.9465 10.6371 56.3265 10.0755 54.7308C9.87029 54.1476 10.0377 53.8776 10.4967 53.5779C11.8008 52.7247 13.0617 51.8013 14.3793 50.9697C14.949 50.6079 15.1515 50.2218 15.0246 49.5576C14.7654 48.1914 14.6088 46.8063 14.6223 45.4131C14.6277 44.8758 14.3901 44.6301 13.9311 44.4411C12.3948 43.8147 10.8774 43.1451 9.3357 42.5295C8.8443 42.3324 8.67962 42.0759 8.74982 41.5467C8.97392 39.8322 9.1656 38.115 9.3411 36.3951C9.3897 35.9118 9.56792 35.6931 10.0701 35.6148C11.6766 35.3664 13.2723 35.0478 14.8788 34.794C15.4836 34.6995 15.7941 34.4592 15.9669 33.8247C16.3314 32.4882 16.7877 31.1733 17.2818 29.8773C17.4816 29.3535 17.4195 29.0241 17.0361 28.6272C15.8778 27.4338 14.7762 26.1891 13.6233 24.993C13.2885 24.6447 13.2237 24.3855 13.491 23.9535C14.3955 22.482 15.2757 20.9916 16.1262 19.4877C16.4151 18.9774 16.7175 18.8856 17.2764 19.0395C18.8424 19.4742 20.4381 19.8009 22.0014 20.2437C22.5576 20.4003 22.8735 20.2815 23.211 19.8495C24.0696 18.7533 25.0092 17.7219 26.0406 16.7904C26.4861 16.3881 26.5617 16.0209 26.3592 15.4647C25.8003 13.9392 25.3305 12.3786 24.7608 10.8585C24.5502 10.2942 24.6771 10.0161 25.1469 9.6975C26.5212 8.766 27.882 7.8102 29.2104 6.8112C29.7099 6.4359 30.0366 6.43321 30.5199 6.83281C31.7457 7.85071 33.0417 8.7822 34.2621 9.8082C34.7373 10.2051 35.1072 10.2132 35.6175 9.93511C36.8109 9.28981 38.0556 8.7444 39.3489 8.3394C40.0185 8.1288 40.2183 7.72921 40.2642 7.08391C40.3722 5.52871 40.5558 3.9789 40.6638 2.4237C40.6989 1.9188 40.8069 1.6461 41.3712 1.5435C43.137 1.2276 44.8974 0.863104 46.6497 0.474304C47.1546 0.360904 47.3004 0.633604 47.4813 0.981904C48.2319 2.4237 49.023 3.84661 49.7412 5.30461C50.0193 5.86891 50.3325 6.1011 50.9886 6.0255C52.3035 5.8743 53.6346 5.90131 54.9495 6.0714C55.6029 6.1578 55.9944 5.9985 56.3157 5.3748C57.0447 3.96 57.8817 2.6019 58.635 1.1979C58.9077 0.693005 59.1966 0.560704 59.769 0.711904C61.308 1.1142 62.8578 1.5057 64.4238 1.773C65.2527 1.9134 65.4606 2.3022 65.4876 3.0501C65.5389 4.5756 65.6766 6.0957 65.7306 7.6212C65.7495 8.1693 65.9142 8.4717 66.4515 8.66881C67.8204 9.16831 69.1461 9.7812 70.4097 10.5102C70.8822 10.7829 71.1819 10.6803 71.5734 10.3806C72.891 9.3708 74.2491 8.4096 75.5667 7.3998C75.9906 7.0758 76.2957 7.07581 76.7196 7.40791C78.0534 8.45281 79.4088 9.4734 80.7858 10.4616C81.2664 10.8045 81.3204 11.1231 81.1098 11.6523C80.505 13.1616 79.9731 14.6979 79.3818 16.2099C79.1874 16.7067 79.1928 17.0523 79.6194 17.4546C80.6562 18.4347 81.5769 19.5255 82.422 20.673C82.7541 21.1239 83.0916 21.2184 83.6343 21.0834C85.1787 20.7 86.7447 20.3976 88.2918 20.025C88.8615 19.8873 89.2179 19.9467 89.5203 20.5299C90.2979 22.0338 91.1322 23.5107 91.98 24.9768C92.2473 25.4412 92.2068 25.7382 91.818 26.1135C90.6489 27.2475 89.5419 28.4409 88.3674 29.5695C87.93 29.9907 87.8922 30.3471 88.092 30.9033C88.5537 32.2101 88.9722 33.5385 89.3016 34.8858C89.4501 35.496 89.7444 35.712 90.3033 35.82C91.899 36.1278 93.4839 36.495 95.085 36.7893C95.5899 36.8811 95.7627 37.116 95.8005 37.5831C95.9409 39.3408 96.084 41.0985 96.2622 42.8535C96.3162 43.3746 96.0786 43.5663 95.652 43.7256C94.1319 44.298 92.628 44.9217 91.0998 45.4698C90.5463 45.6696 90.3087 45.9504 90.2547 46.5498C90.1278 47.9673 89.9469 49.3794 89.7228 50.7834C89.6391 51.3018 89.7741 51.5907 90.1845 51.8769C91.5183 52.8084 92.817 53.7939 94.1589 54.7119C94.6179 55.0278 94.7934 55.3059 94.5828 55.8702C93.9888 57.4551 93.4245 59.0508 92.9061 60.6627C92.7225 61.2378 92.4255 61.3701 91.8666 61.3323C91.0566 61.2783 90.2412 61.3188 89.2557 61.3188L89.2449 61.3242ZM52.479 68.8599C66.2193 68.8545 77.4837 57.5901 77.481 43.8579C77.4783 30.1257 66.2841 18.9234 52.5573 18.9099C38.6793 18.8964 27.4662 30.0636 27.4743 43.893C27.4797 57.6792 38.6847 68.8626 52.479 68.8572V68.8599Z" fill="#E57B42"/>
<path d="M38.1568 44.9646C38.1568 43.4391 38.173 41.9136 38.1487 40.3881C38.1406 39.867 38.308 39.6564 38.8453 39.6888C39.4528 39.7266 40.0711 39.6483 40.6732 39.7104C41.4211 39.786 41.5561 39.4674 41.5588 38.787C41.5642 36.6216 41.3401 34.4373 41.8045 32.2962C42.9952 26.8368 47.9497 23.1729 53.4442 23.6454C58.9657 24.1179 63.1885 28.5918 63.4315 34.2726C63.499 35.8305 63.472 37.3911 63.445 38.9517C63.4342 39.5106 63.5854 39.7887 64.1794 39.6996C64.2469 39.6888 64.3144 39.6915 64.3819 39.6996C65.1757 39.7833 66.1936 39.3378 66.712 39.8967C67.1818 40.4016 66.8659 41.3925 66.847 42.1647C66.7822 45.0753 67.1035 47.9994 66.5473 50.8911C65.1811 57.9786 58.7362 62.7657 51.2059 62.2986C44.4019 61.8774 38.6266 55.9995 38.2162 49.0362C38.1379 47.6862 38.2054 46.3254 38.2054 44.97C38.1892 44.97 38.173 44.97 38.1568 44.97V44.9646ZM52.537 39.6969C54.5026 39.6969 56.4682 39.6753 58.4311 39.7104C59.0413 39.7212 59.2627 39.57 59.2411 38.9247C59.1925 37.4343 59.2465 35.9439 59.2168 34.4535C59.1466 30.7248 56.2171 27.8466 52.5154 27.8412C48.8218 27.8358 45.8572 30.7248 45.7789 34.4292C45.7492 35.8845 45.8086 37.3452 45.7546 38.8005C45.7303 39.4944 45.9031 39.7347 46.6402 39.7158C48.6031 39.6645 50.5687 39.6969 52.5343 39.6969H52.537ZM50.9656 54.1932C50.9656 55.041 50.9656 55.8861 50.9656 56.7339C50.9656 56.769 50.9656 56.8014 50.9656 56.8365C50.998 58.0569 51.4138 58.5105 52.4965 58.5105C53.5819 58.5105 54.0247 58.0515 54.0382 56.8419C54.0571 55.2165 54.076 53.5884 54.0274 51.9657C54.0058 51.1989 54.184 50.7048 54.8563 50.1999C56.5519 48.9309 56.722 46.4631 55.3531 44.8728C53.9437 43.2339 51.4921 43.1016 49.9207 44.5812C48.3871 46.0257 48.2251 48.5907 49.8532 49.9056C50.9035 50.7534 51.0412 51.6417 50.9656 52.773C50.9359 53.2455 50.9602 53.7207 50.9602 54.1959L50.9656 54.1932Z" fill="#E57B42"/>
</svg>
