<svg width="105" height="84" viewBox="0 0 105 84" fill="none" xmlns="http://www.w3.org/2000/svg">
<path d="M54.2635 83.093C52.5431 82.7431 50.7959 82.5244 49.09 82.0895C43.224 80.5974 37.5962 78.4347 32.0339 76.0849C30.2624 75.3365 28.5055 74.5589 26.7511 73.7716C26.3161 73.5772 26.0926 73.4897 25.92 74.0972C25.4705 75.6718 24.688 76.2234 23.0599 76.2283C20.1172 76.2356 17.1769 76.238 14.2341 76.2283C12.4165 76.221 11.4081 75.2028 11.4081 73.3876C11.4056 63.8669 11.4056 54.3461 11.4081 44.823C11.4081 43.0248 12.4603 41.9847 14.2585 42.0042C19.4052 42.0601 24.4304 42.7599 29.1811 44.874C29.9878 45.2336 30.7606 45.6565 31.5017 46.1376C32.4081 46.7257 32.9184 47.5519 32.7556 48.6356C32.6608 49.2796 32.95 49.3914 33.4555 49.4934C39.5815 50.7327 45.7026 51.9842 51.8262 53.2332C55.515 53.9865 59.2134 54.7009 62.8925 55.5077C66.5375 56.3096 68.9407 58.55 70.0756 62.1027C70.2529 62.6616 70.4328 62.7272 70.9504 62.5523C73.757 61.5948 76.5758 60.6787 79.5161 60.2195C81.7833 59.8647 84.0432 59.8598 86.2812 60.426C89.5884 61.2644 92.1302 63.0747 93.5907 66.2386V67.3612C93.2602 68.3697 92.5239 68.9602 91.6102 69.4437C88.2082 71.2395 84.7941 73.011 81.3119 74.6488C75.3632 77.4457 69.3514 80.0847 63.014 81.9048C61.1915 82.4272 59.3228 82.7067 57.4735 83.093H54.2635ZM86.7478 66.1851C86.6798 65.9713 86.5194 65.9227 86.3711 65.8668C85.9702 65.7185 85.5765 65.5484 85.1634 65.4415C82.4151 64.7271 79.7542 65.2957 77.1031 66.0004C73.4654 66.97 69.9784 68.4256 66.3236 69.3392C64.0054 69.9176 61.675 70.3647 59.2718 70.2311C53.6439 69.92 48.2663 68.4596 42.9738 66.6274C42.4537 66.4475 42.0576 66.0855 41.7685 65.6141C41.2071 64.7004 41.2679 63.5194 41.9167 62.6786C42.5753 61.8281 43.6906 61.4806 44.8036 61.8524C48.1011 62.9532 51.4326 63.9082 54.8516 64.5546C58.1418 65.1742 61.4223 65.3832 64.7028 64.4671C65.1839 64.3334 65.3589 64.1779 65.1961 63.653C64.6323 61.8257 63.3882 60.8294 61.5487 60.4625C57.6995 59.6897 53.8553 58.8902 50.0086 58.1029C43.9895 56.8685 37.9728 55.6365 31.9561 54.3972C31.543 54.3121 31.2757 54.3146 31.1372 54.8346C29.9781 59.1964 28.7947 63.551 27.604 67.9031C27.4922 68.3065 27.5432 68.5033 27.9563 68.6904C34.8454 71.8081 41.8219 74.6852 49.0925 76.8334C53.9379 78.2646 58.64 78.1164 63.4052 76.4689C68.2847 74.78 73.045 72.8287 77.7203 70.6539C80.77 69.2372 83.7856 67.7525 86.7454 66.1851H86.7478ZM16.5402 59.0846C16.5402 62.8536 16.5523 66.6201 16.528 70.389C16.5256 70.9479 16.6739 71.1253 17.2401 71.1059C18.4138 71.0645 19.5923 71.0767 20.766 71.101C21.2277 71.1107 21.4926 71.0135 21.6019 70.4984C21.8012 69.5628 22.0879 68.6467 22.3358 67.7209C23.8837 61.9788 25.4146 56.2294 27.0038 50.497C27.2128 49.7437 27.033 49.4861 26.3623 49.2261C23.4463 48.1035 20.4233 47.5203 17.3178 47.2603C16.6617 47.2044 16.5207 47.3963 16.5256 48.0209C16.5523 51.7096 16.5402 55.3959 16.5402 59.0846Z" fill="#E57B42"/>
<path d="M93.5926 36.863C93.4686 37.2663 93.3641 37.677 93.2183 38.0731C92.3241 40.5055 90.1104 41.9975 87.3596 41.9975C77.3043 42.0024 67.2514 41.9975 57.196 41.9975C55.4586 41.9975 53.7187 42 51.9812 41.9975C48.1953 41.9878 45.6486 39.4509 45.6389 35.648C45.6268 30.3263 45.6365 25.0046 45.6365 19.6853C45.6365 15.5932 45.6341 11.5035 45.6365 7.41136C45.6414 3.39943 48.137 0.90625 52.144 0.90625C63.7764 0.90625 75.4089 0.90625 87.0389 0.90625C90.4967 0.90625 92.4966 2.41528 93.4759 5.75896C93.5051 5.85616 93.5537 5.9485 93.5926 6.04327V36.863ZM69.6741 6.04327C63.7911 6.04327 57.9056 6.04327 52.0225 6.04327C51.0481 6.04327 50.776 6.30328 50.776 7.27528C50.7711 16.7158 50.7711 26.1588 50.776 35.5994C50.776 36.6127 51.0408 36.8605 52.0736 36.8605C63.7619 36.8605 75.4502 36.8605 87.1385 36.8605C88.2198 36.8605 88.4555 36.6248 88.4555 35.5483C88.4555 26.1612 88.4555 16.7717 88.4555 7.38463C88.4555 6.25468 88.2393 6.04327 87.0874 6.04327C81.2846 6.04327 75.4794 6.04327 69.6765 6.04327H69.6741Z" fill="#E57B42"/>
<path d="M69.631 23.448C69.631 25.3191 69.6577 27.1902 69.6212 29.0589C69.5921 30.6287 68.4597 31.7441 67.0042 31.7198C65.5826 31.6955 64.5304 30.5777 64.4988 29.0443C64.4867 28.4028 64.4745 27.7613 64.5013 27.1198C64.5183 26.6921 64.3506 26.5657 63.9424 26.5779C63.1672 26.6022 62.392 26.6095 61.6168 26.5779C61.1454 26.556 61.0191 26.7456 61.0361 27.183C61.0604 27.8755 61.0604 28.5729 61.0288 29.2679C60.968 30.602 59.9304 31.6469 58.6328 31.7198C57.3595 31.7902 56.232 30.913 55.9817 29.6373C55.9258 29.3505 55.9088 29.0541 55.9088 28.7625C55.9039 25.2633 55.8869 21.7616 55.9112 18.2624C55.9404 14.2068 58.9511 11.1522 62.8391 11.1838C66.6153 11.2154 69.5532 14.2213 69.6237 18.1628C69.6553 19.927 69.6285 21.6912 69.6285 23.4529L69.631 23.448ZM61.0507 19.5017H61.0458C61.0458 19.9561 61.0701 20.413 61.0385 20.865C61.0069 21.3218 61.1746 21.4773 61.6314 21.4579C62.4066 21.4263 63.1818 21.4384 63.9569 21.453C64.302 21.4603 64.511 21.3947 64.5013 20.9767C64.477 19.9877 64.528 18.9963 64.4745 18.0097C64.4211 16.9964 63.7066 16.3281 62.7857 16.3184C61.8355 16.3087 61.126 17.0085 61.0555 18.0583C61.0239 18.537 61.0507 19.0206 61.0507 19.5017Z" fill="#E57B42"/>
<path d="M81.591 21.4919C81.591 23.9511 81.5983 26.4127 81.591 28.8718C81.5838 30.5777 80.5316 31.7344 79.0177 31.7222C77.5378 31.7101 76.4662 30.5583 76.4614 28.9107C76.4492 23.9365 76.4516 18.9623 76.4614 13.9881C76.4638 12.4888 77.3021 11.4366 78.6143 11.2082C79.7953 11.0016 80.9739 11.6942 81.4331 12.846C81.5984 13.2591 81.5886 13.6843 81.591 14.1096C81.5935 16.5687 81.591 19.0303 81.591 21.4895V21.4919Z" fill="#E57B42"/>
</svg>
