<svg width="75" height="90" viewBox="0 0 75 90" fill="none" xmlns="http://www.w3.org/2000/svg">
<path d="M39.9138 0.644531C41.4474 0.871331 42.9918 1.04953 44.5173 1.33573C51.0162 2.56153 56.7429 5.40193 61.7109 9.74353C67.4052 14.7169 71.3256 20.8432 73.2048 28.1791C75.6294 37.6399 74.5683 46.7389 69.8649 55.3141C65.0346 64.1242 57.6987 69.9481 48.1407 72.9748C46.1076 73.6201 44.0097 74.0386 41.8821 74.2573C41.3232 74.314 41.1747 74.4895 41.2314 75.07C41.6094 78.9634 44.4039 81.7255 48.3243 81.8956C50.6004 81.9955 52.8846 81.9523 55.1634 81.9226C55.8141 81.9145 56.0058 82.1089 55.9923 82.7542C55.9518 84.6874 55.9599 86.6233 55.9923 88.5565C56.0004 89.1316 55.8843 89.3557 55.2417 89.3557C43.4076 89.3368 31.5708 89.3368 19.7367 89.3557C19.0995 89.3557 18.9753 89.1343 18.9861 88.5592C19.0185 86.626 19.0239 84.6901 18.9861 82.7569C18.9726 82.1116 19.1589 81.9145 19.8123 81.9226C22.1775 81.9469 24.5481 81.9901 26.9106 81.8794C30.6447 81.7039 33.5769 78.6367 33.7686 74.9026C33.7983 74.314 33.4824 74.3167 33.0963 74.2708C30.1641 73.9198 27.3129 73.234 24.5481 72.1972C18.762 70.0237 13.8318 66.6055 9.74938 61.9777C5.46178 57.1177 2.60788 51.5017 1.33888 45.154C-0.486324 36.0388 0.761075 27.3502 5.45098 19.2637C10.1868 11.0908 17.0772 5.49643 26.0277 2.47243C28.7142 1.56523 31.4817 1.01443 34.314 0.798431C34.5705 0.779531 34.8378 0.811931 35.0646 0.644531C36.6792 0.644531 38.2965 0.644531 39.9138 0.644531ZM37.7214 67.1617C38.9283 67.0807 40.3404 67.0456 41.7417 66.8269C50.3682 65.4931 57.2316 61.2352 62.0349 53.9992C67.4025 45.91 68.6256 37.0378 65.3289 27.8875C61.3815 16.9363 53.4084 10.5103 41.9469 8.41783C41.334 8.30443 41.145 8.42323 41.1585 9.06853C41.1963 10.945 41.1531 12.8215 41.1828 14.698C41.1936 15.2677 41.0073 15.4351 40.4457 15.427C38.4558 15.3973 36.4632 15.3973 34.4706 15.427C33.9252 15.4351 33.7848 15.2461 33.7929 14.7277C33.8172 12.9106 33.7686 11.0908 33.8199 9.27373C33.8415 8.52583 33.7119 8.28823 32.8857 8.42593C29.616 8.97673 26.5029 9.98113 23.5815 11.5444C10.5594 18.5104 4.69228 33.9004 9.75478 47.7568C14.01 59.3992 25.1583 67.1914 37.7214 67.1617Z" fill="#E57B42"/>
<path d="M55.9672 37.7232C55.708 48.1722 47.3272 56.3262 37.1482 56.0697C26.9503 55.8132 18.9097 47.6025 19.0366 37.4748C19.1662 27.0501 27.6118 18.9366 37.7422 19.1283C47.8726 19.32 55.9726 27.5091 55.9699 37.7205L55.9672 37.7232ZM37.4668 48.6663C43.5796 48.6798 48.5503 43.7469 48.5719 37.6422C48.5935 31.5186 43.5661 26.4804 37.4641 26.5074C31.3648 26.5344 26.4022 31.5105 26.4022 37.6017C26.4022 43.7037 31.3486 48.6501 37.4668 48.6663Z" fill="#E57B42"/>
<path d="M37.5515 34.8883C37.5515 35.7469 37.2167 36.8917 37.6406 37.3939C38.132 37.9771 39.3119 37.5451 40.1921 37.5856C40.9103 37.618 41.6339 37.618 42.3521 37.5856C42.8786 37.5586 43.0568 37.699 42.9866 38.266C42.6923 40.7068 40.6376 42.8236 38.2535 43.0801C35.5265 43.3744 33.0722 41.8705 32.2757 39.4162C31.4468 36.862 32.4053 34.1944 34.6247 32.8822C35.3267 32.4664 36.0746 32.2072 36.8954 32.1208C37.3517 32.0722 37.5164 32.1667 37.4948 32.6419C37.4624 33.3898 37.4867 34.1404 37.4867 34.891C37.5083 34.891 37.5299 34.891 37.5488 34.891L37.5515 34.8883Z" fill="#E57B42"/>
</svg>
