<svg width="95" height="82" viewBox="0 0 95 82" fill="none" xmlns="http://www.w3.org/2000/svg">
<path d="M17.1563 43.915C17.5283 44.311 17.7995 44.5798 18.0467 44.8702C19.0427 46.039 18.9803 47.7094 17.9123 48.7774C16.8395 49.8478 15.1211 49.963 14.0147 48.9022C11.9627 46.9342 9.95149 44.9206 7.98349 42.871C6.96589 41.8126 6.9779 40.1734 7.9979 39.115C9.9491 37.0894 11.9387 35.0974 13.9619 33.1438C15.0971 32.047 16.8395 32.1382 17.9267 33.2422C18.9875 34.3174 19.0355 35.9806 18.0299 37.1494C17.7851 37.435 17.5163 37.7038 17.2379 38.0014C17.5667 38.215 17.8715 38.1214 18.1523 38.1238C25.9955 38.131 33.8363 38.1238 41.6795 38.1406C42.2651 38.1406 42.6323 37.9942 43.0115 37.5046C45.2915 34.555 49.5491 34.4782 51.8603 37.3702C52.3715 38.011 52.8515 38.155 53.6195 38.1502C59.3075 38.1118 64.9931 38.1286 70.6811 38.1286C73.0115 38.1286 75.3443 38.1286 77.7587 38.1286C77.5979 37.6822 77.2547 37.4806 77.0123 37.2046C75.9659 36.0118 75.9971 34.3222 77.0915 33.2278C78.1835 32.1334 79.9187 32.0566 81.0587 33.1582C83.0603 35.0926 85.0283 37.0606 86.9651 39.0622C88.0475 40.183 88.0403 41.8342 86.9507 42.9574C85.0355 44.935 83.0867 46.8814 81.1115 48.8014C79.9355 49.9438 78.1859 49.8886 77.0771 48.763C75.9683 47.635 75.9731 45.931 77.0915 44.7214C77.3075 44.4886 77.5259 44.2582 77.7707 43.999C77.4083 43.7878 77.0771 43.8814 76.7651 43.8814C69.1331 43.8742 61.4987 43.891 53.8667 43.8574C52.9595 43.8526 52.3643 44.0062 51.7235 44.7814C49.3979 47.587 45.1979 47.371 42.9371 44.4214C42.6611 44.059 42.4187 43.8646 41.9291 43.8646C33.8483 43.8814 25.7651 43.8766 17.6843 43.879C17.5667 43.879 17.4491 43.8958 17.1563 43.9174V43.915Z" fill="#E57B42"/>
<path d="M46.1277 81.2399C37.3749 81.0983 28.1181 78.4223 20.0541 72.1487C19.0365 71.3567 18.5565 70.3535 18.8517 69.0863C19.1277 67.9007 19.9244 67.1711 21.1196 66.9239C22.0652 66.7271 22.8789 67.0511 23.6205 67.6343C27.7509 70.8887 32.3948 73.1087 37.5044 74.2775C48.4988 76.7879 58.9557 75.5327 68.6757 69.5615C69.6429 68.9687 70.5428 68.2655 71.4572 67.5911C72.9236 66.5087 74.6733 66.6791 75.6765 68.0207C76.6557 69.3311 76.3725 71.0399 74.9733 72.1391C69.3285 76.5791 62.9108 79.2623 55.8668 80.5127C53.09 81.0047 50.2917 81.2399 46.1277 81.2399Z" fill="#E57B42"/>
<path d="M49.0916 0.760742C57.6068 0.880742 66.8323 3.55674 74.8867 9.78474C75.8995 10.5671 76.4324 11.5439 76.178 12.8183C75.9476 13.9703 75.2156 14.7215 74.0684 15.0311C73.0556 15.3047 72.1843 14.9807 71.3923 14.3591C66.7651 10.7183 61.5236 8.38074 55.7588 7.32474C44.738 5.30634 34.3868 6.92874 24.9908 13.3295C24.4724 13.6823 23.9876 14.0855 23.4788 14.4551C22.0484 15.4967 20.3276 15.2951 19.3364 13.9751C18.35 12.6647 18.6379 10.9703 20.0371 9.86154C24.8755 6.02634 30.3572 3.51594 36.3308 2.06634C40.0076 1.17354 43.7491 0.751142 49.0891 0.763142L49.0916 0.760742Z" fill="#E57B42"/>
<path d="M47.5009 69.7654C40.5553 69.6598 34.2121 67.8022 28.6681 63.5302C27.6481 62.7454 27.1729 61.735 27.4705 60.4654C27.7513 59.2798 28.5505 58.555 29.7433 58.3078C30.6913 58.1086 31.4785 58.4758 32.2465 59.0182C40.7377 65.011 49.7185 65.4982 59.0881 61.3366C60.4321 60.739 61.6345 59.8966 62.8033 59.0038C64.2721 57.8854 66.0001 58.0438 67.0225 59.3734C68.0401 60.6958 67.7521 62.4334 66.3025 63.5518C60.7609 67.8382 54.4057 69.6622 47.5009 69.763V69.7654Z" fill="#E57B42"/>
<path d="M67.6264 20.9213C67.564 21.9941 67.0912 22.8509 66.1192 23.3837C65.1448 23.9189 64.1561 23.8781 63.2249 23.2805C62.5217 22.8293 61.8737 22.2869 61.1705 21.8357C52.5785 16.3181 40.4945 16.7501 32.3081 22.9541C30.3761 24.4181 27.9736 23.5589 27.4864 21.5909C27.1624 20.2805 27.6448 19.2581 28.6888 18.4493C32.3488 15.6101 36.4673 13.7669 41.0033 12.9053C49.2353 11.3381 57.0112 12.5117 64.2016 16.9565C64.9888 17.4437 65.7233 18.0149 66.4649 18.5717C67.2329 19.1477 67.5928 19.9421 67.6264 20.9213Z" fill="#E57B42"/>
<path d="M47.5018 58.257C43.7866 58.1994 40.3689 57.2178 37.3737 54.957C35.9001 53.8458 35.581 52.1346 36.5674 50.7978C37.561 49.4514 39.2602 49.2618 40.7746 50.3298C44.7514 53.1306 50.2617 53.1306 54.2289 50.3298C55.7457 49.2594 57.4449 49.449 58.4337 50.7954C59.4201 52.1394 59.1034 53.8506 57.6322 54.9594C54.637 57.2202 51.217 58.197 47.4994 58.257H47.5018Z" fill="#E57B42"/>
<path d="M48.2683 23.7529C51.2971 23.8057 54.7627 24.8161 57.7867 27.1537C58.7467 27.8953 59.1787 28.8817 58.9339 30.0721C58.6891 31.2601 57.9211 32.0185 56.7355 32.3041C55.7947 32.5321 54.9931 32.1937 54.2155 31.6681C50.4235 29.1001 46.4227 28.9657 42.2947 30.7513C41.7259 30.9961 41.2147 31.3825 40.6963 31.7353C39.2347 32.7313 37.5259 32.5153 36.5587 31.1905C35.5891 29.8633 35.8939 28.1953 37.3099 27.0889C40.0267 24.9649 43.7347 23.7529 48.2659 23.7553L48.2683 23.7529Z" fill="#E57B42"/>
</svg>
