<svg width="95" height="78" viewBox="0 0 95 78" fill="none" xmlns="http://www.w3.org/2000/svg">
<path d="M47.4133 77.8791C37.2829 77.8791 27.1525 77.8791 17.0221 77.8791C11.9483 77.8791 8.69531 74.6154 8.69531 69.5264C8.69531 49.1706 8.69531 28.8169 8.69531 8.46106C8.69531 3.37642 11.9504 0.119141 17.0308 0.119141C37.3456 0.119141 57.6604 0.119141 77.9752 0.119141C83.0533 0.119141 86.3019 3.37642 86.3019 8.47186C86.3019 28.9076 86.3041 49.3434 86.3019 69.7791C86.3019 73.6304 84.075 76.6371 80.5283 77.6135C79.7161 77.8381 78.8867 77.8835 78.0486 77.8813C67.8361 77.877 57.6258 77.8791 47.4133 77.8791ZM13.8685 38.9991C13.8685 49.2311 13.8685 59.4651 13.8685 69.6971C13.8685 71.6778 14.8772 72.693 16.8428 72.6951C37.2678 72.6951 57.6927 72.6951 78.1177 72.6951C80.1459 72.6951 81.1288 71.7037 81.1288 69.6539C81.1288 49.2159 81.1288 28.778 81.1288 8.3401C81.1288 6.30106 80.1395 5.3053 78.1112 5.3053C57.7122 5.3053 37.3153 5.3053 16.9163 5.3053C14.8276 5.3053 13.8685 6.27514 13.8685 8.38546C13.8685 18.5915 13.8685 28.7975 13.8685 39.0013V38.9991Z" fill="#E57B42"/>
<path d="M47.5131 18.2598C58.9092 18.2619 68.2059 27.5737 68.1907 38.972C68.1778 50.4913 58.9049 59.749 47.3986 59.7318C36.0348 59.7166 26.7814 50.3746 26.8008 38.9374C26.8224 27.5218 36.1018 18.2576 47.5131 18.2598ZM47.5174 54.5478C56.0148 54.5629 63.0111 47.571 63.0154 39.0606C63.0197 30.4918 56.0882 23.4546 47.6383 23.4481C38.9357 23.4416 32.0042 30.332 31.9783 39.0174C31.9524 47.5537 38.9357 54.5326 47.5174 54.5478Z" fill="#E57B42"/>
<path d="M19.0423 18.177C19.0423 16.5311 19.0337 14.8852 19.0445 13.2393C19.0553 11.5696 20.1115 10.4939 21.7661 10.4874C25.1335 10.4766 28.4988 10.4745 31.8663 10.4874C33.4258 10.4939 34.5792 11.6366 34.5598 13.1097C34.5425 14.5482 33.4042 15.652 31.8792 15.6628C29.5896 15.6801 27.3 15.6866 25.0104 15.6542C24.4013 15.6455 24.1831 15.773 24.1961 16.4382C24.2414 18.5961 24.2134 20.7561 24.2134 22.9139C24.2134 24.845 23.209 26.0438 21.6063 26.0308C20.0381 26.02 19.0423 24.8255 19.0402 22.9528C19.0402 21.3609 19.0402 19.769 19.0402 18.177H19.0423Z" fill="#E57B42"/>
<path d="M75.9551 18.2399C75.9551 19.9139 75.9637 21.5858 75.9529 23.2598C75.9421 24.8863 74.8254 26.0548 73.3242 26.0311C71.8619 26.0073 70.7905 24.8495 70.784 23.2533C70.7754 20.9594 70.7625 18.6655 70.7949 16.3715C70.8035 15.8078 70.6566 15.6436 70.0842 15.6523C67.8227 15.6868 65.559 15.6695 63.2975 15.6652C61.5997 15.6609 60.4225 14.5744 60.4376 13.043C60.4549 11.5396 61.6127 10.4855 63.2716 10.4834C66.5569 10.4769 69.8444 10.4769 73.1298 10.4834C74.8859 10.4877 75.9443 11.5461 75.9529 13.3022C75.9616 14.9481 75.9529 16.594 75.9529 18.2399H75.9551Z" fill="#E57B42"/>
<path d="M26.8396 67.5106C25.17 67.5106 23.5003 67.5192 21.8306 67.5106C20.1242 67.4998 19.0507 66.4349 19.0464 64.7328C19.0377 61.387 19.0356 58.039 19.0464 54.6931C19.0507 53.1098 20.1544 51.9629 21.6276 51.9629C23.0964 51.9629 24.2023 53.1163 24.2131 54.6953C24.2261 56.9892 24.2369 59.2831 24.2023 61.5771C24.1937 62.1689 24.3297 62.3568 24.9496 62.346C27.2112 62.305 29.4749 62.3244 31.7364 62.3309C33.3845 62.3352 34.5508 63.4066 34.5595 64.9056C34.5681 66.4068 33.4017 67.5019 31.7666 67.5106C30.1228 67.5192 28.4812 67.5106 26.8375 67.5106H26.8396Z" fill="#E57B42"/>
<path d="M75.9529 59.7587C75.9529 61.4046 75.9594 63.0505 75.9529 64.6986C75.9442 66.4633 74.8945 67.5088 73.1254 67.5131C69.8401 67.5196 66.5525 67.5196 63.2672 67.5131C61.6169 67.5109 60.4484 66.4396 60.4376 64.9427C60.4268 63.4069 61.5953 62.3356 63.3017 62.3312C65.5654 62.3269 67.8269 62.3096 70.0906 62.3442C70.6717 62.3528 70.8034 62.1714 70.7948 61.6163C70.7646 59.3504 70.7775 57.0824 70.784 54.8144C70.7883 53.1145 71.8748 51.9395 73.4084 51.9632C74.9009 51.9848 75.9485 53.1534 75.955 54.8188C75.9615 56.4647 75.955 58.1106 75.955 59.7587H75.9529Z" fill="#E57B42"/>
<path d="M47.5252 31.2207C48.899 31.2337 50.0179 32.3266 50.0784 33.7349C50.1064 34.3808 50.1323 35.0331 50.0719 35.6746C50.0114 36.3161 50.2663 36.4565 50.8452 36.4133C51.4608 36.3658 52.0828 36.3874 52.7006 36.4069C54.1478 36.4544 55.2602 37.5949 55.2559 39.0032C55.2515 40.4115 54.1391 41.5369 52.6855 41.5822C51.9856 41.6038 51.2858 41.6038 50.5859 41.5822C50.2015 41.5693 50.0654 41.701 50.0784 42.0877C50.1021 42.7875 50.1 43.4895 50.0784 44.1915C50.033 45.6517 48.9119 46.7641 47.5058 46.7705C46.1018 46.777 44.9786 45.6603 44.9073 44.2109C44.8663 43.3577 45.268 42.2497 44.741 41.7248C44.255 41.2431 43.1556 41.6189 42.3283 41.5887C40.8703 41.5325 39.7514 40.4309 39.7384 39.0248C39.7233 37.5776 40.8465 36.4457 42.352 36.409C43.0519 36.3917 43.7517 36.3917 44.4515 36.409C44.8015 36.4198 44.9246 36.2945 44.9159 35.9446C44.8965 35.2167 44.8922 34.4888 44.9159 33.7609C44.9656 32.3093 46.1083 31.2099 47.5231 31.2229L47.5252 31.2207Z" fill="#E57B42"/>
</svg>
