<svg width="105" height="78" viewBox="0 0 105 78" fill="none" xmlns="http://www.w3.org/2000/svg">
<path d="M49.5828 43.1975C49.5828 42.6508 49.5828 42.3252 49.5828 42.002C49.5828 33.9417 49.5463 25.8789 49.5949 17.8186C49.6314 11.5832 56.2264 7.02456 62.0171 9.16053C65.4336 10.4217 67.9147 13.7022 67.956 17.3399C68.0314 24.1269 68.007 30.9163 67.9779 37.7057C67.9754 38.5003 68.216 38.8624 68.9426 39.1613C73.7564 41.1345 78.5508 43.1587 83.35 45.1683C87.8383 47.0467 90.3047 50.7087 90.3217 55.5638C90.3339 59.2914 90.4116 63.0215 90.2853 66.7467C90.1541 70.6784 88.5988 73.9662 85.2794 76.2577C83.8798 77.2248 82.3051 77.7716 80.5944 77.7764C73.8973 77.7934 67.2003 77.791 60.5032 77.774C58.7074 77.7691 57.1425 77.1568 55.8498 75.847C49.1041 69.009 42.3389 62.188 35.5884 55.3524C32.3808 52.1035 31.6859 47.5302 33.8145 43.8536C36.6795 38.9086 43.4859 37.7956 47.8016 41.5719C48.3483 42.0481 48.8708 42.5512 49.5828 43.2024V43.1975ZM55.4026 33.2005C55.4026 38.2015 55.4026 43.2024 55.4026 48.2033C55.4026 50.1157 54.5813 51.4571 53.0674 52.0427C51.6118 52.6065 50.0469 52.1788 48.8003 50.8545C47.3034 49.2652 45.8357 47.6517 44.3218 46.0795C42.7837 44.4806 40.3148 44.5778 38.9613 46.2545C37.8094 47.6833 38.0403 49.8193 39.5566 51.3502C46.1686 58.0254 52.7928 64.6909 59.4024 71.3661C59.8131 71.7816 60.2529 71.9857 60.8458 71.9857C67.21 71.9712 73.5766 71.9614 79.9407 71.9809C81.7608 71.9857 82.9782 71.1207 83.7656 69.5533C84.2346 68.6202 84.4848 67.6166 84.4897 66.5766C84.5091 62.8174 84.5432 59.0581 84.4824 55.3014C84.4435 53.0147 83.3744 51.3429 81.1849 50.4365C75.1172 47.9287 69.0665 45.3772 62.9939 42.8816C62.3475 42.6168 62.1605 42.2911 62.1629 41.6205C62.1872 33.983 62.1775 26.3431 62.1751 18.7056C62.1751 18.1904 62.1847 17.6728 62.1313 17.1625C62.0341 16.2172 61.6429 15.4251 60.824 14.8807C59.7134 14.1445 58.5543 14.0618 57.3879 14.6936C56.1194 15.3813 55.405 16.4481 55.405 17.9255C55.4002 23.0188 55.405 28.1097 55.405 33.2029L55.4026 33.2005Z" fill="#E57B42"/>
<path d="M30.7846 0.212921C39.7294 0.195911 46.9927 7.41787 47.0121 16.3505C47.0316 25.2565 39.7732 32.5441 30.8478 32.5757C21.9345 32.6073 14.6543 25.344 14.6445 16.4137C14.6348 7.44217 21.8227 0.229931 30.7846 0.212921ZM36.1015 25.5019C35.9702 25.344 35.8998 25.2468 35.8147 25.1617C31.2949 20.6395 26.7678 16.1246 22.265 11.5878C21.7839 11.1018 21.6211 11.2038 21.3416 11.753C18.8096 16.7369 20.8629 23.1132 25.9173 25.7085C29.3145 27.4532 32.7092 27.339 36.1015 25.5019ZM39.9238 21.4851C40.1353 21.2421 40.1863 21.2033 40.213 21.1498C42.2834 17.2472 41.5349 12.3289 38.3759 9.03625C35.3384 5.87239 30.4079 4.94899 26.4713 6.75691C25.7423 7.09225 25.9222 7.30852 26.3498 7.73377C30.5829 11.9474 34.8038 16.1707 39.0223 20.3989C39.3406 20.7197 39.6055 21.0939 39.9263 21.4827L39.9238 21.4851Z" fill="#E57B42"/>
</svg>
