<svg width="105" height="76" viewBox="0 0 105 76" fill="none" xmlns="http://www.w3.org/2000/svg">
<g clip-path="url(#clip0_775_7395)">
<path d="M14.7891 37.9612C14.7891 28.2772 14.7891 18.5954 14.7891 8.91144C14.7891 3.7252 18.2023 0.293945 23.3661 0.293945C42.7881 0.293945 62.2101 0.293945 81.6343 0.293945C86.7666 0.293945 90.2068 3.71394 90.2091 8.82594C90.2113 28.2772 90.2113 47.7262 90.2091 67.1774C90.2091 72.2894 86.7666 75.7094 81.6321 75.7117C62.2101 75.7117 42.7881 75.7117 23.3638 75.7117C18.1978 75.7117 14.7891 72.285 14.7891 67.0942C14.7891 57.3832 14.7891 47.6722 14.7891 37.9612ZM52.5351 5.65345C42.7678 5.65345 33.0006 5.65345 23.2311 5.65345C21.2083 5.65345 20.1486 6.69744 20.1486 8.69545C20.1486 19.9792 20.1553 31.2629 20.1306 42.5444C20.1306 43.2464 20.3106 43.4264 21.0103 43.4219C26.8761 43.3927 32.7418 43.4084 38.6098 43.4017C39.4266 43.4017 40.2366 43.4602 41.0263 43.6694C44.6646 44.6302 47.0743 47.7577 47.0878 51.6074C47.1081 57.5587 47.1103 63.5077 47.0743 69.4589C47.0698 70.2239 47.2881 70.3724 48.0081 70.3702C59.2063 70.3477 70.4068 70.3544 81.6051 70.3544C83.8483 70.3544 84.8473 69.3599 84.8473 67.1279C84.8473 47.7059 84.8473 28.2817 84.8473 8.8597C84.8473 6.67945 83.8303 5.65569 81.6681 5.65569C71.9571 5.65569 62.2461 5.65569 52.5328 5.65569L52.5351 5.65345Z" fill="#E57B42"/>
<path d="M52.781 34.1735C52.9745 33.9013 53.1342 33.593 53.3682 33.3613C60.4467 26.2693 67.5342 19.1885 74.6127 12.0988C75.4002 11.309 76.28 10.868 77.4095 11.1718C79.34 11.6915 80.0577 13.9145 78.7977 15.4603C78.5862 15.7213 78.3365 15.9508 78.098 16.1893C71.0937 23.1958 64.0872 30.2 57.083 37.2065C56.8715 37.418 56.669 37.6408 56.4462 37.8748C56.732 38.1155 57.0222 38.012 57.2832 38.012C60.062 38.021 62.8407 38.0143 65.6195 38.0188C67.415 38.021 68.6457 39.1145 68.648 40.694C68.648 42.2735 67.4172 43.376 65.6262 43.3783C60.4625 43.3828 55.2987 43.3828 50.135 43.3783C48.1842 43.3783 47.1245 42.3095 47.1245 40.3475C47.12 35.1838 47.12 30.02 47.1245 24.8563C47.1245 23.0653 48.2337 21.839 49.8222 21.8525C51.4017 21.8638 52.4795 23.0945 52.484 24.8968C52.4907 27.8713 52.4885 30.8458 52.493 33.8203C52.493 33.872 52.5222 33.9238 52.538 33.9755C52.619 34.0408 52.7 34.1083 52.781 34.1735Z" fill="#E57B42"/>
</g>
<defs>
<clipPath id="clip0_775_7395">
<rect width="75.42" height="75.42" fill="white" transform="translate(14.7891 0.290039)"/>
</clipPath>
</defs>
</svg>
