<svg width="105" height="80" viewBox="0 0 105 80" fill="none" xmlns="http://www.w3.org/2000/svg">
<path d="M12.1901 79.2512C10.8691 79.2512 10.189 78.219 9.86309 77.7225L9.71875 77.5038V76.0845L9.78436 75.9248C10.4142 74.4048 10.95 72.8061 11.4705 71.2599C11.757 70.4048 12.0545 69.5191 12.3672 68.6508C12.704 67.7104 13.0342 66.7438 13.3514 65.8099C13.7078 64.7624 14.0774 63.6798 14.4624 62.6191C14.8582 61.53 14.8932 60.4452 14.5717 59.3014C13.9878 57.2281 13.4038 55.1155 12.8396 53.075C12.2797 51.0499 11.7177 49.0225 11.149 46.9995C10.2349 43.7497 10.3858 40.561 11.6018 37.5211C13.6422 32.4188 16.0567 26.4002 18.4996 20.4384C19.6149 17.7156 22.1956 15.9551 25.0759 15.9551C25.592 15.9551 26.1081 16.0141 26.6133 16.1279C30.0819 16.9152 32.4023 19.966 32.258 23.5462C32.2164 24.5544 31.9059 25.4554 31.639 26.129C29.9988 30.2646 28.3585 34.398 26.7205 38.5337C27.1491 38.4637 27.5669 38.4287 27.9802 38.4287C29.2159 38.4287 30.399 38.7546 31.4991 39.3975C33.1678 40.3729 34.2897 41.672 34.8299 43.2598C35.0661 43.9531 35.3045 44.6463 35.5407 45.3396C36.6495 48.572 37.7955 51.9137 38.819 55.2423C40.4002 60.3818 39.2739 65.2763 35.5582 69.3988C33.264 71.9445 32.0327 74.2211 31.5669 76.7799C31.4947 77.1758 31.3504 77.5826 31.147 77.9587C30.7205 78.7526 29.896 79.2447 28.995 79.2447C28.7282 79.2447 28.4657 79.2009 28.212 79.1178C26.9829 78.7089 26.2525 77.506 26.5171 76.3207C27.1885 73.3004 28.1333 70.1533 30.4931 67.5902C31.2826 66.7328 31.9277 66.0024 32.5029 65.2282C34.4931 62.5491 34.9808 59.5792 33.9507 56.3971C32.8878 53.1166 31.6806 49.5233 30.1541 45.0837C29.826 44.128 28.8987 43.461 27.9037 43.461C27.6762 43.461 27.4531 43.496 27.241 43.566C25.9966 43.9793 25.3886 45.1887 25.7626 46.5075C26.1169 47.7584 26.4952 49.0291 26.8583 50.2582C27.1885 51.3692 27.5297 52.5173 27.8534 53.6524C28.1005 54.5184 27.9627 55.3867 27.475 56.034C27.0179 56.6398 26.3028 56.9854 25.5089 56.9854C25.4148 56.9854 25.3186 56.981 25.2224 56.9701C24.1879 56.8651 23.429 56.2571 23.1426 55.2992C22.9129 54.5381 22.6702 53.7639 22.4362 53.016C21.7582 50.853 21.0562 48.6157 20.5816 46.3391C20.0348 43.7169 20.3344 40.9547 21.4651 38.1269C22.5368 35.45 23.5996 32.7709 24.6647 30.0897C25.4127 28.2067 26.1606 26.3215 26.9108 24.4385C27.1885 23.7408 27.335 23.2006 27.2016 22.6648C26.9764 21.7572 26.2525 21.0945 25.4017 21.0158C25.3121 21.007 25.2246 21.0027 25.1371 21.0027C24.1967 21.0027 23.499 21.4926 23.1207 22.4155C22.0928 24.9283 21.0627 27.4893 20.0654 29.965L18.9501 32.7316C18.6789 33.4052 18.4099 34.0787 18.1387 34.7523C17.5766 36.1586 16.9927 37.6129 16.4022 39.0389C15.4902 41.239 15.359 43.4085 16.002 45.672C16.5837 47.7169 17.1589 49.7967 17.7122 51.8109C18.2546 53.7814 18.8167 55.8175 19.3853 57.8143C20.0239 60.0625 19.9561 62.2058 19.1775 64.3687C17.9397 67.811 16.7412 71.3343 15.5799 74.7438L14.797 77.0424C14.5958 77.6329 14.1234 79.0172 12.5356 79.225C12.4219 79.2403 12.306 79.2469 12.1944 79.2469L12.1901 79.2512Z" fill="#E57B42"/>
<path d="M10.5938 76.2499C11.5845 73.8573 12.3171 71.3729 13.1897 68.9388C13.9092 66.9355 14.5588 64.9081 15.2849 62.9092C15.7507 61.6254 15.7813 60.3657 15.4139 59.0557C14.2592 54.9594 13.1438 50.8523 11.9912 46.7538C11.1405 43.7292 11.2477 40.7527 12.4133 37.8374C14.6922 32.1381 16.982 26.4432 19.3068 20.7613C20.4899 17.8723 23.5014 16.3108 26.4167 16.9734C29.4654 17.6667 31.508 20.3524 31.3812 23.5038C31.3484 24.3065 31.1166 25.061 30.8235 25.8002C29.0826 30.1873 27.344 34.5744 25.6053 38.9615C25.5091 39.2043 25.426 39.4536 25.3013 39.8035C27.3462 39.0775 29.2401 39.0862 31.0575 40.1469C32.4222 40.9452 33.4873 42.0255 34.0012 43.5346C35.3571 47.5105 36.7481 51.4777 37.9837 55.4909C39.5212 60.486 38.3555 64.9803 34.9088 68.8053C32.8465 71.0951 31.2653 73.5533 30.7054 76.6151C30.6485 76.9322 30.5304 77.2515 30.3773 77.5358C30.0077 78.2226 29.2117 78.52 28.4878 78.2794C27.7158 78.0236 27.1975 77.2778 27.3702 76.5014C28.0438 73.4658 28.9602 70.5353 31.1362 68.1733C31.8558 67.3904 32.5709 66.5943 33.2051 65.7414C35.3812 62.8152 35.9039 59.5806 34.782 56.1186C33.5551 52.3307 32.2757 48.5581 30.981 44.7921C30.4014 43.1059 28.5578 42.2005 26.9656 42.7297C25.2926 43.2852 24.4156 44.9605 24.9208 46.7385C25.5988 49.1267 26.3292 51.4996 27.0137 53.8878C27.379 55.1694 26.5501 56.2213 25.3101 56.0967C24.6474 56.0289 24.1685 55.6724 23.9804 55.0447C23.0925 52.0923 22.0667 49.177 21.4369 46.1568C20.888 43.5236 21.2772 40.9452 22.2767 38.4498C24.1028 33.8921 25.9027 29.3234 27.7223 24.7614C28.0198 24.0134 28.2516 23.2676 28.0482 22.4541C27.7355 21.19 26.701 20.2583 25.4807 20.1446C24.0504 20.009 22.8738 20.7023 22.3073 22.0866C20.9033 25.5202 19.5233 28.9648 18.1345 32.4049C17.286 34.5044 16.4593 36.6127 15.591 38.7035C14.6113 41.0611 14.456 43.4471 15.158 45.9118C16.3084 49.9534 17.3931 54.0125 18.5413 58.0541C19.1209 60.0923 19.0771 62.0606 18.3532 64.0749C16.8398 68.2848 15.4139 72.5254 13.9683 76.7595C13.6971 77.5533 13.3406 78.2379 12.4221 78.3582C11.532 78.4763 11.0333 77.8967 10.5981 77.2384V76.2543L10.5938 76.2499Z" fill="#E57B42"/>
<path d="M61.2713 55.9593C60.7093 55.9593 60.1319 55.7494 59.5523 55.3382L59.128 55.0364C57.0373 53.5471 54.8743 52.0052 52.7661 50.459C52.7508 50.4481 52.7355 50.4372 52.7245 50.4284C52.7114 50.4372 52.6961 50.4481 52.6764 50.4612C51.4714 51.3426 50.2401 52.2239 49.0482 53.0747C48.064 53.7789 47.0777 54.4831 46.0979 55.1939C45.5512 55.5897 44.941 55.9571 44.1886 55.9571C43.8125 55.9571 43.4385 55.8631 43.0777 55.675C41.6627 54.9424 41.6692 53.4902 41.6714 52.8713C41.6824 50.6099 41.6802 48.3092 41.678 46.085C41.678 46.085 41.678 42.0041 41.6758 41.1993C41.6736 38.8942 41.6714 36.5125 41.6889 34.1681C38.9486 33.8225 36.6588 32.2654 35.4013 29.8903C34.1372 27.5021 34.1416 24.7158 35.4188 22.2445C36.0902 20.9433 36.088 19.7732 35.4079 18.4501C34.0978 15.8957 34.1634 12.9257 35.585 10.5047C37 8.09027 39.5478 6.5878 42.3997 6.48283C43.8081 6.43253 44.777 5.87266 45.5424 4.67199C47.1105 2.21162 49.7065 0.744141 52.4905 0.744141C55.2746 0.744141 57.8946 2.22037 59.4736 4.69168C60.2347 5.8814 61.2079 6.43472 62.6294 6.48502C65.455 6.58562 67.9898 8.08371 69.4135 10.4938C70.8285 12.8907 70.9138 15.8148 69.6453 18.3189C68.9214 19.747 68.9258 20.9761 69.6585 22.4239C70.8438 24.7596 70.8351 27.4496 69.6344 29.8028C68.4447 32.1342 66.3036 33.7066 63.7579 34.1156C63.7448 34.1156 63.7317 34.1199 63.7207 34.1221C63.7207 34.1396 63.7207 34.1593 63.7207 34.1812C63.7317 38.2556 63.7317 42.3977 63.7317 46.4021C63.7317 48.6132 63.7317 50.8243 63.7317 53.0375C63.7317 53.5864 63.7317 54.61 62.8613 55.3448C62.3736 55.7559 61.8377 55.9659 61.2691 55.9659L61.2713 55.9593ZM46.7496 48.541C47.3751 48.0927 48.0006 47.6444 48.6261 47.1938C49.3806 46.6515 50.1351 46.1091 50.8918 45.5689C51.4254 45.1862 52.0137 44.8341 52.7179 44.8341C53.4222 44.8341 54.0236 45.1927 54.566 45.5798C55.1761 46.015 55.7841 46.4503 56.3921 46.8877C57.1379 47.4235 57.8858 47.9593 58.6338 48.4929V37.2583C56.9935 38.9751 55.1215 39.8324 52.8732 39.9221C52.742 39.9264 52.613 39.9308 52.4861 39.9308C50.2882 39.9308 48.368 39.161 46.7518 37.6345V48.5454L46.7496 48.541ZM52.4992 5.76987C51.4189 5.76987 50.415 6.37348 49.7414 7.42761C48.0924 10.0126 45.6824 11.3839 42.579 11.5086C41.4571 11.5523 40.497 12.1012 39.9459 13.011C39.3882 13.9318 39.3488 15.0515 39.8387 16.0816C39.9 16.2106 39.9634 16.3375 40.0268 16.4643C40.2039 16.8164 40.3855 17.1816 40.5232 17.5862C41.3084 19.9001 41.1115 22.2074 39.9371 24.4447C39.4429 25.3851 39.3816 26.4436 39.7665 27.349C40.1296 28.1976 40.8316 28.8099 41.7458 29.0724C42.1066 29.1773 42.5265 29.2058 42.9705 29.2386L43.1848 29.2539C45.5533 29.4354 47.4648 30.4305 48.871 32.2151C49.046 32.436 49.2166 32.6612 49.385 32.8865C49.5993 33.1686 49.8005 33.4354 50.0126 33.6979C50.6753 34.5158 51.4714 34.8876 52.5933 34.8985C53.6256 34.8941 54.4851 34.4196 55.1346 33.4857C55.2177 33.3676 55.2986 33.2451 55.3795 33.1249C55.6289 32.7531 55.8869 32.3682 56.2084 32.0117C57.7481 30.3014 59.7688 29.361 62.2139 29.2189C63.5283 29.1423 64.5977 28.5431 65.1467 27.5764C65.6562 26.6798 65.6409 25.571 65.1029 24.53C63.6486 21.7175 63.6529 18.9728 65.116 16.1384C65.6453 15.1149 65.6387 13.9974 65.1029 13.0744C64.5518 12.1231 63.5502 11.5501 62.3561 11.4998C59.2877 11.3708 56.9039 10.0039 55.2702 7.43855C54.5944 6.37567 53.5818 5.76549 52.4949 5.76549L52.4992 5.76987Z" fill="#E57B42"/>
<path d="M42.5579 43.6197C42.5579 40.4508 42.5448 37.2796 42.571 34.1107C42.5754 33.5508 42.3961 33.3758 41.8515 33.3102C36.6683 32.6847 33.8034 27.3004 36.2025 22.6508C37.0117 21.0805 36.9964 19.624 36.1938 18.0559C33.7006 13.192 37.0008 7.56049 42.4376 7.36147C44.1304 7.30024 45.3704 6.5829 46.2868 5.14604C49.2873 0.439617 55.728 0.450552 58.7439 5.16791C59.6625 6.60477 60.9156 7.30461 62.6062 7.36366C67.9577 7.55393 71.2973 13.1439 68.8719 17.9291C68.0146 19.6218 68.0321 21.1396 68.885 22.8236C71.0939 27.1801 68.3995 32.4901 63.6253 33.2534C62.967 33.3583 62.8489 33.5967 62.8511 34.185C62.8686 40.4705 62.8598 46.7537 62.8642 53.0392C62.8642 53.6559 62.8227 54.242 62.3043 54.6772C61.6439 55.2349 60.9134 55.2371 60.0649 54.6313C57.7991 53.0173 55.5312 51.4055 53.2895 49.7587C52.8609 49.4437 52.5875 49.4525 52.1654 49.7608C49.985 51.3552 47.7761 52.9057 45.5891 54.4913C44.9374 54.9659 44.29 55.3202 43.4852 54.9047C42.6563 54.476 42.5492 53.7171 42.5514 52.8817C42.5667 49.7936 42.5579 46.7056 42.5579 43.6197ZM52.5919 35.7815C53.9041 35.7772 55.0348 35.1801 55.8593 33.9948C56.1873 33.5246 56.4847 33.0281 56.8653 32.606C58.3065 31.0051 60.1152 30.2266 62.2715 30.1019C65.563 29.9094 67.3498 26.9657 65.8867 24.1379C64.5635 21.5792 64.581 19.1057 65.8998 16.5491C67.3213 13.7934 65.4974 10.7666 62.3984 10.6354C59.634 10.5195 57.5104 9.33196 56.0145 6.97875C54.2562 4.21657 50.7657 4.20563 49.0074 6.96344C47.4896 9.34289 45.3442 10.5304 42.5492 10.6398C39.5486 10.7601 37.7662 13.7475 39.0522 16.4616C39.273 16.9296 39.5333 17.3845 39.6995 17.8722C40.4234 20.0023 40.2156 22.045 39.1659 24.0439C37.9062 26.443 39.0194 29.203 41.5082 29.9182C42.0243 30.0669 42.582 30.091 43.1244 30.1303C45.1889 30.2878 46.8969 31.1189 48.1895 32.7613C48.5787 33.2534 48.944 33.7651 49.3376 34.2528C50.1403 35.2435 51.1769 35.764 52.5897 35.7794L52.5919 35.7815ZM45.8778 50.207C46.2015 49.9927 46.4486 49.8418 46.6826 49.6734C48.2572 48.5471 49.8297 47.4142 51.4022 46.2857C52.4694 45.5224 52.9746 45.5224 54.0594 46.2966C55.6799 47.4536 57.2939 48.6214 58.9189 49.7718C59.0982 49.8986 59.2469 50.1501 59.5094 50.0648V34.7165C57.9085 37.19 55.9008 38.9308 52.839 39.0511C49.7707 39.1714 47.5596 37.7236 45.8778 35.2413V50.207Z" fill="#E57B42"/>
<path d="M76.0157 79.2556C74.99 79.2556 74.0889 78.6236 73.7193 77.6482C73.4744 76.9964 73.2753 76.3207 73.1288 75.6361C72.7308 73.7597 71.8101 72.0516 70.3163 70.4136C69.6777 69.7137 69.0041 68.9527 68.4158 68.1435C65.4634 64.08 64.7548 59.5814 66.3098 54.7678C67.6176 50.724 68.8664 47.0127 70.1304 43.4238C71.1933 40.4036 73.9227 38.4506 77.0851 38.4506C77.4897 38.4506 77.8943 38.4834 78.2967 38.5468C77.809 37.3155 77.3191 36.0864 76.8292 34.8551C75.6483 31.8917 74.4279 28.8278 73.2644 25.7966C72.4946 23.7933 72.6149 21.591 73.5968 19.7539C74.5766 17.919 76.3328 16.5981 78.4148 16.1257C78.9178 16.0119 79.4296 15.9551 79.9413 15.9551C82.815 15.9551 85.4088 17.7506 86.5483 20.5303C87.878 23.778 89.212 27.0869 90.5002 30.2865C91.0338 31.614 91.5696 32.9393 92.1054 34.2668C92.2826 34.7042 92.4597 35.1438 92.6347 35.5834C92.8643 36.1564 93.0961 36.7294 93.328 37.3024C94.6074 40.456 94.7867 43.7234 93.8594 47.0149C93.3127 48.9591 92.7747 50.9033 92.2367 52.8498C91.6505 54.969 91.0425 57.1625 90.4346 59.3167C90.1174 60.4387 90.1481 61.4994 90.5264 62.5579C91.1913 64.4103 91.8364 66.302 92.4597 68.1303L92.6741 68.758C93.223 70.3633 92.6828 71.7345 91.2984 72.2528C90.9988 72.3644 90.6948 72.4212 90.3952 72.4212C89.2973 72.4212 88.3788 71.6645 87.9348 70.3983L87.8364 70.1161C87.1059 68.0297 86.3514 65.8712 85.6319 63.7367C85.0195 61.9193 85.013 60.0078 85.6078 57.8974C86.3142 55.3933 87.0206 52.8454 87.7052 50.3785C88.1535 48.7579 88.604 47.1373 89.0567 45.5189C89.6516 43.3888 89.5444 41.3658 88.7265 39.3385L87.6199 36.5894C85.7587 31.9661 83.8364 27.1853 81.9315 22.4898C81.5553 21.5647 80.7811 20.9896 79.9107 20.9896C79.6526 20.9896 79.3924 21.0399 79.1365 21.1383C78.6007 21.3438 78.1852 21.7331 77.9643 22.234C77.7215 22.7829 77.7259 23.4324 77.973 24.0623C79.6089 28.2263 81.5466 33.1427 83.5214 38.0547C84.873 41.4183 85.0283 44.8497 83.9829 48.2527C83.5696 49.5999 83.1672 50.9777 82.7757 52.3096C82.522 53.18 82.2661 54.0482 82.008 54.9165C81.6166 56.2287 80.6958 57.0116 79.5477 57.0116C79.3093 57.0116 79.0643 56.9766 78.8194 56.9088C78.1786 56.7295 77.6778 56.3402 77.3694 55.7869C77.0173 55.1527 76.9561 54.3413 77.201 53.5015C77.5181 52.408 77.8396 51.3167 78.1633 50.2232C78.5132 49.0378 78.861 47.8547 79.2043 46.6671C79.6286 45.1975 79.0359 43.9421 77.7281 43.5441C77.5269 43.4828 77.3213 43.4522 77.1135 43.4522C76.0944 43.4522 75.1562 44.1958 74.78 45.3024C74.3142 46.6737 73.8549 48.0471 73.3934 49.4206C72.6849 51.5288 71.9544 53.7093 71.2174 55.8503C69.8636 59.7847 70.57 63.203 73.3781 66.2976C74.476 67.5092 75.7248 68.9439 76.639 70.6541C77.4744 72.2178 77.8899 73.8887 78.2901 75.5049C78.3536 75.7652 78.4192 76.0232 78.4848 76.2813C78.7975 77.506 78.0146 78.7657 76.7046 79.1506C76.4793 79.2163 76.2475 79.2512 76.0135 79.2512L76.0157 79.2556Z" fill="#E57B42"/>
<path d="M79.6047 39.7626C79.6703 39.4149 79.491 39.1918 79.3948 38.949C77.6211 34.4569 75.8081 29.9823 74.076 25.4749C72.6457 21.7549 74.7693 17.8401 78.6031 16.9719C81.5424 16.307 84.5255 17.9035 85.7327 20.8538C87.6048 25.4225 89.4397 30.0086 91.2877 34.586C91.6966 35.5986 92.1012 36.6111 92.5102 37.6237C93.724 40.6155 93.8858 43.6598 93.011 46.7698C91.8585 50.866 90.7431 54.9754 89.5862 59.0716C89.2231 60.3532 89.2472 61.5911 89.6977 62.8464C90.4347 64.9 91.1346 66.9667 91.841 69.0334C92.2368 70.1925 91.9088 71.0805 90.9859 71.426C90.028 71.7847 89.1685 71.2838 88.7551 70.1029C87.9809 67.8874 87.2045 65.6742 86.4566 63.45C85.8617 61.6829 85.9426 59.9114 86.4457 58.1269C87.6091 54.0044 88.742 49.8731 89.8924 45.7462C90.531 43.4565 90.4194 41.2082 89.5315 39.0037C87.2702 33.3853 85.011 27.7647 82.7365 22.1529C82.0542 20.4667 80.3898 19.7056 78.8152 20.3114C77.2143 20.9282 76.4817 22.6646 77.1531 24.3727C78.988 29.0441 80.8316 33.7156 82.7037 38.3717C83.9743 41.5341 84.1427 44.7227 83.1411 47.9857C82.4588 50.2034 81.8289 52.4341 81.164 54.6561C80.8207 55.8086 80.0203 56.3291 79.0514 56.0558C78.1132 55.7933 77.7042 54.8813 78.0366 53.7332C78.6971 51.4543 79.3816 49.1798 80.0399 46.8988C80.5976 44.9677 79.7403 43.2334 77.9798 42.6954C76.3242 42.1902 74.5659 43.1918 73.9491 45.0092C72.7572 48.5237 71.5937 52.0448 70.3865 55.5549C68.9256 59.8021 69.7217 63.5616 72.7266 66.8749C73.901 68.1717 75.0317 69.4993 75.8649 71.0564C76.7769 72.7644 77.164 74.6431 77.6342 76.4889C77.8376 77.2828 77.2624 78.0635 76.4554 78.3019C75.6747 78.5316 74.8392 78.1335 74.5331 77.3222C74.3012 76.712 74.1175 76.0778 73.9819 75.4391C73.5205 73.2631 72.4445 71.4347 70.9617 69.8098C70.3187 69.1056 69.6823 68.3861 69.1224 67.6141C66.3209 63.7606 65.6823 59.5375 67.141 55.0213C68.3657 51.2312 69.632 47.4543 70.9529 43.697C72.1602 40.2678 75.6812 38.5576 79.1433 39.6226C79.2898 39.6686 79.4385 39.7058 79.6069 39.7539L79.6047 39.7626Z" fill="#E57B42"/>
<path d="M92.7669 79.2428C92.1086 79.2428 91.4569 78.9607 90.9823 78.4686C90.5034 77.9722 90.2431 77.3073 90.2672 76.6403C90.3131 75.3128 91.4525 74.2324 92.8084 74.2324H92.8325C93.4864 74.239 94.0988 74.5036 94.5624 74.9782C95.0326 75.4615 95.2863 76.0979 95.2754 76.7693C95.2535 78.1297 94.1316 79.2385 92.7757 79.2428H92.7669Z" fill="#E57B42"/>
<path d="M94.4023 76.7604C94.3892 77.6418 93.6522 78.37 92.773 78.3722C91.8785 78.3744 91.1109 77.5762 91.1415 76.6751C91.1721 75.8178 91.9398 75.1027 92.8233 75.1114C93.7003 75.1202 94.4155 75.8659 94.4001 76.7604H94.4023Z" fill="#E57B42"/>
<path d="M50.4287 27.3978C49.5036 27.3978 48.8038 26.8073 48.3576 26.3612C47.4478 25.4536 46.5424 24.5438 45.6348 23.634L44.6572 22.6542C43.8743 21.8691 43.6665 20.8368 44.0908 19.822C44.4692 18.9188 45.2434 18.383 46.2734 18.3108H46.3172H46.3609C47.0979 18.3349 47.7278 18.6236 48.292 19.1944C48.5457 19.4524 48.806 19.7061 49.064 19.962C49.5146 20.406 49.9804 20.863 50.4244 21.342C51.9224 19.8133 53.4577 18.2802 54.9427 16.7952C55.5354 16.2025 56.1259 15.6121 56.7185 15.0194L56.7929 14.9428C57.0838 14.6476 57.4468 14.2802 58.0089 14.1205C58.2932 14.0396 58.5731 13.998 58.8399 13.998C59.6185 13.998 60.2877 14.337 60.7732 14.9778C61.4118 15.8198 61.4687 16.8411 60.9285 17.7794C60.7448 18.0987 60.5064 18.3371 60.2943 18.5492L60.2615 18.582C57.683 21.1714 55.1024 23.7586 52.5195 26.3415C52.0646 26.7942 51.3538 27.3978 50.4222 27.3978H50.4287Z" fill="#E57B42"/>
<path d="M46.3378 19.1766C46.9065 19.1941 47.3154 19.4369 47.6741 19.7999C48.4199 20.5566 49.2006 21.2827 49.9179 22.0678C50.3094 22.4943 50.5413 22.4724 50.9393 22.0635C53.0563 19.9005 55.2061 17.7704 57.3406 15.6271C57.6118 15.3559 57.8743 15.0585 58.2504 14.9535C58.9634 14.7523 59.6129 14.8792 60.0809 15.4981C60.5205 16.0798 60.5337 16.7141 60.175 17.3374C60.0416 17.5692 59.8404 17.766 59.6479 17.9585C57.0695 20.5457 54.491 23.1329 51.9059 25.7158C50.8431 26.7786 50.0229 26.7808 48.9732 25.7354C47.7375 24.5042 46.5084 23.2663 45.275 22.0307C44.7348 21.4883 44.6079 20.8475 44.8966 20.1542C45.1634 19.5156 45.6992 19.2226 46.3335 19.1766H46.3378Z" fill="#E57B42"/>
</svg>
