<svg width="63" height="62" viewBox="0 0 63 62" fill="none" xmlns="http://www.w3.org/2000/svg">
<path d="M57.5414 61.6728H4.84375C4.84375 54.7272 4.84375 47.7816 4.84375 40.8376C4.84375 40.2829 5.11468 40.0056 5.65655 40.0056C6.92215 40.0056 8.18615 40.0056 9.55415 40.0056C7.29335 36.428 5.97655 32.6392 5.58295 28.5464C5.19095 24.468 5.74135 20.5112 7.23415 16.6904C8.73655 12.8472 11.0422 9.55436 14.1334 6.83436C22.863 -0.848844 35.311 -1.84244 45.1014 4.45516C51.023 8.26476 54.8086 13.6792 56.3142 20.5752C57.8198 27.4712 56.5702 33.9416 52.8566 40.0056C54.2758 40.0056 55.5926 40.0376 56.9078 39.9912C57.4598 39.972 57.5526 40.1528 57.5526 40.6584C57.5366 47.6632 57.5414 54.668 57.5414 61.6744V61.6728ZM31.1654 40.004C33.4406 40.004 35.7142 39.9992 37.9894 40.0088C38.3382 40.0088 38.6422 39.9384 38.951 39.764C44.6118 36.5768 47.7462 30.1064 46.7414 23.66C45.4006 15.06 37.2534 9.15436 28.6566 10.5496C22.0342 11.6248 16.8886 16.7704 15.663 23.5464C14.5238 29.8488 17.6902 36.4776 23.3862 39.7352C23.7302 39.932 24.0678 40.012 24.4598 40.0088C26.695 39.996 28.9286 40.0024 31.1638 40.0024L31.1654 40.004ZM31.2006 58.0792C38.5622 58.0792 45.9254 58.0728 53.287 58.0936C53.847 58.0936 53.9638 57.9352 53.9622 57.404C53.9414 52.9944 53.943 48.5848 53.9622 44.1768C53.9638 43.6984 53.8278 43.588 53.3638 43.588C38.5798 43.6008 23.7958 43.6008 9.01175 43.588C8.52375 43.588 8.42775 43.7384 8.42935 44.1912C8.44535 48.6008 8.45015 53.0104 8.42455 57.4184C8.42135 57.9784 8.58295 58.0936 9.11415 58.092C16.4758 58.0744 23.839 58.0808 31.2006 58.0808V58.0792ZM44.6998 39.948C44.7958 39.9784 44.8326 39.9992 44.8678 39.9992C45.8662 40.0024 46.8646 39.9848 47.8614 40.0136C48.2645 40.0248 48.5126 39.8904 48.751 39.5688C52.8518 34.0184 54.2518 27.8664 52.751 21.1256C49.2758 5.52876 30.439 -1.30804 17.8198 8.48396C11.5574 13.3432 8.65335 19.8392 9.14615 27.7736C9.42135 32.1944 11.0198 36.1448 13.7142 39.6536C13.8198 39.7912 13.895 39.9928 14.103 39.9944C15.2854 40.0024 16.4694 39.9976 17.7366 39.9976C9.61975 32.2328 10.087 19.1608 18.1414 11.844C25.6838 4.99115 37.0214 5.07595 44.4518 12.0392C52.247 19.3448 52.727 32.1288 44.6982 39.9464L44.6998 39.948Z" fill="#E57B42"/>
<path d="M38.9337 27.8849C37.5977 27.8849 36.2617 27.8977 34.9257 27.8769C34.5545 27.8721 34.3225 27.9745 34.0889 28.2849C33.1097 29.5841 31.4633 30.0609 29.9753 29.5281C28.4553 28.9841 27.4809 27.5585 27.5529 25.9185C27.5673 25.5889 27.4569 25.4145 27.2169 25.2289C25.8009 24.1281 24.4025 23.0017 22.9785 21.9105C22.6457 21.6545 22.6201 21.4897 22.8953 21.1697C23.4521 20.5185 23.9849 19.8449 24.4841 19.1489C24.7401 18.7921 24.9065 18.8257 25.2217 19.0801C26.6009 20.1953 28.0089 21.2753 29.3945 22.3857C29.6713 22.6081 29.9049 22.6433 30.2585 22.5585C31.8249 22.1825 33.1369 22.6401 34.1225 23.9185C34.3481 24.2097 34.5689 24.2993 34.9161 24.2977C37.6089 24.2849 40.3001 24.3025 42.9929 24.2801C43.4697 24.2753 43.6073 24.4161 43.5881 24.8817C43.5529 25.6977 43.5529 26.5185 43.5881 27.3345C43.6089 27.7985 43.4393 27.9025 43.0041 27.8945C41.6489 27.8689 40.2921 27.8849 38.9353 27.8849H38.9337Z" fill="#E57B42"/>
<path d="M18.6342 53.0206C19.5638 53.0206 20.2966 53.0382 21.0294 53.0126C21.3926 52.9998 21.527 53.1118 21.4998 53.483C21.4598 54.0366 21.6678 54.755 21.3926 55.1022C21.0966 55.475 20.3478 55.2126 19.799 55.219C18.263 55.2382 16.7254 55.211 15.1894 55.235C14.7638 55.2414 14.687 55.1006 14.6518 54.6974C14.5766 53.835 14.8054 53.1918 15.5302 52.6526C16.231 52.1326 16.8326 51.4782 17.4758 50.8798C17.6518 50.7166 17.8278 50.555 17.9878 50.3774C18.4438 49.8718 18.5382 49.2894 18.2214 48.9902C17.8838 48.6702 17.0726 48.6974 16.6966 49.155C16.3494 49.5774 16.0806 49.4862 15.7078 49.2654C15.3494 49.0526 14.975 48.8542 14.5846 48.707C14.143 48.5406 14.2406 48.331 14.4534 48.0558C14.8262 47.5742 15.2694 47.179 15.8326 46.9374C17.0598 46.4126 18.319 46.3646 19.5638 46.8302C21.2678 47.467 21.8214 49.2846 20.8182 50.8094C20.5414 51.2302 20.183 51.5774 19.8198 51.9182C19.4726 52.2446 19.1222 52.5662 18.6358 53.0174L18.6342 53.0206Z" fill="#E57B42"/>
<path d="M29.7794 46.7127C28.6882 48.3575 27.6706 49.8919 26.6594 51.4167C26.8034 51.5895 26.9522 51.5223 27.0802 51.5463C27.6114 51.6423 27.8178 51.4183 27.7202 50.8983C27.6178 50.3591 27.8514 50.2007 28.3698 50.2471C28.8642 50.2919 29.3682 50.2855 29.8642 50.2471C30.317 50.2135 30.4994 50.3751 30.4274 50.8199C30.3362 51.3751 30.5234 51.6519 31.125 51.5479C31.4674 51.4887 31.5842 51.6599 31.557 51.9911C31.5346 52.2679 31.5522 52.5495 31.5522 52.8279C31.5522 53.6679 31.5538 53.6903 30.7378 53.7639C30.3362 53.8007 30.4386 54.0615 30.4322 54.2775C30.4018 55.2263 30.4066 55.2279 29.4786 55.2279C29.0402 55.2279 28.5986 55.2039 28.1618 55.2343C27.749 55.2631 27.6098 55.1287 27.6162 54.7031C27.6306 53.7735 27.6082 53.7735 26.669 53.7735C25.6722 53.7735 24.6738 53.7639 23.677 53.7783C23.3602 53.7831 23.229 53.7143 23.2082 53.3575C23.1586 52.4759 23.3058 51.7079 23.8738 50.9671C24.8322 49.7191 25.6882 48.3927 26.5714 47.0887C26.7586 46.8119 26.9618 46.6935 27.3026 46.7047C28.0786 46.7303 28.8562 46.7127 29.7794 46.7127Z" fill="#E57B42"/>
<path d="M41.2092 55.2272C42.1148 53.1088 42.9868 51.0688 43.8892 48.9552C43.6172 48.9552 43.4396 48.9552 43.262 48.9552C42.3356 48.9504 42.3244 48.9504 42.254 49.8416C42.2332 50.0992 42.1484 50.1872 41.8972 50.1824C41.358 50.1696 40.8188 50.168 40.2812 50.1824C40.006 50.1904 39.886 50.1072 39.8908 49.8128C39.9036 48.9152 39.9036 48.016 39.8908 47.1184C39.886 46.8112 39.9932 46.7024 40.3068 46.704C42.462 46.7152 44.6188 46.712 46.774 46.704C47.0476 46.704 47.1708 46.7824 47.1692 47.0752C47.166 47.8512 47.166 48.6 46.8252 49.3488C46.0268 51.1088 45.2988 52.9008 44.5788 54.6944C44.4076 55.12 44.1868 55.2544 43.742 55.2336C42.9292 55.1952 42.1148 55.2224 41.2108 55.2224L41.2092 55.2272Z" fill="#E57B42"/>
<path d="M39.0079 45.0058C38.5295 46.3834 38.0767 47.6954 37.6175 49.0042C36.8015 51.3322 35.9743 53.657 35.1727 55.9898C35.0559 56.329 34.9055 56.4746 34.5407 56.4506C34.1039 56.4218 33.6623 56.4138 33.2271 56.4506C32.6975 56.497 32.5839 56.3642 32.7727 55.8378C33.8415 52.8602 34.8767 49.8714 35.9247 46.8858C36.1023 46.3786 36.2831 45.873 36.4575 45.3642C36.5247 45.169 36.5823 44.9962 36.8495 45.001C37.5439 45.0122 38.2399 45.0042 39.0095 45.0042L39.0079 45.0058Z" fill="#E57B42"/>
</svg>
