<svg width="63" height="62" viewBox="0 0 63 62" fill="none" xmlns="http://www.w3.org/2000/svg">
<path d="M36.2302 61.6658C35.8286 61.5666 35.427 61.4738 35.027 61.3666C32.7886 60.7698 31.0446 59.4738 29.7614 57.5682C29.3966 57.0274 28.9918 56.8034 28.3438 56.8626C27.691 56.9218 27.027 56.8914 26.3694 56.869C26.0414 56.8578 25.9022 56.9426 25.923 57.2962C25.9518 57.7538 25.9422 58.2146 25.9262 58.6722C25.891 59.6914 25.1518 60.4546 24.1326 60.461C21.339 60.477 18.5438 60.4786 15.7502 60.461C14.7054 60.4546 13.9662 59.677 13.9566 58.6146C13.9422 57.1186 13.9534 55.621 13.9534 54.125C13.9534 45.4034 13.9534 36.6818 13.9534 27.9602C13.9534 26.3874 14.5998 25.7362 16.1582 25.7362C18.7326 25.7362 21.307 25.7346 23.8814 25.7362C25.2078 25.7362 25.9118 26.445 25.9358 27.757C25.9454 28.2674 25.7022 28.9634 26.0478 29.237C26.371 29.493 27.0382 29.3138 27.5534 29.3298C31.3294 29.4466 34.5054 28.1538 36.9918 25.277C38.147 23.941 38.8958 22.3906 39.3438 20.6866C39.6014 19.7042 39.8494 18.717 40.1406 17.7458C41.0174 14.8306 43.867 13.221 46.7438 14.0002C49.5966 14.773 51.2638 17.653 50.5118 20.589C49.8094 23.3298 49.0686 26.0594 48.3182 28.7874C48.1918 29.245 48.2622 29.3474 48.7422 29.3426C50.8574 29.317 52.9726 29.325 55.0878 29.333C59.3758 29.349 61.9118 33.4898 59.9726 37.3218C59.8382 37.5858 59.8622 37.7154 60.0686 37.9202C62.7454 40.5554 62.3934 44.4194 59.283 46.4818C58.9854 46.6786 58.9646 46.829 59.0846 47.1522C60.011 49.6418 59.163 52.189 56.9438 53.6418C56.6958 53.8034 56.5246 53.8978 56.6638 54.2818C57.8702 57.6338 56.0894 60.821 52.6142 61.5778C52.539 61.5938 52.4702 61.6386 52.3966 61.6706H36.2286L36.2302 61.6658ZM25.931 43.1042C25.931 46.2962 25.9438 49.4898 25.9182 52.6818C25.9134 53.197 26.067 53.309 26.5518 53.293C27.6878 53.2562 28.827 53.293 29.963 53.277C30.6798 53.2674 31.2318 53.5442 31.6526 54.1186C32.1118 54.7458 32.571 55.3746 33.0558 55.9826C34.0974 57.2882 35.4622 58.0418 37.1294 58.0546C41.9374 58.0914 46.747 58.0754 51.5566 58.0658C52.6638 58.0642 53.4766 57.2754 53.475 56.2674C53.4734 55.2418 52.6718 54.4898 51.5582 54.4786C50.7998 54.4706 50.0414 54.4834 49.283 54.4738C48.6126 54.4642 48.0926 54.1602 47.7486 53.589C47.0222 52.3842 47.8814 50.9202 49.3534 50.8914C50.8894 50.8626 52.427 50.8818 53.963 50.8834C54.7854 50.8834 55.3934 50.5234 55.7246 49.7778C56.2494 48.6002 55.3662 47.3202 54.0014 47.2962C52.4254 47.269 50.8478 47.2994 49.2718 47.2818C48.499 47.2738 47.9422 46.877 47.635 46.1778C47.3422 45.5138 47.4654 44.8866 47.9358 44.3394C48.3566 43.8498 48.9102 43.6898 49.5422 43.693C51.8366 43.701 54.1326 43.7042 56.427 43.6914C57.4606 43.685 58.2398 42.9234 58.2638 41.9458C58.2878 40.9826 57.5214 40.1794 56.5054 40.1106C56.307 40.0978 56.107 40.1042 55.907 40.1042C53.7118 40.1042 51.5166 40.1122 49.3214 40.0994C48.291 40.093 47.5102 39.325 47.4878 38.349C47.467 37.3874 48.2366 36.5858 49.251 36.5186C49.4494 36.5058 49.6494 36.5122 49.8494 36.5122C51.6446 36.5122 53.4414 36.5218 55.2366 36.5074C56.267 36.4978 57.0446 35.7298 57.0654 34.7522C57.0846 33.7906 56.3134 32.9922 55.2974 32.9266C55.1182 32.9154 54.939 32.9202 54.7582 32.9202C51.9054 32.9202 49.051 32.9202 46.1982 32.9202C44.5086 32.9202 43.763 31.9426 44.2014 30.309C45.1262 26.8658 46.0494 23.421 46.971 19.9762C47.0638 19.6306 47.1662 19.285 47.0974 18.917C46.9406 18.085 46.2846 17.469 45.4686 17.3986C44.6798 17.3298 43.8926 17.8258 43.6334 18.6482C43.3214 19.6354 43.0862 20.645 42.8062 21.6418C41.3934 26.6706 38.2622 30.1474 33.3806 32.0274C31.1582 32.8834 28.8302 32.9954 26.4862 32.9122C26.0462 32.8962 25.9166 33.0082 25.9198 33.4658C25.9406 36.6786 25.931 39.8914 25.931 43.1042ZM22.3374 43.0994C22.3374 38.7106 22.3278 34.3202 22.3502 29.9314C22.3534 29.4226 22.211 29.3026 21.7214 29.317C20.4862 29.3538 19.2478 29.3426 18.011 29.3202C17.6478 29.3138 17.539 29.4098 17.539 29.7842C17.5502 38.6626 17.5502 47.5426 17.539 56.421C17.539 56.8002 17.6558 56.8882 18.0142 56.8818C19.251 56.861 20.4894 56.8498 21.7246 56.8866C22.219 56.901 22.3534 56.7714 22.3502 56.2674C22.3294 51.8786 22.3374 47.4882 22.3374 43.0994Z" fill="#E57B42"/>
<path d="M0.538359 1.42318C0.946359 0.594379 1.61197 0.290379 2.52877 0.333579C3.66317 0.384779 4.80076 0.338379 5.93836 0.347979C6.89036 0.355979 7.55435 0.963979 7.57195 1.81678C7.58955 2.68718 6.90797 3.32558 5.93037 3.33838C5.27277 3.34638 4.61356 3.35918 3.95596 3.33358C3.60556 3.31918 3.50157 3.44558 3.52717 3.77678C3.55117 4.09358 3.54957 4.41518 3.52717 4.73358C3.50477 5.04398 3.60877 5.15598 3.92877 5.14318C4.50637 5.12078 5.08556 5.12878 5.66316 5.13998C6.61196 5.15758 7.25836 5.76878 7.25676 6.63438C7.25676 7.50158 6.61036 8.11278 5.66316 8.12878C5.08556 8.13838 4.50637 8.14798 3.92877 8.12398C3.60877 8.11118 3.53516 8.22798 3.52396 8.53358C3.48076 9.92718 3.46955 9.92718 4.85195 9.92718C5.27115 9.92718 5.69037 9.91278 6.10797 9.93518C6.95597 9.98158 7.58797 10.6472 7.56877 11.4504C7.54957 12.2424 6.93996 12.892 6.11436 12.9096C4.73836 12.9384 3.36237 12.9272 1.98637 12.9144C1.25837 12.908 0.859956 12.4168 0.535156 11.844V1.42318H0.538359Z" fill="#E57B42"/>
<path d="M27.5205 12.9129C25.8805 12.8665 24.4421 12.3257 23.2757 11.1433C22.6165 10.4745 22.5925 9.55935 23.1973 8.95455C23.8021 8.34815 24.6485 8.34335 25.3349 8.98975C25.9269 9.54815 26.6069 9.86655 27.4149 9.92095C27.6981 9.94015 27.9749 9.91135 28.2357 9.79775C28.5717 9.65055 28.9013 9.46335 28.9285 9.05215C28.9557 8.64095 28.6213 8.45695 28.3157 8.32415C27.3845 7.92095 26.4357 7.55775 25.5013 7.16095C24.0485 6.54335 23.2837 5.43455 23.2949 3.99615C23.3061 2.56095 24.1813 1.25535 25.5925 0.725748C27.4869 0.0153484 29.2757 0.264949 30.8981 1.50015C31.3813 1.86815 31.6917 2.35295 31.6245 2.98975C31.5621 3.56895 31.2581 4.00415 30.7077 4.21855C30.1445 4.43775 29.6085 4.35775 29.1445 3.95135C28.4933 3.38015 27.7509 3.22015 26.9189 3.43775C26.6117 3.51775 26.3349 3.65055 26.3045 4.00095C26.2725 4.35615 26.6101 4.37855 26.8325 4.47135C27.6773 4.82335 28.5445 5.12735 29.3765 5.50815C30.8677 6.19135 31.9173 7.24095 31.9381 9.00255C31.9637 11.0713 30.1573 12.7977 27.8821 12.9145C27.7621 12.9209 27.6421 12.9145 27.5237 12.9145L27.5205 12.9129Z" fill="#E57B42"/>
<path d="M15.0758 0.346815C15.9366 0.351615 16.5206 0.782015 16.831 1.59801C17.8358 4.24121 18.831 6.88761 19.8294 9.53401C20.0054 9.99961 20.1958 10.462 20.3446 10.9356C20.6054 11.7596 20.2182 12.5388 19.4374 12.8236C18.687 13.0972 17.919 12.7548 17.5606 11.9852C17.535 11.9308 17.519 11.8732 17.4966 11.8172C17.15 10.9756 16.5265 10.5548 15.6262 10.5548C15.0678 10.5548 14.5062 10.5852 13.951 10.5452C13.4838 10.5116 13.1878 10.6252 13.0918 11.1244C13.047 11.3548 12.9318 11.574 12.8422 11.7948C12.4646 12.726 11.6726 13.1276 10.8534 12.8108C10.0262 12.4908 9.68863 11.6668 10.0406 10.734C11.1958 7.67961 12.3638 4.63001 13.527 1.57721C13.6278 1.31481 13.7526 1.06681 13.9542 0.865215C14.295 0.524415 14.7078 0.353215 15.0774 0.345215L15.0758 0.346815ZM15.1766 5.68602C15.0342 6.04921 14.9558 6.24922 14.879 6.45082C14.559 7.28708 14.8844 7.63695 15.855 7.50041C15.6438 6.93721 15.4374 6.38201 15.1766 5.68602Z" fill="#E57B42"/>
<path d="M38.8381 3.75231C39.4285 2.84831 39.9805 1.99871 40.5357 1.15231C40.9053 0.589106 41.4141 0.273906 42.1021 0.397106C43.1885 0.590706 43.6861 1.73951 43.0813 2.70911C42.2813 3.99391 41.4461 5.25791 40.6093 6.51711C40.4013 6.82911 40.2973 7.13631 40.3037 7.51551C40.3197 8.75071 40.3117 9.98751 40.3037 11.2227C40.2973 12.2483 39.6749 12.9347 38.7821 12.9155C37.9101 12.8979 37.3165 12.2243 37.3117 11.2259C37.3069 9.99071 37.3005 8.75391 37.3229 7.51871C37.3309 7.11871 37.2221 6.79391 37.0029 6.46591C36.2045 5.27551 35.4253 4.07071 34.6461 2.86591C34.0733 1.98111 34.1917 1.10111 34.9341 0.603506C35.7021 0.0899059 36.5613 0.334706 37.1645 1.24671C37.6797 2.02751 38.1901 2.81311 38.7037 3.59551C38.7261 3.62911 38.7549 3.65631 38.8397 3.75231H38.8381Z" fill="#E57B42"/>
</svg>
