<svg width="51" height="51" viewBox="0 0 51 51" fill="none" xmlns="http://www.w3.org/2000/svg">
<g clip-path="url(#clip0_775_4220)">
<path d="M0.0585938 25.1713C0.0585938 18.7153 0.0585938 12.2608 0.0585938 5.80481C0.0585938 2.34731 2.33409 0.0598145 5.77659 0.0598145C18.7246 0.0598145 31.6726 0.0598145 44.6221 0.0598145C48.0436 0.0598145 50.3371 2.33981 50.3386 5.74781C50.3401 18.7153 50.3401 31.6813 50.3386 44.6488C50.3386 48.0568 48.0436 50.3368 44.6206 50.3383C31.6726 50.3383 18.7246 50.3383 5.77509 50.3383C2.33109 50.3383 0.0585938 48.0538 0.0585938 44.5933C0.0585938 38.1193 0.0585938 31.6453 0.0585938 25.1713ZM25.2226 3.63281C18.7111 3.63281 12.1996 3.63281 5.68659 3.63281C4.33809 3.63281 3.63159 4.32881 3.63159 5.66081C3.63159 13.1833 3.63609 20.7058 3.61959 28.2268C3.61959 28.6948 3.73959 28.8148 4.20609 28.8118C8.11659 28.7923 12.0271 28.8028 15.9391 28.7983C16.4836 28.7983 17.0236 28.8373 17.5501 28.9768C19.9756 29.6173 21.5821 31.7023 21.5911 34.2688C21.6046 38.2363 21.6061 42.2023 21.5821 46.1698C21.5791 46.6798 21.7246 46.7788 22.2046 46.7773C29.6701 46.7623 37.1371 46.7668 44.6026 46.7668C46.0981 46.7668 46.7641 46.1038 46.7641 44.6158C46.7641 31.6678 46.7641 18.7183 46.7641 5.77031C46.7641 4.31681 46.0861 3.63431 44.6446 3.63431C38.1706 3.63431 31.6966 3.63431 25.2211 3.63431L25.2226 3.63281Z" fill="#E57B42"/>
<path d="M25.3865 22.6472C25.5155 22.4657 25.622 22.2602 25.778 22.1057C30.497 17.3777 35.222 12.6572 39.941 7.93068C40.466 7.40418 41.0525 7.11018 41.8055 7.31268C43.0925 7.65918 43.571 9.14118 42.731 10.1717C42.59 10.3457 42.4235 10.4987 42.2645 10.6577C37.595 15.3287 32.924 19.9982 28.2545 24.6692C28.1135 24.8102 27.9785 24.9587 27.83 25.1147C28.0205 25.2752 28.214 25.2062 28.388 25.2062C30.2405 25.2122 32.093 25.2077 33.9455 25.2107C35.1425 25.2122 35.963 25.9412 35.9645 26.9942C35.9645 28.0472 35.144 28.7822 33.95 28.7837C30.5075 28.7867 27.065 28.7867 23.6225 28.7837C22.322 28.7837 21.6155 28.0712 21.6155 26.7632C21.6125 23.3207 21.6125 19.8782 21.6155 16.4357C21.6155 15.2417 22.355 14.4242 23.414 14.4332C24.467 14.4407 25.1855 15.2612 25.1885 16.4627C25.193 18.4457 25.1915 20.4287 25.1945 22.4117C25.1945 22.4462 25.214 22.4807 25.2245 22.5152C25.2785 22.5587 25.3325 22.6037 25.3865 22.6472Z" fill="#E57B42"/>
</g>
<defs>
<clipPath id="clip0_775_4220">
<rect width="50.28" height="50.28" fill="white" transform="translate(0.0585938 0.0600586)"/>
</clipPath>
</defs>
</svg>
