<svg width="63" height="55" viewBox="0 0 63 55" fill="none" xmlns="http://www.w3.org/2000/svg">
<path d="M31.1917 54.6917C24.3053 54.6917 17.4189 54.6917 10.5325 54.6917C6.77732 54.6917 4.37412 52.2773 4.37252 48.5061C4.37252 44.9125 4.36932 41.3205 4.37252 37.7269C4.37572 34.1653 6.83331 31.6997 10.3853 31.6965C16.4733 31.6933 22.5613 31.6869 28.6493 31.7093C29.1917 31.7109 29.2957 31.5605 29.2941 31.0485C29.2749 25.5189 29.2781 19.9909 29.2893 14.4613C29.2893 14.0901 29.1917 13.8597 28.8845 13.6229C27.0573 12.2197 26.8493 9.62931 28.4029 7.97331C29.9149 6.36051 32.5053 6.36691 34.0061 7.98611C35.5501 9.65171 35.3277 12.2469 33.5005 13.6373C33.2173 13.8533 33.1053 14.0613 33.1053 14.4197C33.1181 19.9893 33.1213 25.5573 33.1021 31.1269C33.1005 31.6197 33.2589 31.7061 33.7053 31.7045C39.7741 31.6917 45.8413 31.6949 51.9101 31.6965C55.5949 31.6965 58.0237 34.1237 58.0253 37.8037C58.0269 41.4165 58.0285 45.0293 58.0253 48.6421C58.0221 52.2421 55.5725 54.6885 51.9693 54.6901C45.0429 54.6933 38.1165 54.6901 31.1901 54.6901L31.1917 54.6917ZM31.1981 35.5285C24.2717 35.5285 17.3469 35.5285 10.4205 35.5285C8.9437 35.5285 8.20611 36.2613 8.20451 37.7285C8.20291 41.3605 8.20451 44.9941 8.20451 48.6261C8.20451 50.1269 8.94211 50.8581 10.4509 50.8581C24.2829 50.8581 38.1149 50.8581 51.9469 50.8581C53.4621 50.8581 54.1933 50.1317 54.1933 48.6261C54.1933 45.0133 54.1933 41.4005 54.1933 37.7877C54.1933 36.2517 53.4637 35.5269 51.9149 35.5269C45.0093 35.5269 38.1037 35.5269 31.1965 35.5269L31.1981 35.5285Z" fill="#E57B42"/>
<path d="M50.3628 10.6323C50.3404 13.5971 49.6524 16.3971 48.294 19.0307C47.7484 20.0899 46.6652 20.4835 45.6876 19.9923C44.7116 19.5027 44.35 18.3859 44.8716 17.3347C47.1244 12.8003 47.0908 8.28513 44.8076 3.77313C44.278 2.72673 44.6332 1.60673 45.6172 1.11713C46.6044 0.625934 47.678 1.02433 48.2252 2.07073C49.63 4.75233 50.3436 7.60513 50.3628 10.6307V10.6323Z" fill="#E57B42"/>
<path d="M17.705 3.21124C17.7146 3.47524 17.5802 3.80324 17.4218 4.13124C15.3258 8.46884 15.3338 12.8096 17.4394 17.1392C17.721 17.7168 17.9034 18.2864 17.6602 18.9168C17.3674 19.6752 16.8154 20.1312 16.0058 20.1872C15.1722 20.2448 14.5498 19.8576 14.1546 19.1168C13.2586 17.4336 12.6346 15.6496 12.3162 13.7728C11.6314 9.75364 12.2154 5.91844 14.073 2.28324C14.5194 1.40964 15.3834 1.00004 16.2538 1.22564C17.1386 1.45444 17.7162 2.20164 17.705 3.21124Z" fill="#E57B42"/>
<path d="M19.7109 10.7061C19.7397 8.02286 20.5413 5.68686 22.0837 3.60526C22.7237 2.74286 23.8885 2.55566 24.7413 3.16526C25.6165 3.79086 25.8261 4.94926 25.1589 5.86286C24.0885 7.32846 23.4949 8.93486 23.5285 10.7605C23.5573 12.3637 24.0469 13.8149 24.9845 15.1125C25.4101 15.7013 25.5765 16.3285 25.3141 17.0261C25.0533 17.7189 24.5429 18.1461 23.8197 18.2581C23.0677 18.3749 22.4437 18.0917 21.9909 17.4805C20.4821 15.4437 19.7509 13.1461 19.7109 10.7061Z" fill="#E57B42"/>
<path d="M42.6891 10.7846C42.6459 13.0934 41.945 15.3414 40.5082 17.3478C39.8058 18.3302 38.7098 18.5654 37.7978 17.9398C36.873 17.3062 36.7067 16.1558 37.3947 15.1478C39.3723 12.2502 39.3866 9.039 37.4362 6.1446C36.8042 5.207 36.9899 4.063 37.8731 3.4502C38.7627 2.8326 39.8762 3.0454 40.5594 3.9638C41.8778 5.7334 42.6939 8.2902 42.6891 10.7846Z" fill="#E57B42"/>
<path d="M26.4133 45.1091C22.3013 45.1091 18.1909 45.1139 14.0789 45.1059C12.5893 45.1027 11.6261 43.7523 12.1909 42.4547C12.5461 41.6371 13.2101 41.2707 14.0981 41.2739C16.7925 41.2803 19.4869 41.2755 22.1813 41.2755C27.6901 41.2755 33.1989 41.2723 38.7061 41.2771C40.2021 41.2771 41.1637 42.5955 40.6421 43.9011C40.3365 44.6675 39.6357 45.1059 38.6869 45.1059C34.5957 45.1091 30.5045 45.1059 26.4133 45.1059V45.1091Z" fill="#E57B42"/>
<path d="M46.5072 45.1109C45.888 45.1109 45.2704 45.1205 44.6512 45.1077C43.536 45.0853 42.6944 44.2501 42.6992 43.1845C42.704 42.1141 43.5392 41.2933 44.6656 41.2805C45.9024 41.2677 47.1392 41.2677 48.376 41.2805C49.5024 41.2917 50.3472 42.1077 50.3584 43.1717C50.3712 44.2613 49.5184 45.0917 48.36 45.1093C47.7424 45.1189 47.1232 45.1109 46.504 45.1093L46.5072 45.1109Z" fill="#E57B42"/>
</svg>
