<svg width="62" height="62" viewBox="0 0 62 62" fill="none" xmlns="http://www.w3.org/2000/svg">
<path d="M61.8654 27.8509C61.3806 28.8813 60.5566 29.2477 59.443 29.1757C58.5294 29.1165 57.6062 29.1885 56.6894 29.1533C56.227 29.1357 56.0862 29.2589 56.0894 29.7405C56.1102 33.8317 56.1006 37.9245 56.1006 42.0157C56.1006 42.1949 56.1022 42.3757 56.1006 42.5549C56.0798 44.0589 54.9854 44.8589 53.5598 44.3965C52.0446 43.9037 50.5326 43.3981 49.0254 42.8829C48.6894 42.7677 48.3886 42.7565 48.0478 42.8781C47.0542 43.2333 46.0542 43.5757 45.043 43.8781C44.643 43.9981 44.5294 44.1853 44.531 44.5917C44.547 48.3837 44.5422 52.1757 44.539 55.9693C44.539 57.0829 44.0494 57.7581 43.1262 57.9805C42.6958 58.0845 42.3006 57.9661 41.899 57.8333C38.5742 56.7213 35.243 55.6237 31.923 54.4941C31.4174 54.3229 30.9822 54.3373 30.4846 54.5069C27.2398 55.6077 23.9662 56.6269 20.7438 57.7885C18.947 58.4365 17.803 57.3917 17.843 55.7245C17.9326 52.0349 17.8622 48.3405 17.8814 44.6477C17.8846 44.1869 17.7566 43.9613 17.3054 43.8557C16.8622 43.7517 16.4094 43.6237 16.0062 43.4173C14.5486 42.6701 13.1374 42.7901 11.675 43.4413C10.7694 43.8445 9.79498 44.0957 8.84618 44.3997C7.41898 44.8573 6.31339 44.0589 6.31019 42.5533C6.30219 38.3021 6.29579 34.0509 6.32139 29.7997C6.32459 29.2525 6.16618 29.1357 5.65418 29.1549C4.59818 29.1949 3.53899 29.1677 2.48139 29.1661C1.64299 29.1661 1.00619 28.8157 0.681387 28.0285C0.364587 27.2589 0.580581 26.5821 1.15498 26.0077C4.95018 22.2109 8.74378 18.4109 12.547 14.6205C13.3694 13.7997 14.411 13.8157 15.2558 14.6509C16.9166 16.2925 18.5694 17.9421 20.2046 19.6093C20.5278 19.9389 20.7006 19.9549 21.0366 19.6157C23.915 16.7085 26.8142 13.8205 29.7086 10.9277C30.7246 9.91329 31.6862 9.91649 32.7118 10.9405C35.5918 13.8173 38.4766 16.6925 41.3422 19.5853C41.6846 19.9309 41.8606 19.9645 42.219 19.5965C43.8046 17.9661 45.4254 16.3677 47.0366 14.7613C48.0334 13.7677 49.011 13.7645 50.0046 14.7581C53.7182 18.4685 57.4254 22.1837 61.1438 25.8893C61.4446 26.1901 61.635 26.5517 61.8606 26.8957V27.8541L61.8654 27.8509ZM40.867 53.6941C40.9934 53.3981 40.9422 53.1357 40.9422 52.8797C40.9454 45.2173 40.9454 37.5549 40.9454 29.8909C40.9454 29.6509 40.9358 29.4109 40.9598 29.1725C41.0654 28.1677 41.7854 27.5117 42.7998 27.4909C43.211 27.4829 43.6222 27.4909 44.1342 27.4909C44.0206 27.3469 43.9822 27.2861 43.9326 27.2365C40.1246 23.4253 36.3198 19.6093 32.5006 15.8109C31.6894 15.0045 30.6494 15.0653 29.795 15.9181C26.067 19.6397 22.3422 23.3661 18.6206 27.0957C18.5214 27.1949 18.3342 27.2621 18.3934 27.4925C18.611 27.4925 18.8302 27.5085 19.0478 27.4893C20.8654 27.3357 21.4894 28.3965 21.4814 29.9309C21.4414 37.6525 21.4686 45.3757 21.4526 53.0989C21.4526 53.6365 21.5518 53.7181 22.0702 53.5405C24.8014 52.6045 27.5486 51.7181 30.2814 50.7869C30.9198 50.5693 31.5134 50.5677 32.1438 50.7869C33.459 51.2477 34.787 51.6765 36.1102 52.1165C37.6942 52.6429 39.2798 53.1677 40.8654 53.6925L40.867 53.6941ZM6.71818 25.5709C7.07978 25.5709 7.29898 25.5885 7.51498 25.5677C9.13578 25.4141 9.95179 26.2925 9.92139 27.9597C9.85419 31.8285 9.89899 35.6989 9.90059 39.5693C9.90059 40.0365 10.1278 40.1949 10.5822 40.0445C11.395 39.7741 12.211 39.5133 13.0158 39.2237C13.5838 39.0189 14.131 39.0013 14.7054 39.2061C15.6046 39.5261 16.5246 39.7949 17.4238 40.1165C17.7934 40.2493 17.875 40.1421 17.8734 39.7885C17.8654 37.0349 17.8622 34.2829 17.8782 31.5293C17.8798 31.1373 17.7262 31.0701 17.3838 31.0765C16.3262 31.0941 15.2686 31.0653 14.2126 31.0877C13.3102 31.1069 12.5886 30.8237 12.235 29.9501C11.891 29.1037 12.2014 28.4157 12.827 27.7997C14.4766 26.1757 16.0974 24.5245 17.747 22.9021C18.0254 22.6285 18.0302 22.4765 17.747 22.2013C16.5742 21.0605 15.4142 19.9069 14.2798 18.7293C13.9678 18.4061 13.811 18.4125 13.499 18.7293C11.3982 20.8605 9.27499 22.9693 7.15979 25.0861C7.03819 25.2077 6.92619 25.3421 6.71979 25.5693L6.71818 25.5709ZM55.6318 25.5709C55.5598 25.4413 55.5438 25.3837 55.5054 25.3469C53.2654 23.1021 51.019 20.8621 48.787 18.6077C48.5358 18.3549 48.4142 18.4589 48.2254 18.6493C47.059 19.8253 45.8974 21.0061 44.707 22.1565C44.387 22.4669 44.379 22.6269 44.7038 22.9437C46.3854 24.5901 48.0398 26.2653 49.7054 27.9293C50.2846 28.5069 50.467 29.1821 50.1774 29.9517C49.907 30.6717 49.2558 31.0749 48.3758 31.0813C47.2782 31.0893 46.1806 31.0973 45.0846 31.0749C44.6926 31.0669 44.5246 31.1437 44.5278 31.5885C44.547 34.3021 44.5438 37.0141 44.531 39.7277C44.5294 40.1421 44.619 40.2589 45.0414 40.1021C45.8622 39.7981 46.7102 39.5629 47.5294 39.2557C48.1998 39.0045 48.8398 39.0045 49.507 39.2493C50.2542 39.5245 51.0142 39.7613 51.7694 40.0157C52.2601 40.18 52.5054 40.0109 52.5054 39.5085C52.5054 35.4989 52.5022 31.4893 52.5086 27.4797C52.5102 26.3005 53.2382 25.5837 54.411 25.5693C54.7886 25.5645 55.1678 25.5693 55.6302 25.5693L55.6318 25.5709Z" fill="#E57B42"/>
<path d="M61.8639 6.651C61.6943 6.915 61.5583 7.2094 61.3487 7.4366C60.7055 8.1342 59.6031 8.1678 58.8639 7.5182C58.6127 7.2974 58.4095 7.0206 58.1855 6.771C57.9423 6.9694 58.0271 7.1614 58.0255 7.3246C58.0175 8.8222 58.0287 10.3182 58.0175 11.8158C58.0095 12.8766 57.4063 13.6126 56.4879 13.7214C55.3279 13.8606 54.4495 13.115 54.4335 11.9358C54.4143 10.4382 54.4287 8.9422 54.4271 7.4446C54.4271 7.2494 54.4271 7.0558 54.4271 6.6942C54.1087 7.0062 53.8943 7.2238 53.6703 7.4302C52.8831 8.1566 51.7951 8.163 51.0911 7.4494C50.3919 6.739 50.4031 5.6334 51.1519 4.8718C52.3839 3.619 53.6271 2.3774 54.8783 1.1454C55.6927 0.343804 56.7183 0.332604 57.5375 1.1342C58.7935 2.3614 60.0223 3.6174 61.2703 4.8542C61.5487 5.1294 61.6911 5.4766 61.8607 5.8126V6.651H61.8639Z" fill="#E57B42"/>
<path d="M7.72889 61.863C6.64089 61.4902 6.26969 60.695 6.29689 59.591C6.33529 58.0582 6.30649 56.5221 6.30649 54.8133C6.00569 55.1061 5.80729 55.3062 5.60249 55.5014C4.78489 56.2742 3.70649 56.2934 2.98169 55.551C2.27449 54.8246 2.28889 53.751 3.05049 52.9766C4.28249 51.7238 5.52409 50.4821 6.77529 49.2501C7.58969 48.4485 8.62489 48.447 9.43929 49.247C10.6921 50.479 11.9337 51.7205 13.1657 52.9733C13.9321 53.7525 13.9337 54.8949 13.2025 55.5957C12.4713 56.2965 11.4089 56.2646 10.6297 55.4982C10.4249 55.2966 10.2697 55.0405 10.0921 54.8101C10.0281 54.8565 9.96409 54.9029 9.90009 54.9493C9.90009 56.4981 9.85849 58.0485 9.91449 59.5941C9.95289 60.6789 9.58009 61.4405 8.56889 61.8645H7.73048L7.72889 61.863Z" fill="#E57B42"/>
<path d="M53.8415 61.8614C52.7967 61.4294 52.4511 60.6342 52.4943 59.5318C52.5535 58.0054 52.5087 56.4758 52.5087 54.9462C52.4463 54.9014 52.3823 54.855 52.3199 54.8102C52.1263 55.0534 51.9583 55.3238 51.7359 55.5366C50.9615 56.279 49.8655 56.2758 49.1631 55.5494C48.4863 54.8502 48.4863 53.7446 49.2015 53.015C50.4591 51.7334 51.7295 50.4614 53.0127 49.2038C53.7727 48.4598 54.8175 48.4566 55.5871 49.2054C56.8735 50.4598 58.1455 51.7286 59.3967 53.0166C60.1439 53.7862 60.1135 54.8902 59.3823 55.591C58.6655 56.2758 57.6143 56.2646 56.8527 55.5366C56.6415 55.335 56.4927 55.0694 56.3151 54.8326C56.2447 54.8742 56.1727 54.9142 56.1023 54.9558C56.1023 55.463 56.1023 55.9686 56.1023 56.4758C56.1023 57.5334 56.0767 58.5926 56.1087 59.6486C56.1423 60.735 55.7375 61.4998 54.6799 61.8614H53.8415Z" fill="#E57B42"/>
<path d="M7.97695 6.86081C7.97695 8.55041 7.98175 10.24 7.97535 11.9296C7.97215 12.696 7.63934 13.2832 6.92094 13.5872C6.24414 13.872 5.58814 13.7888 5.01214 13.3184C4.52574 12.9216 4.38495 12.3712 4.38655 11.768C4.38815 10.1344 4.38655 8.50241 4.38655 6.79361C4.04575 6.96001 3.87135 7.22561 3.64895 7.42881C2.86655 8.15041 1.77215 8.16321 1.06815 7.45601C0.357748 6.74241 0.362546 5.65281 1.11615 4.88321C2.35775 3.61601 3.61215 2.36161 4.87935 1.12001C5.67135 0.344008 6.69854 0.339208 7.49214 1.11361C8.76254 2.35201 10.0153 3.60801 11.2569 4.87521C12.0041 5.63681 12.0073 6.74401 11.3065 7.45121C10.6025 8.16161 9.50814 8.16001 8.73374 7.42241C8.51934 7.21921 8.36255 6.95681 8.17855 6.72161C8.10975 6.76801 8.04254 6.81281 7.97374 6.85921L7.97695 6.86081Z" fill="#E57B42"/>
<path d="M31.208 46.4437C30.3408 46.4453 29.6864 45.9589 29.4736 45.0933C29.4 44.7957 29.288 44.6181 29 44.4869C28.264 44.1557 27.6464 43.6485 27.0816 43.0805C26.376 42.3717 26.3408 41.3157 26.984 40.5973C27.6368 39.8661 28.728 39.8037 29.5136 40.4549C29.6512 40.5701 29.7776 40.6981 29.9136 40.8149C30.9072 41.6741 31.8528 41.5973 32.7312 40.6165C32.9312 40.3941 32.856 40.2741 32.6784 40.1381C32.3296 39.8725 31.9888 39.5957 31.6208 39.3573C30.4992 38.6325 29.36 37.9349 28.2432 37.2069C27.5712 36.7685 26.9792 36.2357 26.512 35.5733C25.6 34.2821 25.5824 32.9253 26.4736 31.6197C27.1168 30.6757 27.976 29.9749 28.9952 29.4709C29.24 29.3509 29.3888 29.2325 29.4592 28.9301C29.6672 28.0373 30.368 27.4901 31.2016 27.4885C32.0464 27.4869 32.736 28.0197 32.952 28.9205C33.024 29.2181 33.1664 29.3477 33.4128 29.4645C34.1232 29.8005 34.7312 30.2853 35.2896 30.8325C36.0464 31.5717 36.0832 32.6805 35.3904 33.4085C34.7168 34.1173 33.6352 34.1445 32.856 33.4693C32.7056 33.3381 32.5696 33.1909 32.416 33.0629C31.4688 32.2725 30.3952 32.4101 29.6496 33.3845C29.448 33.6485 29.6336 33.7381 29.7728 33.8597C30.3024 34.3173 30.9008 34.6789 31.4928 35.0485C32.44 35.6373 33.416 36.1845 34.3152 36.8485C34.928 37.3013 35.4976 37.7973 35.9328 38.4309C36.7872 39.6709 36.8192 40.9717 36.0048 42.2357C35.3632 43.2325 34.48 43.9685 33.4192 44.4837C33.1408 44.6197 33.0112 44.7797 32.936 45.0837C32.7216 45.9605 32.08 46.4437 31.2112 46.4453L31.208 46.4437Z" fill="#E57B42"/>
</svg>
