<svg width="63" height="55" viewBox="0 0 63 55" fill="none" xmlns="http://www.w3.org/2000/svg">
<path d="M10.9714 29.7407C11.2194 30.0047 11.4002 30.1839 11.565 30.3775C12.229 31.1567 12.1874 32.2703 11.4754 32.9823C10.7602 33.6959 9.6146 33.7727 8.877 33.0655C7.509 31.7535 6.16818 30.4111 4.85618 29.0447C4.17778 28.3391 4.18579 27.2463 4.86579 26.5407C6.16659 25.1903 7.493 23.8623 8.8418 22.5599C9.5986 21.8287 10.7602 21.8895 11.485 22.6255C12.1922 23.3423 12.2242 24.4511 11.5538 25.2303C11.3906 25.4207 11.2114 25.5999 11.0258 25.7983C11.245 25.9407 11.4482 25.8783 11.6354 25.8799C16.8642 25.8847 22.0914 25.8799 27.3202 25.8911C27.7106 25.8911 27.9554 25.7935 28.2082 25.4671C29.7282 23.5007 32.5666 23.4495 34.1074 25.3775C34.4482 25.8047 34.7682 25.9007 35.2802 25.8975C39.0722 25.8719 42.8626 25.8831 46.6546 25.8831C48.2082 25.8831 49.7634 25.8831 51.373 25.8831C51.2658 25.5855 51.037 25.4511 50.8754 25.2671C50.1778 24.4719 50.1986 23.3455 50.9282 22.6159C51.6562 21.8863 52.813 21.8351 53.573 22.5695C54.9074 23.8591 56.2194 25.1711 57.5106 26.5055C58.2322 27.2527 58.2274 28.3535 57.501 29.1023C56.2242 30.4207 54.925 31.7183 53.6082 32.9983C52.8242 33.7599 51.6578 33.7231 50.9186 32.9727C50.1794 32.2207 50.1826 31.0847 50.9282 30.2783C51.0722 30.1231 51.2178 29.9695 51.381 29.7967C51.1394 29.6559 50.9186 29.7183 50.7106 29.7183C45.6226 29.7135 40.533 29.7247 35.445 29.7023C34.8402 29.6991 34.4434 29.8015 34.0162 30.3183C32.4658 32.1887 29.6658 32.0447 28.1586 30.0783C27.9746 29.8367 27.813 29.7071 27.4866 29.7071C22.0994 29.7183 16.7106 29.7151 11.3234 29.7167C11.245 29.7167 11.1666 29.7279 10.9714 29.7423V29.7407Z" fill="#E57B42"/>
<path d="M30.2843 54.6271C24.4491 54.5327 18.2779 52.7487 12.9019 48.5663C12.2235 48.0383 11.9035 47.3695 12.1003 46.5247C12.2843 45.7343 12.8155 45.2479 13.6123 45.0831C14.2427 44.9519 14.7851 45.1679 15.2795 45.5567C18.0331 47.7263 21.1291 49.2063 24.5355 49.9855C31.8651 51.6591 38.8363 50.8223 45.3163 46.8415C45.9611 46.4463 46.5611 45.9775 47.1707 45.5279C48.1483 44.8063 49.3147 44.9199 49.9835 45.8143C50.6363 46.6879 50.4475 47.8271 49.5147 48.5599C45.7515 51.5199 41.4731 53.3087 36.7771 54.1423C34.9259 54.4703 33.0603 54.6271 30.2843 54.6271Z" fill="#E57B42"/>
<path d="M32.2642 0.972778C37.941 1.05278 44.0914 2.83678 49.461 6.98878C50.1362 7.51038 50.4914 8.16158 50.3218 9.01118C50.1682 9.77918 49.6802 10.28 48.9154 10.4864C48.2402 10.6688 47.6593 10.4528 47.1313 10.0384C44.0465 7.61118 40.5522 6.05278 36.709 5.34878C29.3618 4.00318 22.461 5.08478 16.197 9.35198C15.8514 9.58718 15.5282 9.85598 15.189 10.1024C14.2354 10.7968 13.0882 10.6624 12.4274 9.78238C11.7698 8.90878 11.9617 7.77918 12.8945 7.03998C16.1201 4.48318 19.7746 2.80958 23.757 1.84318C26.2082 1.24798 28.7026 0.966378 32.2626 0.974378L32.2642 0.972778Z" fill="#E57B42"/>
<path d="M31.2011 46.9727C26.5707 46.9023 22.3419 45.6639 18.6459 42.8159C17.9659 42.2927 17.6491 41.6191 17.8475 40.7727C18.0347 39.9823 18.5675 39.4991 19.3627 39.3343C19.9947 39.2015 20.5195 39.4463 21.0315 39.8079C26.6923 43.8031 32.6795 44.1279 38.9259 41.3535C39.8219 40.9551 40.6235 40.3935 41.4027 39.7983C42.3819 39.0527 43.5339 39.1583 44.2155 40.0447C44.8939 40.9263 44.7019 42.0847 43.7355 42.8303C40.0411 45.6879 35.8043 46.9039 31.2011 46.9711V46.9727Z" fill="#E57B42"/>
<path d="M44.6194 14.4163C44.5778 15.1315 44.2626 15.7027 43.6146 16.0579C42.965 16.4147 42.3059 16.3875 41.6851 15.9891C41.2163 15.6883 40.7843 15.3267 40.3155 15.0259C34.5875 11.3475 26.5315 11.6355 21.0739 15.7715C19.7859 16.7475 18.1842 16.1747 17.8594 14.8627C17.6434 13.9891 17.965 13.3075 18.661 12.7683C21.101 10.8755 23.8467 9.64673 26.8707 9.07233C32.3587 8.02753 37.5426 8.80993 42.3362 11.7731C42.861 12.0979 43.3507 12.4787 43.8451 12.8499C44.3571 13.2339 44.597 13.7635 44.6194 14.4163Z" fill="#E57B42"/>
<path d="M31.203 39.3052C28.7262 39.2668 26.4478 38.6124 24.451 37.1052C23.4686 36.3644 23.2558 35.2236 23.9134 34.3324C24.5758 33.4348 25.7086 33.3084 26.7182 34.0204C29.3694 35.8876 33.043 35.8876 35.6878 34.0204C36.699 33.3068 37.8318 33.4332 38.491 34.3308C39.1486 35.2268 38.9374 36.3676 37.9566 37.1068C35.9598 38.614 33.6798 39.2652 31.2014 39.3052H31.203Z" fill="#E57B42"/>
<path d="M31.7127 16.3009C33.7319 16.3361 36.0423 17.0097 38.0583 18.5681C38.6983 19.0625 38.9863 19.7201 38.8231 20.5137C38.6599 21.3057 38.1479 21.8113 37.3575 22.0017C36.7303 22.1537 36.1959 21.9281 35.6775 21.5777C33.1495 19.8657 30.4823 19.7761 27.7303 20.9665C27.3511 21.1297 27.0103 21.3873 26.6647 21.6225C25.6903 22.2865 24.5511 22.1425 23.9063 21.2593C23.2599 20.3745 23.4631 19.2625 24.4071 18.5249C26.2183 17.1089 28.6903 16.3009 31.7111 16.3025L31.7127 16.3009Z" fill="#E57B42"/>
</svg>
