<svg width="78" height="109" viewBox="0 0 78 109" fill="none" xmlns="http://www.w3.org/2000/svg">
<path d="M40.927 0.15918C42.652 2.79918 45.652 3.35418 48.202 4.68918C54.697 8.10918 58.222 13.6442 59.062 20.8742C59.197 21.9842 59.167 22.8092 60.607 23.2592C62.377 23.8292 62.947 26.4092 62.317 29.3042C61.927 31.1042 60.697 31.8842 58.927 31.8842C57.607 31.8842 56.2271 31.6442 56.272 33.7142C56.272 34.3442 55.5671 34.7342 54.8771 34.7192C54.0821 34.7042 53.4521 34.2242 53.4221 33.4592C53.3621 31.8692 52.3871 31.8692 51.2171 31.8692C43.0271 31.8992 34.822 31.9142 26.632 31.8542C25.027 31.8542 24.382 32.2442 24.517 33.9242C24.712 36.3242 24.3671 38.7392 24.9221 41.1542C26.4221 47.7092 32.2121 52.4192 38.9321 52.4342C45.6821 52.4642 51.637 47.5892 53.017 40.9442C53.092 40.5692 53.0921 40.1642 53.1821 39.7892C53.4221 38.7992 53.917 37.9592 55.1021 38.2142C56.2271 38.4542 56.482 39.3692 56.317 40.4042C55.732 44.2142 54.172 47.5592 51.427 50.3042C50.692 51.0392 50.2721 51.7742 50.1371 52.8992C49.8371 55.2692 50.692 56.3042 53.017 56.9042C56.932 57.9092 60.757 59.2892 64.597 60.5642C65.722 60.9392 66.2171 60.7592 66.0821 59.4992C65.5271 54.4442 67.162 55.1492 70.972 55.2392C76.207 55.3592 78.967 59.2742 77.542 64.3592C76.252 69.0092 74.977 73.6742 73.642 78.3242C73.312 79.4492 73.072 80.2892 74.362 81.0542C75.637 81.8192 75.787 83.2442 75.442 84.6092C74.692 87.5492 73.912 90.4892 73.072 93.4142C72.637 94.9592 71.647 96.0992 69.952 96.1292C68.677 96.1442 68.4221 96.9242 68.1821 97.8542C67.6571 99.8042 67.147 101.769 66.577 103.719C65.587 107.124 63.442 108.804 59.917 108.819C45.787 108.849 31.672 108.849 17.542 108.819C13.837 108.819 11.8271 107.214 10.8071 103.584C10.4621 102.384 10.207 101.154 9.84703 99.9692C9.27703 98.1542 9.33706 95.9042 6.50206 95.7242C5.58706 95.6642 5.07705 94.5842 4.80705 93.6542C3.95205 90.5792 3.05206 87.5042 2.28706 84.3992C1.83706 82.5992 4.23706 79.2692 6.08206 78.9542C7.01206 78.7892 7.68703 79.3292 7.83703 80.1392C8.10703 81.5492 8.91705 81.6992 10.147 81.6992C15.007 81.6992 15.157 81.8642 16.612 86.5892C17.092 88.1492 17.587 89.7092 18.052 91.2842C18.907 94.2392 17.632 96.2492 14.647 96.1292C12.157 96.0242 12.2471 96.9542 12.7871 98.8292C14.8271 106.074 13.912 105.639 21.652 105.624C34.057 105.609 46.477 105.624 58.882 105.624C62.287 105.624 62.842 105.189 63.802 101.904C63.997 101.229 64.177 100.554 64.357 99.8792C64.627 98.8292 65.347 97.6292 65.062 96.7592C64.672 95.5292 63.172 96.4142 62.167 96.1592C60.247 95.6642 59.1071 94.1792 59.6021 92.1242C60.2771 89.3342 61.1321 86.5592 62.0921 83.8592C62.8271 81.8042 64.687 81.4592 66.562 81.7142C68.872 82.0292 69.832 81.0992 70.312 78.8792C71.047 75.4742 72.112 72.1442 73.072 68.6342H4.95706C5.37706 70.2542 5.76704 71.7842 6.15704 73.3292C6.41204 74.3642 6.21704 75.2642 5.07704 75.5492C3.93704 75.8342 3.33704 75.0992 3.06704 74.0792C2.10704 70.4642 1.07205 66.8642 0.262052 63.2192C-0.307948 60.6692 0.517019 58.4192 2.57202 56.7392C4.76202 54.9392 7.35703 55.0592 9.93703 55.3892C10.882 55.5092 11.062 56.3642 11.077 57.1892C11.107 58.1192 11.122 59.0642 11.107 59.9942C11.107 60.9092 11.422 61.3742 12.367 60.9842C13.447 60.5342 14.4371 60.5192 14.8871 61.7492C15.4121 63.2042 14.2271 63.5942 13.2071 64.0592C12.7121 64.2842 12.2621 64.5692 11.7971 65.2742C14.8121 65.2742 17.9021 65.6942 20.7971 65.1092C22.3871 64.7792 23.137 62.3942 24.337 60.7292C22.777 60.5942 21.667 61.4642 20.392 61.6442C19.462 61.7792 18.622 61.7192 18.367 60.6242C18.142 59.6342 18.5771 58.9592 19.5371 58.6442C21.3071 58.0592 23.092 57.4592 24.862 56.8892C27.322 56.0942 28.627 52.6142 26.812 50.7992C22.237 46.2092 21.0071 40.6142 21.4121 34.4792C21.5471 32.4692 21.0221 31.7192 18.8771 31.8692C16.7621 32.0192 15.517 30.8192 15.607 28.5542C15.697 26.3192 14.887 23.6642 18.247 22.9142C19.027 22.7342 18.8171 21.9092 18.8771 21.3092C19.7321 12.1742 24.5921 6.17418 33.2171 3.30918C35.0171 2.70918 35.347 0.954179 36.7271 0.174179H40.942L40.927 0.15918ZM26.452 22.9742C29.562 22.9742 31.152 21.3842 31.222 18.2042C31.222 17.7392 31.222 17.2592 31.312 16.8092C31.507 15.7592 32.032 14.6792 33.022 14.4692C34.972 14.0492 34.8671 12.7592 34.8071 11.3342C34.7621 10.3292 34.7021 9.29418 34.8071 8.30418C35.0171 6.38418 34.417 5.96418 32.632 6.74418C27.382 9.06918 23.902 12.9092 22.447 18.4742C21.292 22.8842 21.397 22.9742 25.972 22.9742C26.122 22.9742 26.287 22.9742 26.437 22.9742H26.452ZM51.277 22.9742C52.282 22.9742 53.3021 22.9292 54.3071 22.9742C55.4771 23.0492 55.927 22.6442 55.927 21.3842C55.882 15.3242 50.3771 8.10918 44.5571 6.48918C43.5071 6.18918 43.132 6.36918 43.147 7.46418C43.177 9.17418 43.147 10.8842 43.147 12.5942C43.147 13.3442 43.237 13.9142 44.152 14.1542C46.297 14.7242 46.6271 16.4042 46.6271 18.3542C46.6271 22.9592 46.657 22.9592 51.277 22.9592V22.9742ZM39.052 26.0792C33.052 26.0792 27.067 26.0642 21.067 26.0942C20.107 26.0942 18.742 25.5842 18.757 27.4742C18.787 29.2292 20.0621 28.6892 20.9321 28.7042C33.0071 28.7342 45.067 28.7342 57.142 28.7042C58.072 28.7042 59.242 29.0792 59.197 27.3542C59.152 25.5992 57.9221 26.1092 57.0371 26.0942C51.0371 26.0642 45.052 26.0792 39.052 26.0792ZM30.712 53.5892C30.532 58.8692 33.5771 61.1942 39.9221 60.9842C44.3171 60.8342 47.167 57.9092 46.732 53.8592C41.422 56.1242 36.127 56.1842 30.712 53.5892ZM72.487 83.4242C70.657 85.4342 68.8421 84.6692 67.2071 84.8642C66.4571 84.9542 65.302 84.5192 65.032 85.2392C64.147 87.6242 62.917 90.1592 63.067 92.5442C63.127 93.6542 66.232 92.7542 67.942 93.0092C68.167 93.0392 68.4071 92.9942 68.647 93.0092C69.592 93.1142 70.057 92.6342 70.282 91.7642C70.942 89.2142 71.6321 86.6792 72.5021 83.4092L72.487 83.4242ZM5.63203 84.6542C6.33703 87.2492 7.01203 89.6792 7.64203 92.1242C7.85203 92.9192 8.42203 92.9942 9.05203 92.9942C10.687 92.9942 12.307 93.0092 13.942 92.9942C14.437 92.9942 15.232 93.0692 14.977 92.2142C14.317 89.9042 13.912 87.4142 12.712 85.4192C11.872 84.0242 9.69705 85.0592 8.13705 84.8642C7.40205 84.7742 6.65203 84.7442 5.63203 84.6692V84.6542ZM38.917 22.8092C39.997 22.8092 41.0921 22.8092 42.1721 22.7942C42.7121 22.7942 43.162 22.7342 43.402 22.0442C44.437 18.9242 43.222 17.1092 40.042 17.1092C39.037 17.1092 38.017 17.2292 37.027 17.0792C34.867 16.7792 34.222 17.6342 34.357 19.7642C34.567 23.1242 33.8921 22.7792 37.5371 22.8242C38.0021 22.8242 38.4671 22.8242 38.9321 22.8242L38.917 22.8092ZM69.2621 61.6742C69.2921 65.4092 69.877 66.0392 72.487 65.1842C74.137 64.6442 75.127 62.8292 74.737 61.0892C74.317 59.2592 72.517 58.0442 70.462 58.3292C68.257 58.6292 69.6221 60.3842 69.2621 61.4492C69.2321 61.5242 69.2621 61.5992 69.2621 61.6742ZM53.272 60.2642C54.847 62.3342 55.522 64.7942 57.427 65.1692C60.157 65.7242 63.0971 65.3042 65.9321 65.3042C65.9321 65.0492 65.9621 64.7942 65.9771 64.5542C62.0471 62.8142 57.9071 61.7492 53.272 60.2642ZM8.01703 62.2292C8.00703 59.6092 7.56702 58.3092 6.69702 58.3292C4.88202 58.3592 3.29204 59.9492 3.24704 61.7792C3.18704 63.7442 4.82203 65.4692 6.75703 65.3192C9.27703 65.1092 7.38704 63.0692 8.03204 62.2442L8.01703 62.2292ZM31.222 62.3192C30.712 65.2892 30.7421 65.3342 33.4571 65.3342C37.0271 65.3342 40.597 65.3342 44.167 65.3342C47.212 65.3342 47.332 65.1542 46.702 61.9592C41.617 64.8992 36.442 64.7942 31.222 62.3192ZM38.0021 9.50418C38.0021 10.5992 38.0021 11.6942 38.0021 12.7742C38.0021 13.4492 38.302 13.7792 39.007 13.7192C39.547 13.6742 39.892 13.4492 39.892 12.8792C39.892 10.7792 39.892 8.66418 39.892 6.56418C39.892 5.88918 39.517 5.58918 38.857 5.58918C38.107 5.58918 37.987 6.09918 37.987 6.68418C37.987 7.61418 37.987 8.55918 37.987 9.48918L38.0021 9.50418ZM27.442 62.1692C26.512 63.0542 25.777 63.9392 25.312 65.0792C28.117 65.4992 28.132 65.4692 27.442 62.1692ZM52.822 65.1242C51.877 64.0142 51.457 62.9192 50.347 62.2292C50.027 64.3592 50.852 65.3242 52.822 65.1242Z" fill="#E57B42"/>
<path d="M42.696 97.3734C39.576 97.3734 39.561 97.3734 39.246 100.688C39.156 101.693 38.931 102.638 37.731 102.668C36.366 102.698 36.201 101.678 36.081 100.598C35.961 99.5784 36.711 97.9584 35.541 97.6434C33.876 97.1934 32.001 97.4484 30.216 97.4784C29.721 97.4784 29.721 97.9884 29.826 98.3934C29.931 98.8434 30.066 99.2934 30.186 99.7434C30.501 100.913 30.861 102.233 29.271 102.623C27.636 103.028 27.351 101.588 27.126 100.463C26.736 98.4834 26.241 96.8484 23.631 97.2684C22.806 97.4034 22.176 96.7134 22.176 95.7834C22.176 94.8534 22.716 94.2084 23.616 94.2834C25.611 94.4484 25.266 93.3384 24.936 92.1384C24.456 90.3684 24.366 88.2834 21.546 88.8384C20.661 89.0034 19.791 88.5234 19.746 87.4434C19.686 86.2734 20.421 85.7034 21.516 85.7934C22.986 85.8984 23.151 85.3584 22.806 84.0234C22.266 81.9534 22.056 79.8084 18.981 80.3484C18.036 80.5134 17.346 79.8384 17.406 78.7734C17.451 77.8434 18.036 77.2884 18.936 77.3634C21.141 77.5434 20.946 76.3884 20.391 74.9484C20.226 74.5134 20.151 74.0484 20.046 73.5834C19.821 72.6084 20.121 71.8434 21.081 71.5134C22.101 71.1684 22.686 71.8134 23.061 72.6684C23.151 72.8784 23.166 73.1184 23.241 73.3434C24.081 75.9934 25.876 77.3184 28.626 77.3184C30.501 77.3184 32.376 77.2434 34.236 77.3334C35.646 77.4084 36.261 76.9434 36.126 75.4734C36.051 74.6184 36.111 73.7634 36.171 72.9084C36.246 72.0084 36.771 71.4384 37.671 71.4384C38.571 71.4384 39.066 72.0234 39.201 72.9084C39.216 73.0584 39.231 73.2234 39.246 73.3734C39.546 75.9934 41.036 77.3034 43.716 77.3034C45.666 77.3034 47.616 77.2434 49.566 77.3184C50.841 77.3634 51.621 77.0634 51.816 75.6384C51.951 74.5734 52.341 73.5234 52.716 72.5034C53.016 71.7084 53.661 71.2134 54.561 71.4834C55.416 71.7384 55.791 72.4134 55.656 73.2984C55.581 73.8384 55.476 74.3934 55.281 74.8884C54.591 76.6134 54.846 77.5584 56.991 77.3484C58.056 77.2434 58.836 77.7684 58.791 78.9684C58.746 80.0784 57.891 80.5434 57.021 80.3784C53.841 79.7634 53.301 81.7734 52.821 84.1584C52.551 85.4784 52.851 85.8534 54.126 85.7934C55.251 85.7334 56.481 85.7634 56.436 87.3534C56.406 88.9284 55.131 88.8384 54.036 88.8984C52.011 89.0034 50.031 91.5534 50.391 93.5784C50.556 94.5684 51.351 94.1784 51.876 94.2084C52.971 94.2534 54.006 94.4184 54.021 95.7834C54.021 97.1634 52.926 97.4784 51.876 97.3284C49.776 97.0434 48.876 97.9734 48.681 99.9534C48.621 100.553 48.381 101.168 48.141 101.738C47.841 102.473 47.226 102.848 46.446 102.668C45.576 102.473 45.156 101.858 45.186 100.958C45.186 100.808 45.231 100.643 45.246 100.493C45.546 98.4234 44.696 97.3884 42.696 97.3884V97.3734ZM44.916 80.4384C43.521 80.4384 42.111 80.4384 40.716 80.4384C40.086 80.4384 39.531 80.4384 39.276 81.2784C38.376 84.2484 39.411 85.7784 42.411 85.7784C43.431 85.7784 44.436 85.7784 45.456 85.7784C49.311 85.7784 49.251 85.7784 50.121 82.1184C50.421 80.8884 50.226 80.3634 48.891 80.4234C47.571 80.4834 46.236 80.4234 44.916 80.4384ZM31.041 85.7784C36.546 85.7784 36.501 85.7784 36.111 81.7884C36.006 80.7984 35.661 80.4234 34.686 80.4234C31.971 80.4534 29.256 80.4234 26.541 80.4234C25.941 80.4234 25.341 80.3334 25.356 81.3684C25.386 84.4884 26.571 85.7634 29.646 85.7634C30.111 85.7634 30.576 85.7634 31.041 85.7634V85.7784ZM43.341 94.2384C44.406 93.9984 46.071 94.9134 46.851 93.7284C47.661 92.4984 48.381 90.7734 47.826 89.3484C47.451 88.3734 45.861 88.9884 44.811 88.9284C43.416 88.8534 42.021 88.9284 40.641 88.9284C39.996 88.9284 39.501 89.0334 39.276 89.8434C38.436 92.9334 39.351 94.2384 42.471 94.2534C42.696 94.2534 42.936 94.2534 43.356 94.2534L43.341 94.2384ZM32.091 94.2384C36.306 94.2384 36.246 94.2384 36.126 90.5934C36.081 89.2134 35.526 88.8234 34.281 88.8984C33.276 88.9584 32.256 88.8984 31.236 88.8984C27.021 88.8984 27.081 88.8834 28.356 92.9034C29.121 95.3034 31.011 93.6984 32.091 94.2234V94.2384Z" fill="#E57B42"/>
<path d="M38.9321 48.4011C36.7721 48.3261 34.9121 47.4861 33.4721 45.7911C32.8871 45.1161 32.7821 44.3811 33.4121 43.6911C34.0271 43.0011 34.8971 42.9411 35.5121 43.5261C37.9721 45.8511 40.2971 45.6711 42.6971 43.4511C43.2371 42.9411 44.0471 43.0161 44.6171 43.5711C45.2621 44.2161 45.2771 44.9811 44.7071 45.6711C43.2371 47.4561 41.3171 48.3411 38.9621 48.3861L38.9321 48.4011Z" fill="#E57B42"/>
<path d="M44.81 34.7357C45.62 34.7957 46.115 35.2007 46.1 36.0557C46.085 36.9257 45.545 37.3307 44.75 37.3307C43.91 37.3307 43.415 36.7907 43.43 35.9957C43.445 35.2007 43.94 34.7207 44.795 34.7357H44.81Z" fill="#E57B42"/>
<path d="M32.0457 34.7354C32.8707 34.7954 33.3657 35.2454 33.3507 36.0554C33.3507 36.8654 32.8107 37.3304 32.0007 37.3304C31.1757 37.3304 30.6806 36.8203 30.6956 36.0103C30.7256 35.2303 31.1907 34.7354 32.0457 34.7354Z" fill="#E57B42"/>
</svg>
