<svg width="80" height="79" viewBox="0 0 80 79" fill="none" xmlns="http://www.w3.org/2000/svg">
<g opacity="0.64">
<path d="M0.728652 41.7566C0.728652 40.115 0.728652 38.495 0.728652 36.8534C0.771852 36.6158 0.836647 36.3566 0.858247 36.119C0.987847 34.2398 1.26857 32.3606 1.72217 30.5246C4.72457 18.407 11.831 9.50782 22.9982 3.97822C30.3854 0.306221 38.2695 -0.752177 46.3911 0.630223C56.5647 2.35822 64.859 7.39102 71.123 15.5774C77.6678 24.1526 80.195 33.9158 78.8126 44.6078C77.7974 52.4918 74.5574 59.4254 69.2438 65.3438C63.1958 72.1046 55.7007 76.3166 46.7799 77.9366C45.3327 78.1958 43.8638 78.347 42.395 78.5414H37.4919C36.5415 78.4334 35.5695 78.3254 34.6191 78.1742C26.8215 77.051 19.9094 73.9406 14.0126 68.6918C7.20857 62.6438 2.95349 55.127 1.31189 46.1414C1.05269 44.6942 0.901431 43.2254 0.707031 41.7566H0.728652ZM39.9111 57.1358C46.5639 57.1358 53.2383 57.1358 59.8911 57.1358C63.2175 57.1358 65.2262 55.1054 65.2262 51.8006C65.2262 43.4846 65.2262 35.147 65.2262 26.831C65.2262 23.5262 63.1959 21.4958 59.8695 21.4958C46.5855 21.4958 33.3231 21.4958 20.0391 21.4958C16.6695 21.4958 14.6607 23.5046 14.6607 26.8742C14.6607 35.147 14.7255 43.4198 14.6391 51.6926C14.5959 54.695 16.7342 57.2222 20.1254 57.179C26.7134 57.071 33.3015 57.1574 39.8895 57.1574L39.9111 57.1358Z" fill="#373C3F"/>
<path d="M18.7441 27.5859C21.1633 29.5083 23.3882 31.2795 25.6346 33.0507C29.9114 36.4419 34.1882 39.8547 38.465 43.2459C39.545 44.1099 40.3874 44.1099 41.489 43.2459C47.6666 38.3427 53.8442 33.4395 60.0218 28.5363C60.3458 28.2771 60.6914 28.0179 61.037 27.7371C61.253 28.0611 61.1666 28.3419 61.1666 28.6227C61.1666 36.2907 61.1666 43.9371 61.1666 51.6051C61.1666 52.9659 60.9938 53.1387 59.6114 53.1387C46.4786 53.1387 33.3673 53.1387 20.2346 53.1387C18.917 53.1387 18.7227 52.9659 18.7227 51.6483C18.7227 43.9587 18.7227 36.2691 18.7227 28.6011C18.7227 28.3419 18.7227 28.1043 18.7227 27.6507L18.7441 27.5859Z" fill="#373C3F"/>
<path d="M57.1893 25.5801C55.7637 26.7249 54.4677 27.7401 53.1933 28.7553C48.9813 32.1033 44.7477 35.4513 40.5357 38.8209C40.1469 39.1233 39.8877 39.2313 39.4341 38.8641C34.0341 34.5441 28.6124 30.2457 23.1908 25.9473C23.0828 25.8609 22.9102 25.7961 22.9102 25.5801H57.1893Z" fill="#373C3F"/>
</g>
</svg>
