<svg width="104" height="97" viewBox="0 0 104 97" fill="none" xmlns="http://www.w3.org/2000/svg">
<path d="M22.4103 90.5692C22.5753 79.8592 27.0753 71.4892 36.0003 65.5942C37.5303 64.5892 37.5903 64.0792 36.3903 62.7442C32.7903 58.7242 31.2903 53.8642 31.4253 48.5092C31.4703 46.9492 31.4253 46.1542 29.3553 46.5892C26.0853 47.2792 22.7703 46.9042 19.8303 45.1642C18.4053 44.3242 17.3853 44.6542 16.2303 45.4492C10.7403 49.2592 7.68031 54.4192 7.42531 61.1542C7.38031 62.2492 7.42533 63.3442 7.39533 64.4392C7.38033 65.4892 7.0053 66.3442 5.8203 66.3742C4.6503 66.4042 4.23034 65.6392 4.17034 64.5442C3.67534 55.7242 6.61531 48.4342 13.9353 43.2292C15.2253 42.2992 15.3003 41.8792 14.2953 40.6642C11.8653 37.7242 10.9353 34.2142 11.0253 30.4042C11.0553 29.4442 11.3253 28.3042 9.66034 28.3042C8.41534 28.3042 6.58533 28.8592 6.22533 27.1792C5.79033 25.1842 5.28034 22.7092 7.03534 21.1942C8.83534 19.6492 9.34533 17.6842 10.1103 15.6892C11.8503 11.1592 15.3153 8.36917 19.7853 6.79418C21.2553 6.26918 21.8853 5.65417 21.8253 4.00417C21.7203 1.19917 22.1103 0.929163 24.8853 0.899163C25.5903 0.899163 26.2953 0.899163 27.0003 0.899163C31.1853 0.899163 31.2303 0.899159 31.8003 5.11416C31.9203 5.99916 32.3554 6.25417 33.0754 6.50917C37.9504 8.20417 41.6854 11.1892 43.5604 16.1542C43.7554 16.6792 43.9053 17.2492 44.6703 17.0542C45.4053 16.8742 45.9153 16.5142 45.8703 15.6142C45.8103 14.4442 45.9003 13.2742 45.8553 12.1042C45.7803 10.4842 46.6053 9.83917 48.1203 9.83917C50.6253 9.83917 53.1153 9.86917 55.6203 9.83917C57.3753 9.80917 58.2453 10.5142 58.1253 12.3592C58.0503 13.3642 58.1554 14.3842 58.0954 15.4042C58.0354 16.3342 58.3804 16.9042 59.3104 17.0692C60.2404 17.2492 60.2553 16.4842 60.4803 15.9292C62.3253 11.3692 65.6853 8.36917 70.2453 6.79418C71.8053 6.25418 72.3604 5.50416 72.1504 3.94416C71.8503 1.73916 72.8253 0.719163 75.0903 0.899163C75.9453 0.974163 76.8003 0.899163 77.6703 0.899163C81.7503 0.899163 81.7804 0.899166 82.1854 4.93417C82.2754 5.89417 82.7103 6.23916 83.5503 6.52416C89.4153 8.56416 93.4803 12.2842 94.7403 18.5992C94.8303 19.0792 94.9953 19.5292 95.4453 19.7692C97.8303 21.0442 97.9954 23.2042 98.0254 25.5892C98.0554 27.6442 97.2453 28.5442 95.2653 28.3192C93.3903 28.0942 92.8353 28.8442 92.9253 30.6742C93.1053 34.5592 91.9353 38.0842 89.4004 41.0542C88.6504 41.9392 88.7404 42.3292 89.7004 42.9892C97.0804 48.0892 100.23 55.2592 99.8553 64.1092C99.8103 65.3092 99.6603 66.4342 98.1753 66.3742C96.6753 66.3142 96.5704 65.1142 96.6304 63.9742C96.8854 58.9792 95.9253 54.3292 92.8353 50.2792C91.9953 49.1692 91.0203 48.1342 90.0153 47.1742C87.8853 45.1192 85.8004 43.9192 82.6654 45.8242C80.0854 47.3842 76.9203 47.1292 73.9653 46.5292C72.8553 46.3042 72.5854 46.5742 72.6153 47.5942C72.8253 53.6992 71.1153 59.1442 66.9004 63.7042C65.7304 64.9642 67.3504 65.0842 67.8454 65.3992C73.7404 69.2542 77.8503 74.4742 80.1603 81.1342C81.6603 85.4392 81.6603 89.8642 81.6003 94.3192C81.5853 95.3092 81.1653 96.0892 80.1603 96.1192C78.8703 96.1642 78.4803 95.2042 78.4653 94.0642C78.4203 91.0192 78.5253 87.9892 77.8653 84.9742C76.1703 77.2942 71.8503 71.5641 65.1753 67.5142C64.0803 66.8541 63.2103 66.7492 61.9803 67.4242C55.3803 71.0242 48.6754 71.0092 42.0754 67.4242C40.8454 66.7642 39.9904 66.8242 38.8804 67.4992C30.4504 72.6592 25.9503 80.1442 25.6053 90.0442C25.5603 91.3642 25.6053 92.6992 25.5753 94.0342C25.5603 95.1592 25.2153 96.1642 23.8953 96.1042C22.7403 96.0592 22.4253 95.1442 22.4403 94.0792C22.4553 92.9092 22.4403 91.7392 22.4403 90.5692H22.4103ZM51.9603 42.0892C59.1453 42.0892 66.3153 42.1192 73.5003 42.0442C74.3103 42.0442 75.7204 42.8242 75.9004 41.1292C76.0504 39.7042 76.0953 38.0842 74.2953 37.7092C72.5403 37.3492 72.1653 36.3292 71.9403 34.7692C70.9503 27.8842 67.0204 23.3242 60.6304 20.7592C58.1104 19.7542 58.1103 19.7242 58.1103 22.3492C58.1103 26.0242 58.1103 29.6842 58.1103 33.3592C58.1103 34.4692 57.6153 35.2342 56.4903 35.2042C55.5003 35.1892 55.0053 34.4392 54.9303 33.4792C54.8853 32.9392 54.9004 32.3842 54.9004 31.8442C54.9004 26.2192 54.8553 20.6092 54.9303 14.9842C54.9453 13.4692 54.5253 12.7942 52.9653 13.0042C52.4253 13.0792 51.8553 13.0942 51.3303 13.0042C49.3953 12.6892 49.0053 13.6192 49.0203 15.3742C49.1103 21.1492 49.0503 26.9242 49.0503 32.6992C49.0503 33.9292 48.9604 35.2492 47.3254 35.1742C45.8404 35.1142 45.8703 33.8392 45.8703 32.6992C45.8703 28.9492 45.8254 25.1992 45.9004 21.4642C45.9304 20.0692 45.4953 19.9192 44.2653 20.3692C37.6053 22.8442 33.1953 27.2392 32.1003 34.4692C31.8453 36.1342 31.5153 37.3642 29.5203 37.7692C27.9003 38.0992 27.9753 39.7192 28.0653 41.0692C28.1553 42.6742 29.4453 42.0292 30.1953 42.0292C37.4553 42.0742 44.7153 42.0591 51.9753 42.0591L51.9603 42.0892ZM52.0054 45.2992C47.7904 45.2992 43.5753 45.2992 39.3753 45.2992C36.1453 45.2992 34.5754 46.8942 34.6654 50.0842C34.9654 60.7942 44.9103 68.6242 55.4553 66.4792C64.5753 64.6192 70.8903 55.4392 69.3603 46.3792C69.1203 44.9992 68.2354 45.3142 67.4704 45.3142C62.3254 45.2842 57.1803 45.3142 52.0203 45.3142L52.0054 45.2992ZM21.0153 25.1392C24.1353 25.1392 27.2553 25.0942 30.3603 25.1692C31.6803 25.1992 32.6553 24.9442 33.5553 23.8042C35.0553 21.8992 36.9603 20.3242 39.1953 19.3492C40.9053 18.5992 40.8753 17.6542 40.1553 16.2592C38.2953 12.6292 35.3253 10.3492 31.4553 9.38917C29.3853 8.87917 28.2153 8.02417 28.5753 5.75917C28.8003 4.39417 28.1253 4.06416 26.8503 4.06416C25.5153 4.06416 24.7053 4.31917 24.9453 5.84917C25.2603 7.96417 24.2553 8.81916 22.2453 9.35916C16.5303 10.8742 12.9303 14.4742 12.1503 20.5342C12.0303 21.4642 11.7303 22.1992 10.7253 22.4242C9.64533 22.6792 9.04531 23.3392 9.30031 24.4492C9.60031 25.7242 10.7103 25.0942 11.4303 25.1092C14.6253 25.1842 17.8203 25.1392 21.0153 25.1392ZM82.9953 25.1392C86.3553 25.1392 89.7154 25.1542 93.0754 25.1242C93.6754 25.1242 94.5903 25.5292 94.6803 24.3742C94.7553 23.5192 94.5303 22.7692 93.6003 22.5592C92.2953 22.2742 91.9354 21.4342 91.7554 20.2192C90.9154 14.4892 87.4953 10.9642 82.0353 9.46417C79.9503 8.89417 78.5854 8.15917 78.9903 5.71417C79.2303 4.27417 78.3453 4.09416 77.1603 4.07916C75.9453 4.07916 75.1503 4.27417 75.3753 5.71417C75.7203 7.94917 74.6554 8.86417 72.5404 9.38917C68.9254 10.2742 66.0453 12.3292 64.1403 15.6442C63.1503 17.3542 62.8203 18.7342 65.2053 19.5742C66.0603 19.8742 66.9903 20.4292 67.5003 21.1342C70.5453 25.4242 74.9253 25.5292 79.5003 25.1542C80.6703 25.0642 81.8403 25.1542 83.0103 25.1542L82.9953 25.1392ZM30.3003 28.3342C25.6353 28.3342 21.0453 28.3342 16.4703 28.3342C16.0803 28.3342 15.6903 28.3492 15.3003 28.3342C14.3703 28.3042 14.2053 28.8592 14.1153 29.6692C13.5603 35.1742 17.1453 40.8892 22.3353 42.8242C24.1503 43.4992 25.0653 43.4092 24.8253 41.1142C24.5253 38.3242 25.4403 36.0442 28.1703 34.7842C28.6203 34.5742 28.8453 34.1992 28.9653 33.7042C29.3703 31.9792 29.8203 30.2542 30.3003 28.3192V28.3342ZM73.3053 28.3342C74.6553 30.5092 74.0103 33.4042 75.6903 34.5292C78.4953 36.4342 79.4103 38.7142 79.1553 41.8042C79.0503 43.0492 79.3953 43.4242 80.7453 43.0792C86.3253 41.6542 90.7653 35.0242 89.8203 29.4442C89.6853 28.6792 89.4004 28.3342 88.6504 28.3342C83.6853 28.3342 78.7203 28.3342 73.3053 28.3342Z" fill="#E57B42"/>
</svg>
