<svg width="81" height="81" viewBox="0 0 81 81" fill="none" xmlns="http://www.w3.org/2000/svg">
<path opacity="0.64" d="M40.9056 0.291016C18.8088 0.291016 0.902344 18.1974 0.902344 40.2942C0.902344 62.391 18.8088 80.2974 40.9056 80.2974C63.0024 80.2974 80.9087 62.391 80.9087 40.2942C80.9087 18.1974 63.0024 0.291016 40.9056 0.291016ZM52.764 21.8046C52.764 22.4094 52.2671 22.9278 51.6623 22.9278H46.1111C43.6487 22.9278 41.6615 24.9366 41.6615 27.399V35.2182H50.9927C52.0727 35.2182 52.8936 36.1686 52.764 37.227L52.0944 42.5838C51.9864 43.4694 51.2304 44.1606 50.3232 44.1606H41.6615V66.5382C40.7543 66.6246 39.8256 66.6678 38.8752 66.6678C36.78 66.6678 34.7279 66.4518 32.7623 66.063V44.1606H26.0879C25.4831 44.1606 24.9863 43.6638 24.9863 43.0374V36.3414C24.9863 35.7366 25.4831 35.2182 26.0879 35.2182H32.7623V25.1742C32.7623 19.0182 37.7303 14.007 43.8863 14.007H51.6623C52.2671 14.007 52.764 14.5038 52.764 15.1302V21.8262V21.8046Z" fill="#373C3F"/>
</svg>
