<svg viewBox="0 0 22 22" fill="none" xmlns="http://www.w3.org/2000/svg">
<path fill-rule="evenodd" clip-rule="evenodd" d="M1.36328 10.6993C1.36328 10.5253 1.43242 10.3583 1.55549 10.2353C1.67856 10.1122 1.84548 10.0431 2.01953 10.0431H17.4978L13.3674 5.91394C13.2442 5.79071 13.175 5.62358 13.175 5.44932C13.175 5.27505 13.2442 5.10792 13.3674 4.98469C13.4906 4.86146 13.6578 4.79224 13.832 4.79224C14.0063 4.79224 14.1734 4.86146 14.2967 4.98469L19.5467 10.2347C19.6078 10.2957 19.6563 10.3681 19.6893 10.4478C19.7224 10.5275 19.7395 10.613 19.7395 10.6993C19.7395 10.7856 19.7224 10.8711 19.6893 10.9508C19.6563 11.0306 19.6078 11.103 19.5467 11.1639L14.2967 16.4139C14.1734 16.5372 14.0063 16.6064 13.832 16.6064C13.6578 16.6064 13.4906 16.5372 13.3674 16.4139C13.2442 16.2907 13.175 16.1236 13.175 15.9493C13.175 15.775 13.2442 15.6079 13.3674 15.4847L17.4978 11.3556H2.01953C1.84548 11.3556 1.67856 11.2864 1.55549 11.1634C1.43242 11.0403 1.36328 10.8734 1.36328 10.6993Z" fill="none" />
</svg>
