<svg width="49" height="50" viewBox="0 0 49 50" fill="none" xmlns="http://www.w3.org/2000/svg">
<g clip-path="url(#clip0_520_3089)">
<path d="M38.7809 35.2777C39.4542 35.712 40.0515 36.0812 40.6379 36.4721C41.3764 36.9498 41.4524 37.3732 40.8986 38.0464C37.3691 42.3894 32.8513 44.9952 27.2911 45.7552C16.2465 47.2536 5.92958 39.8053 3.86619 28.8501C3.5404 27.0912 3.47524 25.3214 3.55126 23.5408C3.55126 23.4213 3.57298 23.3019 3.5947 23.1933C3.72501 22.7156 4.10511 22.4333 4.51779 22.4876C4.97391 22.5527 5.25626 22.911 5.22368 23.443C5.15852 24.5396 5.14767 25.6363 5.25626 26.7437C5.7884 32.1508 8.16673 36.5915 12.3695 40.0116C16.1596 43.0951 20.5579 44.5283 25.434 44.2786C30.788 44.0072 35.284 41.8248 38.9003 37.851C39.1392 37.5904 39.1067 37.471 38.8134 37.2972C38.0858 36.8629 37.3799 36.3961 36.6632 35.94C36.3482 35.7446 36.1093 35.4949 36.1419 35.0823C36.1745 34.6697 36.446 34.4743 36.7935 34.3223C39.5845 33.1171 42.3755 31.901 45.1774 30.7067C45.9701 30.3701 46.4914 30.7067 46.4914 31.5645C46.4914 34.5394 46.4914 37.5252 46.4914 40.5002C46.4914 41.4339 45.8507 41.7705 45.0688 41.2928C44.6887 41.0648 44.3086 40.8368 43.9611 40.5762C43.6787 40.3699 43.5267 40.4133 43.3095 40.6739C41.8651 42.4437 40.1818 43.9529 38.303 45.2449C28.4205 51.9983 14.9759 50.576 6.76579 41.8682C1.94399 36.7544 -0.27144 30.6307 0.0217785 23.6059C0.0434983 23.1716 0.0760781 22.7264 0.130378 22.2921C0.195537 21.771 0.553915 21.4452 0.999172 21.4778C1.45529 21.5104 1.74851 21.8361 1.74851 22.3899C1.74851 23.367 1.62905 24.3442 1.63991 25.3322C1.72679 35.1474 8.42736 44.0615 17.8538 46.8627C27.0413 49.5879 36.5872 46.5696 42.5058 39.0562C43.1031 38.2961 43.3638 38.2527 44.1674 38.7521C44.2543 38.8064 44.3411 38.8499 44.428 38.915C44.7647 39.1756 44.8298 39.0236 44.8298 38.6761C44.8298 37.0692 44.8298 35.4623 44.8298 33.8554C44.8298 33.584 44.8298 33.3125 44.8298 33.0411C44.8298 32.8348 44.7864 32.7045 44.5366 32.8131C42.647 33.6274 40.7574 34.4417 38.77 35.2994L38.7809 35.2777Z" fill="#E57B42"/>
<path d="M4.50751 9.50183V16.0381C6.54917 15.1586 8.5474 14.29 10.6216 13.3888C10.0895 13.0414 9.61167 12.7482 9.1447 12.4442C8.52568 12.0425 8.4388 11.543 8.9275 11.011C12.3592 7.24346 16.6055 4.96339 21.6553 4.25765C30.7994 2.97646 39.357 7.86234 43.2449 15.6798C44.6784 18.557 45.406 21.608 45.4277 24.8218C45.4277 25.5058 45.015 25.9075 44.4395 25.799C44.0051 25.723 43.7987 25.3972 43.7879 24.8001C43.7662 22.2703 43.2992 19.8056 42.2675 17.5038C39.433 11.1847 34.633 7.23261 27.8021 6.01656C21.4164 4.88738 15.8236 6.71145 11.0669 11.1087C10.7411 11.4019 10.7194 11.5539 11.1212 11.7819C11.6642 12.0859 12.1855 12.4334 12.7068 12.7917C13.3692 13.2477 13.3258 13.986 12.5873 14.3009C9.74199 15.5495 6.88583 16.7872 4.02967 18.0141C3.3455 18.3073 2.82422 17.949 2.82422 17.2215C2.82422 14.1706 2.82422 11.1305 2.82422 8.07949C2.82422 7.25432 3.46495 6.91774 4.18171 7.35204C4.74643 7.69948 5.30028 8.04692 5.84328 8.42694C6.10392 8.60066 6.26682 8.63323 6.50573 8.36179C10.2416 4.35536 14.781 1.80385 20.1675 0.891814C28.1387 -0.443661 35.1759 1.61927 41.1489 7.05889C45.3734 10.9133 47.8603 15.7449 48.74 21.3908C48.9463 22.6829 49.0224 23.9858 48.9898 25.2887C48.9681 25.9293 48.6531 26.3093 48.1644 26.2984C47.6649 26.2876 47.3608 25.8967 47.3608 25.267C47.3934 20.1965 45.9599 15.582 42.9408 11.5105C39.0638 6.29886 33.9053 3.13932 27.4328 2.35758C19.3965 1.3804 12.6525 4.02964 7.22249 10.023C6.64691 10.6636 6.39714 10.707 5.65866 10.2401C5.28942 10.0121 4.93105 9.78413 4.49665 9.51269L4.50751 9.50183Z" fill="#E57B42"/>
<path d="M24.4987 17.634C24.7485 17.2649 24.944 16.9392 25.172 16.6243C26.9965 14.1488 29.8852 13.5516 32.4916 15.202C35.1849 16.9066 36.3034 19.4798 36.2057 22.5851C36.1188 25.636 34.7613 28.1767 32.8065 30.4351C30.6128 32.9866 27.8761 34.8432 24.9331 36.4393C24.6616 36.5804 24.3901 36.6239 24.1077 36.4827C20.4805 34.5175 17.1574 32.194 14.8334 28.6979C13.3455 26.4504 12.4768 23.9966 12.8026 21.2713C13.1501 18.3615 14.5076 16.0706 17.2551 14.8219C19.6226 13.7471 21.9466 14.3442 23.5756 16.3746C23.8905 16.7654 24.162 17.1997 24.477 17.6558L24.4987 17.634ZM34.5224 22.2919C34.5333 21.8142 34.5116 21.3473 34.4138 20.8804C34.0337 19.0672 33.1758 17.558 31.5359 16.5917C29.6463 15.4843 27.8327 15.8643 26.5295 17.6232C25.9865 18.3506 25.6064 19.1541 25.3458 20.0227C25.2046 20.4679 24.9222 20.7284 24.4661 20.7284C24.0426 20.7284 23.7494 20.4679 23.619 20.0444C23.5865 19.9358 23.543 19.8164 23.5104 19.7078C23.1086 18.6221 22.5873 17.6015 21.6968 16.8197C20.9149 16.1357 20.0027 15.8643 18.971 16.0488C16.3755 16.494 14.6487 19.0238 14.475 21.6296C14.3012 24.1486 15.1917 26.3418 16.647 28.3287C18.428 30.7608 20.7629 32.5631 23.3367 34.0832C24.7811 34.9301 24.2163 34.9301 25.6498 34.0832C28.2237 32.5631 30.5585 30.7608 32.3396 28.3287C33.6536 26.5264 34.5116 24.5611 34.5333 22.2919H34.5224Z" fill="#E57B42"/>
</g>
<defs>
<clipPath id="clip0_520_3089">
<rect width="49" height="49" fill="white" transform="translate(0 0.500977)"/>
</clipPath>
</defs>
</svg>
