<svg width="80" height="79" viewBox="0 0 80 79" fill="none" xmlns="http://www.w3.org/2000/svg">
<g opacity="0.64">
<path d="M79.4275 36.8414V41.5934C79.3843 41.831 79.3195 42.0902 79.2979 42.3278C79.1899 43.883 78.9524 45.4166 78.6716 46.9502C75.6044 62.7398 62.8172 75.2246 46.9628 77.9246C45.5372 78.1622 44.09 78.335 42.6644 78.5294H37.7611C37.5883 78.3782 37.3723 78.4214 37.1779 78.3998C33.6787 78.1622 30.2659 77.4062 26.9611 76.2182C7.56435 69.2198 -3.106 48.527 2.4452 28.6766C9.3356 4.05259 37.6315 -7.50341 59.8579 5.3918C70.3339 11.4614 76.6196 20.6846 78.8444 32.6078C79.1036 34.0118 79.2331 35.4374 79.4275 36.8414ZM40.2236 19.5182C39.2732 19.5182 38.3228 19.5614 37.394 19.6694C32.4044 20.2742 27.9763 22.0886 24.3475 25.6094C18.1915 31.571 17.9323 40.211 23.7211 46.5182C26.8963 49.9742 30.914 51.875 35.4716 52.7822C36.0764 52.8902 36.6812 52.955 37.2644 53.1278C38.5388 53.495 38.906 54.0566 38.7764 55.3958C38.7116 55.979 38.582 56.5622 38.5172 57.1454C38.4524 57.7502 38.0204 58.4846 38.6468 58.9382C39.2948 59.3918 39.9859 58.9382 40.5907 58.6358C42.4699 57.707 44.2195 56.5838 45.9691 55.3958C49.7491 52.8254 53.3995 50.1038 56.5099 46.691C63.4435 39.131 61.5427 29.843 54.6091 24.3566C50.3971 21.0302 45.5372 19.6046 40.2236 19.5398V19.5182Z" fill="#373C3F"/>
<path d="M40.0485 35.784C40.0485 37.5768 40.0485 39.132 40.0485 40.6872C40.0485 41.508 39.6598 42.0048 39.0118 42.0264C38.3422 42.0264 37.9102 41.5296 37.9102 40.6656C37.9102 38.052 37.9102 35.46 37.9102 32.8464C37.9102 32.2416 38.0829 31.788 38.6661 31.572C39.2925 31.3344 39.6813 31.7232 40.0053 32.1768C41.1501 33.732 42.295 35.3088 43.4614 36.864C43.6126 37.0584 43.6989 37.3176 44.0661 37.4688C44.0661 35.9784 44.0661 34.5312 44.0661 33.1056C44.0661 32.8032 44.0446 32.5008 44.1742 32.1984C44.3902 31.7232 44.7574 31.4856 45.2542 31.5288C45.7726 31.572 46.0966 31.8744 46.183 32.3928C46.2262 32.5872 46.2261 32.8032 46.2261 32.9976C46.2261 35.5032 46.2261 38.0088 46.2261 40.4928C46.2261 41.0976 46.1614 41.6376 45.4918 41.8536C44.8006 42.0912 44.3902 41.6808 44.023 41.184C42.8998 39.6288 41.7766 38.0952 40.6318 36.54C40.4806 36.3456 40.3293 36.1512 40.0269 35.784H40.0485Z" fill="#373C3F"/>
<path d="M47.6719 36.6724C47.6719 35.3764 47.6719 34.0588 47.6719 32.7628C47.6719 31.834 48.039 31.4884 48.9894 31.4668C50.199 31.4668 51.387 31.4668 52.5966 31.4668C53.439 31.4668 53.8711 31.8556 53.8711 32.5468C53.8711 33.238 53.4174 33.6268 52.5966 33.6268C51.8622 33.6268 51.1063 33.6484 50.3719 33.6268C49.9615 33.6268 49.8751 33.778 49.8535 34.1668C49.8103 35.614 49.7886 35.614 51.2142 35.614C51.7542 35.614 52.2943 35.614 52.8127 35.614C53.4823 35.6356 53.8495 36.0028 53.8711 36.6724C53.8711 37.2772 53.4822 37.7308 52.8342 37.7524C52.0134 37.774 51.1927 37.774 50.3935 37.7524C49.9831 37.7524 49.875 37.8604 49.875 38.2708C49.8318 39.7396 49.8102 39.7396 51.279 39.7396C51.7974 39.7396 52.2943 39.7396 52.8127 39.7396C53.5039 39.7828 53.9359 40.2364 53.8927 40.8628C53.8495 41.5324 53.4607 41.878 52.7911 41.878C51.4951 41.878 50.1775 41.878 48.8815 41.878C48.0823 41.878 47.715 41.4892 47.715 40.69C47.715 39.3292 47.715 37.99 47.715 36.6292L47.6719 36.6724Z" fill="#373C3F"/>
<path d="M26.9178 36.6645C26.9178 35.3901 26.9178 34.1157 26.9178 32.8413C26.9178 31.9557 27.3282 31.4805 28.0194 31.4805C28.7106 31.4805 29.0994 31.9557 29.0994 32.8629C29.0994 34.9365 29.0994 36.9885 29.0994 39.0621C29.0994 39.6021 29.2722 39.7749 29.7906 39.7533C30.5034 39.7101 31.2162 39.7317 31.929 39.7533C32.685 39.7749 33.1386 40.2069 33.1386 40.8549C33.1386 41.5029 32.685 41.9349 31.929 41.9349C30.6762 41.9349 29.4234 41.9349 28.1706 41.9349C27.3066 41.9349 26.9179 41.5461 26.8963 40.6605C26.8747 39.3429 26.8963 38.0037 26.8963 36.6861L26.9178 36.6645Z" fill="#373C3F"/>
<path d="M36.3573 36.7509C36.3573 38.0469 36.3573 39.3429 36.3573 40.6605C36.3573 41.5245 35.9252 42.0429 35.2556 42.0213C34.6076 42.0213 34.2188 41.5245 34.2188 40.6821C34.2188 38.0469 34.2188 35.4333 34.2188 32.7981C34.2188 31.9557 34.6077 31.5021 35.2773 31.4805C35.9253 31.4805 36.3571 31.9557 36.3787 32.7765C36.3787 34.0941 36.3787 35.4333 36.3787 36.7509H36.3573Z" fill="#373C3F"/>
</g>
</svg>
