<svg width="63" height="70" viewBox="0 0 63 70" fill="none" xmlns="http://www.w3.org/2000/svg">
<g clip-path="url(#clip0_775_3179)">
<path d="M18.2956 36.0289C16.6335 35.8885 15.4518 35.2991 14.4139 34.2641C13.4742 33.3273 12.1522 33.5237 11.2721 34.5447C9.70471 36.3657 2.59706 36.5482 0.917456 34.8184C0.289795 34.1693 0.0127829 33.4009 0.0127829 32.4992C0.0197959 26.8293 -0.00124304 21.1594 0.0268089 15.4895C0.0373283 13.5739 1.23304 12.2722 3.20719 12.1494C5.06914 12.0336 6.94511 12.0967 8.81406 12.1494C9.82043 12.1774 10.7286 12.6195 11.2686 13.4756C12.0856 14.7703 12.822 14.2826 13.5268 13.4651C15.9848 10.6196 17.717 7.40223 18.2921 3.65153C18.5165 2.18494 18.9548 0.890268 20.5292 0.469236C22.2755 0.00259221 23.6956 0.725363 24.7791 2.05161C26.1466 3.7182 26.4587 5.70757 26.2483 7.7987C26.1642 8.64778 26.1396 9.53195 25.8766 10.3319C25.3577 11.8967 26.0309 12.1353 27.3949 12.0616C29.0991 11.9669 30.8138 12.016 32.5249 12.0441C35.6422 12.0932 37.2166 13.8159 36.9221 16.9456C36.8484 17.7456 37.1149 17.8789 37.7776 17.7947C39.6326 17.5561 41.484 17.3175 43.3424 17.1035C44.2191 17.0018 44.3698 16.2474 44.6749 15.665C45.7935 13.5423 47.3153 11.9143 49.7488 11.3564C52.568 10.7143 54.9629 11.5213 56.7863 13.7142C58.6588 15.9667 58.9568 18.535 57.7436 21.2156C56.646 23.64 56.4777 23.8821 58.764 25.1873C62.2143 27.1591 63.0875 29.8467 62.9788 33.7167C62.6912 44.032 62.8841 54.3613 62.8771 64.6871C62.8771 68.0483 61.1133 69.8377 57.7541 69.8483C50.6429 69.8658 43.5318 69.8974 36.4241 69.8272C34.2396 69.8062 32.1041 69.2343 30.1896 68.1396C24.2075 64.7292 18.25 61.2662 12.289 57.8208C8.72991 55.7612 8.17588 53.5929 10.2552 49.9931C12.8991 45.4144 15.5325 40.8286 18.2886 36.0394L18.2956 36.0289ZM31.473 36.0254C28.4855 36.0008 25.4944 36.0149 22.5069 35.9271C21.476 35.8956 20.8974 36.2043 20.3714 37.1376C17.7346 41.8391 15.01 46.4915 12.31 51.1545C10.9355 53.5298 11.1494 54.4174 13.5268 55.7963C19.4843 59.2453 25.4453 62.6837 31.4099 66.1186C33.2402 67.1712 34.2992 66.88 35.3687 65.031C40.9791 55.3297 46.5789 45.6179 52.1998 35.9201C52.6697 35.1096 52.7293 34.4114 52.3506 33.5237C50.7341 29.7485 49.2228 25.9276 47.6098 22.1524C47.1645 21.1068 47.0733 19.349 46.0249 19.2402C44.6959 19.0999 44.6083 20.984 43.8614 21.8998C43.1461 22.7769 43.1075 23.3734 44.2191 24.1593C46.0985 25.4891 46.1336 28.331 44.5136 29.9555C42.8831 31.5905 40.3619 31.5624 38.791 29.8959C37.2131 28.2187 37.2797 25.3101 39.2118 24.1102C40.9335 23.0401 41.2385 21.2401 42.5219 19.5876C40.6354 19.8437 39.1136 20.0507 37.5883 20.2542C37.1956 20.3069 36.866 20.349 36.9466 20.9103C37.3113 23.4892 34.9584 25.6715 35.8982 28.3977C36.1331 29.0783 35.3371 29.8292 34.748 30.4011C34.4745 30.6642 34.0152 30.7941 34.173 31.4045C34.8147 33.8641 33.4191 35.1658 31.4064 36.0815L31.4695 36.0254H31.473ZM24.2251 33.5132C26.3605 33.5132 28.496 33.5062 30.6314 33.5132C31.3783 33.5132 31.9148 33.2431 31.9148 32.4361C31.9148 31.7203 31.4028 31.4221 30.7401 31.3905C30.0458 31.3589 29.3516 31.38 28.6573 31.3519C27.8964 31.3168 27.2406 31.0853 27.3003 30.1555C27.3564 29.2959 27.949 29.0012 28.7414 29.0012C29.8635 29.0012 30.9856 29.0082 32.1041 28.9871C33.0509 28.9696 33.633 28.4468 33.6821 27.524C33.7312 26.5697 33.121 26.0469 32.2128 25.9522C31.473 25.875 30.7191 25.9136 29.9722 25.8785C29.2253 25.8434 28.5416 25.6575 28.5731 24.7207C28.6047 23.8505 29.1973 23.5453 29.9827 23.5383C30.8909 23.5277 31.7991 23.5313 32.7073 23.5313C33.8293 23.5313 34.6148 23.0401 34.6428 21.8682C34.6744 20.6051 33.8434 20.0928 32.6687 20.0577C31.9744 20.0367 31.2801 20.0542 30.5858 20.0367C29.8284 20.0191 29.327 19.6086 29.3445 18.8648C29.3621 18.135 29.8425 17.728 30.6209 17.728C31.473 17.728 32.3426 17.7877 33.1806 17.6649C34.5026 17.4719 35.0741 16.1842 34.3834 15.1632C33.924 14.4826 33.2367 14.4756 32.5319 14.4756C29.1692 14.4756 25.803 14.4791 22.4403 14.4685C21.6513 14.4685 20.8939 14.3282 20.8168 13.3282C20.7572 12.5353 21.2831 12.0476 21.9739 12.0827C23.2818 12.1529 23.4396 11.4336 23.4747 10.4056C23.5062 9.50388 23.6921 8.60918 23.8148 7.71098C24.0042 6.30403 23.9691 4.93217 23.0995 3.72522C22.6822 3.14981 22.1422 2.59194 21.3953 2.70421C20.5783 2.82701 20.6695 3.68311 20.5748 4.26203C19.9156 8.34253 18.0046 11.802 15.3957 14.9212C14.733 15.7106 13.9616 16.3667 12.8956 16.5316C12.2189 16.6369 11.9068 16.9211 11.9103 17.6824C11.9454 21.8506 11.9454 26.0189 11.9103 30.1871C11.9033 31.0361 12.2013 31.3098 13.0254 31.2817C13.9511 31.2502 14.9504 31.4256 15.543 32.1203C16.7492 33.5308 18.2676 33.5694 19.8946 33.5132C21.3357 33.4641 22.7769 33.5027 24.2181 33.4992L24.2251 33.5132ZM50.401 21.8085C50.3133 21.8577 50.2257 21.9068 50.1345 21.9559C51.7229 25.8399 53.2833 29.738 54.9279 33.6009C55.3276 34.5447 55.2925 35.3026 54.7841 36.1552C53.4972 38.3095 52.2699 40.4953 50.9971 42.6601C50.6219 43.3022 50.5307 43.6004 51.488 43.7724C53.8128 44.1864 54.998 45.5828 55.0506 47.9967C55.1242 51.4702 55.1312 54.9472 55.0506 58.4173C54.984 61.2101 53.3675 62.7048 50.5658 62.7223C47.2557 62.7469 43.942 62.7223 40.6319 62.7328C40.0604 62.7328 39.4678 62.617 39.0996 63.2977C38.3667 64.6415 37.5813 65.9572 36.8169 67.2835C36.9922 67.3958 37.0728 67.494 37.157 67.494C44.1524 67.5045 51.1514 67.5326 58.1468 67.501C59.7458 67.494 60.5978 66.5151 60.6014 64.7643C60.6224 53.3824 60.6084 41.997 60.6224 30.6151C60.6224 29.9765 60.4576 29.5134 59.9316 29.1134C56.7442 26.696 53.5779 24.2505 50.4045 21.812L50.401 21.8085ZM9.62406 24.0575C9.62406 21.3875 9.60653 18.7175 9.63107 16.0474C9.64159 14.9773 9.2103 14.4756 8.10575 14.5036C6.66459 14.5422 5.22342 14.5352 3.78226 14.5036C2.76888 14.4826 2.29551 14.9633 2.29551 15.9422C2.292 21.3384 2.28849 26.7311 2.29551 32.1273C2.29551 33.1308 2.84953 33.5378 3.83485 33.5132C5.16732 33.4781 6.50679 33.4501 7.83575 33.5202C9.15069 33.5904 9.66614 33.0676 9.63458 31.7484C9.57497 29.1871 9.61705 26.6223 9.61705 24.0575H9.62406ZM40.7652 60.4171C44.3523 60.4171 47.5993 60.4452 50.8498 60.3996C51.8702 60.3856 52.6136 59.8031 52.6241 58.719C52.6627 55.035 52.6486 51.3509 52.6241 47.6634C52.6171 46.8038 52.0596 46.2038 51.2636 46.1161C50.3835 46.0214 49.3315 45.5582 48.6793 46.6915C46.102 51.165 43.5213 55.6349 40.7617 60.4136L40.7652 60.4171ZM51.8386 13.5388C49.7663 13.5388 48.2866 14.3317 47.4731 15.6159C47.2416 15.9808 46.9541 16.286 47.4836 16.679C49.6611 18.2929 51.8141 19.9384 53.9811 21.5699C54.2722 21.791 54.486 22.0506 54.8893 21.591C55.9763 20.3454 56.4181 17.8824 55.6818 16.3246C54.8332 14.5282 53.4025 13.5739 51.8386 13.5423V13.5388ZM42.6867 26.0118C42.848 27.0609 43.0233 28.0328 41.9363 28.2784C40.7827 28.5415 40.6284 27.489 40.2322 26.7065C39.9166 27.6363 40.2462 28.2854 41.0106 28.5942C41.6593 28.8608 42.4027 28.8398 42.9041 28.2047C43.4055 27.5732 43.5774 26.8995 42.6867 26.0118Z" fill="#E57B42"/>
<path d="M31.4092 36.0792C32.3595 36.0476 33.2817 35.6126 34.26 35.9073C34.9017 36.1003 35.035 35.4827 35.34 35.1564C35.7713 34.6968 36.2903 34.6266 36.7917 34.9179C37.3036 35.2126 37.5456 35.774 37.2546 36.2967C36.8443 37.0335 37.0477 37.5353 37.5281 38.1317C38.0365 38.7633 38.2364 39.5527 38.2399 40.3772C38.2434 41.1211 37.9208 41.6614 37.1739 41.728C36.5112 41.7877 36.0624 41.3491 35.9607 40.6965C35.8204 39.8053 35.5083 39.0334 34.6808 38.5984C33.706 38.0861 32.7207 37.9914 31.9107 38.9001C31.0341 39.8895 31.6407 40.6544 32.3735 41.3667C32.9486 41.9245 33.5587 42.4473 34.0917 43.0438C35.1542 44.2297 35.6731 45.5489 35.0069 47.1488C34.2951 48.861 33.0047 49.7347 31.1883 49.8224C30.3573 49.8645 29.5298 49.6505 28.9477 50.5873C28.6461 51.0714 27.9799 51.0083 27.4995 50.675C27.0752 50.3767 26.8157 49.8645 27.1243 49.4224C27.6889 48.6084 27.247 48.0997 26.8193 47.4611C26.5072 46.9909 26.3669 46.391 26.2091 45.8331C25.9742 45.0226 26.118 44.2753 27.0331 44.0578C27.9554 43.8367 28.4112 44.4086 28.5234 45.2823C28.6777 46.5173 29.4421 47.1559 30.5922 47.4015C31.4618 47.5874 32.1842 47.3243 32.6646 46.5664C33.1555 45.7945 32.8399 45.1349 32.2718 44.563C31.7073 43.9946 31.1042 43.4648 30.5502 42.8929C28.4708 40.7421 28.6812 38.3107 31.0866 36.4757C31.2409 36.3599 31.3461 36.1774 31.4724 36.0266L31.4092 36.0827V36.0792Z" fill="#E57B42"/>
<path d="M32.4651 59.9088C32.5072 60.9298 31.6201 61.4 30.5295 60.8246C28.9727 60.0035 27.4684 59.0878 25.9466 58.2107C23.4499 56.7721 20.9568 55.3336 18.4637 53.8916C17.6923 53.446 16.8788 52.9127 17.531 51.8987C18.1025 51.0075 18.9161 51.397 19.6454 51.8215C23.5692 54.0916 27.4964 56.3581 31.4202 58.6247C31.9321 58.9194 32.4721 59.1931 32.4651 59.9123V59.9088Z" fill="#E57B42"/>
</g>
<defs>
<clipPath id="clip0_775_3179">
<rect width="62.98" height="69.5404" fill="white" transform="translate(0.0117188 0.229736)"/>
</clipPath>
</defs>
</svg>
