<svg width="104" height="107" viewBox="0 0 104 107" fill="none" xmlns="http://www.w3.org/2000/svg">
<path d="M52.9204 0.136719C53.1454 0.541719 53.4304 0.916723 53.5804 1.33672C55.1704 6.07672 58.1854 8.65674 63.4354 8.68674C65.7154 8.68674 66.3004 10.5317 64.4704 11.9867C60.6604 15.0167 59.2654 18.4667 60.7504 23.2967C61.4554 25.5917 59.8204 26.7167 57.8104 25.3367C53.8054 22.5917 50.1304 22.6667 46.1254 25.3367C44.0854 26.7017 42.5104 25.6217 43.2004 23.2967C44.6254 18.5117 43.3354 15.0167 39.4804 12.0017C37.6504 10.5617 38.2354 8.74673 40.5304 8.70173C45.6004 8.59673 48.7504 6.30173 50.2354 1.53173C50.3854 1.03673 50.7604 0.601733 51.0454 0.151733C51.6754 0.151733 52.2904 0.151733 52.9204 0.151733V0.136719ZM43.7704 11.5667C47.3104 14.0867 48.2104 17.2367 46.8604 21.3167C50.3704 18.5717 53.6554 18.8117 56.9704 21.4217C57.0904 19.1867 55.9804 17.3117 56.7304 15.6917C57.4504 14.1617 58.9204 12.9767 60.0904 11.6117C58.2904 10.8467 56.1454 11.4017 54.8404 10.2017C53.6104 9.06173 52.9504 7.30674 51.7354 5.31174C50.6254 9.70674 48.0454 11.6117 43.7704 11.5667Z" fill="#E57B42"/>
<path d="M43.8585 28.2474C45.7785 28.3824 47.7435 29.2374 49.7085 29.9274C51.2835 30.4824 52.6635 30.4524 54.2235 29.9274C62.4135 27.2124 62.5185 27.2274 67.5435 34.1724C68.6235 35.6574 69.9285 36.5574 71.6235 37.0374C72.9735 37.4124 74.3235 37.8174 75.6285 38.3274C78.1185 39.3024 79.4685 41.1624 79.5885 43.8624C79.6185 44.4024 79.6635 44.9574 79.5885 45.4974C79.0935 49.1274 80.2935 52.0824 82.6035 54.9174C85.5885 58.5774 85.6185 60.7074 82.6485 64.3074C80.2635 67.2024 79.1385 70.2324 79.5735 73.9374C79.9035 76.7874 79.0035 79.2024 76.3185 80.6424C75.1635 81.2574 75.8085 81.8724 76.1835 82.5174C78.0435 85.7574 79.9185 89.0124 81.8085 92.2374C82.4685 93.3624 83.0535 94.4874 82.2585 95.7324C81.4185 97.0374 80.1135 97.0374 78.7035 96.8574C76.2285 96.5574 73.7385 96.4074 71.2635 96.0924C69.9885 95.9274 69.2835 96.2874 68.7885 97.5324C67.8285 99.9174 66.6585 102.212 65.6235 104.567C65.0835 105.767 64.4235 106.802 62.9535 106.847C61.5885 106.892 60.8985 105.917 60.2985 104.867C57.8385 100.607 55.3485 96.3774 52.9485 92.1024C52.2135 90.7824 51.7935 90.7074 51.0285 92.0874C48.6285 96.3624 46.1085 100.592 43.6635 104.852C43.0485 105.917 42.3885 106.877 41.0235 106.862C39.5385 106.847 38.8785 105.797 38.3535 104.597C37.2585 102.182 36.1185 99.7974 35.0835 97.3524C34.6485 96.3324 34.0485 95.9574 32.9535 96.0924C30.3285 96.4074 27.6735 96.5874 25.0485 96.9024C23.7135 97.0524 22.4985 96.9474 21.7185 95.7474C20.9835 94.6224 21.4185 93.5424 22.0485 92.4624C23.9535 89.2374 25.7685 85.9674 27.6885 82.7574C28.2735 81.7824 28.5885 81.1524 27.2535 80.4024C25.1835 79.2474 24.1185 77.2524 24.4035 74.8974C24.9435 70.5024 23.6235 66.9024 20.7585 63.5574C18.5085 60.9174 18.5385 58.3524 20.7885 55.6824C23.5635 52.3974 24.7935 48.8874 24.4185 44.5674C24.1335 41.1474 25.7085 38.8974 28.9935 38.1474C33.2835 37.1424 36.4485 34.9974 38.6085 31.1424C39.6585 29.2824 41.4585 28.3074 43.8735 28.2324L43.8585 28.2474ZM59.6535 87.6624C61.6035 87.7824 62.4435 86.7924 63.0435 85.7124C65.2935 81.6474 68.6235 79.1424 73.2135 78.2874C75.4935 77.8674 76.6035 76.4424 76.2735 74.1174C75.6135 69.4824 77.0235 65.5374 80.1885 62.1624C81.7185 60.5124 81.7185 58.8324 80.1885 57.1824C76.9935 53.8074 75.6435 49.8474 76.2885 45.2124C76.6035 42.8724 75.4935 41.4624 73.2135 41.0424C68.7285 40.2024 65.3685 37.8324 63.1785 33.8274C62.0085 31.6824 60.2985 31.0824 58.0935 32.1774C54.0585 34.1574 50.0085 34.1574 45.9735 32.2074C43.6335 31.0824 41.8935 31.6824 40.6785 33.9024C38.5185 37.8474 35.2635 40.1874 30.8385 41.0124C28.4835 41.4474 27.3135 42.9024 27.6435 45.3474C28.2735 49.8924 26.9535 53.7924 23.8035 57.0924C22.1685 58.8024 22.1985 60.5724 23.8035 62.2674C26.9385 65.5824 28.2735 69.4674 27.6435 74.0124C27.3135 76.4424 28.4535 77.8374 30.8235 78.3474C34.8735 79.2174 38.0685 81.1374 40.3035 84.8424C42.3885 88.2924 42.8685 88.3674 46.5885 86.8824C50.1885 85.4424 53.6385 85.2474 57.1935 86.8824C58.1085 87.3024 59.0985 87.5124 59.6235 87.6924L59.6535 87.6624ZM62.8335 102.602C64.1085 99.8274 65.2185 97.6074 66.1485 95.2974C66.9585 93.2724 68.1585 92.3724 70.4385 92.7174C72.9585 93.1074 75.5085 93.1674 78.5835 93.4224C76.6785 90.1074 74.9835 87.1674 73.2885 84.2274C72.0585 82.0824 70.5885 81.8874 68.7885 83.6424C68.3985 84.0174 68.0685 84.4674 67.7835 84.9174C64.9785 89.2974 61.9485 93.1824 55.2585 89.4624C58.0335 94.2624 60.3285 98.2074 62.8635 102.587L62.8335 102.602ZM48.4485 89.8974C47.5035 90.1824 47.1435 90.3024 46.7835 90.4074C42.5235 91.6974 40.6785 91.0674 37.9785 87.4224C37.0485 86.1774 36.2835 84.7674 35.1585 83.7324C34.1835 82.8324 32.5935 81.3774 31.4535 83.0274C29.2635 86.1924 27.5235 89.6574 25.4685 93.2274C28.5735 93.4674 31.2435 92.8674 33.9135 92.6724C35.7585 92.5374 36.8385 93.1524 37.5585 94.8174C38.6085 97.2774 39.7935 99.6924 41.1285 102.542C43.6335 98.2224 45.9285 94.2774 48.4785 89.8974H48.4485Z" fill="#E57B42"/>
<path d="M73.0608 30.1348C73.2258 28.9798 73.1958 27.6749 73.6008 26.5199C74.4408 24.0449 73.4508 22.3949 71.6358 20.8949C70.7358 20.1599 69.9408 19.2748 69.2058 18.3749C67.9908 16.9199 68.3658 15.3448 70.1658 15.3448C75.5358 15.3448 78.6858 12.7648 80.4708 7.84484C81.0408 6.25484 82.9008 6.25484 83.4708 7.84484C85.2558 12.7498 88.4358 15.2849 93.7758 15.3299C95.5908 15.3449 96.1758 17.2049 94.7058 18.3149C90.5508 21.4499 89.3208 25.2148 90.7758 30.2099C91.3308 32.0998 89.7408 33.1949 88.1358 32.0699C83.9358 29.1299 80.0208 29.1299 75.8208 32.0699C74.1708 33.2099 73.0308 32.2648 73.0758 30.1348H73.0608ZM73.8258 18.1499C77.2308 20.7149 78.2658 23.8049 76.8108 27.8999C80.3208 25.2599 83.6058 25.3649 87.2208 27.8249C85.2558 23.5499 87.2058 20.7149 90.1608 18.0299C85.6758 18.4049 83.3958 15.9748 81.8658 12.2098C80.6208 16.2598 78.1308 18.1649 73.8258 18.1649V18.1499Z" fill="#E57B42"/>
<path d="M13.1232 29.3405C15.4032 25.0205 13.0632 21.5705 9.31325 18.4055C7.81325 17.1455 8.38322 15.3155 10.3182 15.3005C15.4632 15.2405 18.6132 12.9905 20.3082 8.1305C20.9982 6.1505 22.9332 6.18051 23.6532 8.19051C25.3632 12.9005 28.3932 15.2105 33.4482 15.2855C35.5932 15.3155 35.9982 16.8455 34.6482 18.5105C34.5432 18.6305 34.4532 18.7655 34.3332 18.8555C30.4632 21.5855 29.1432 25.1255 30.7932 29.6855C31.0932 30.5105 31.1532 31.5905 30.1632 32.2205C29.3082 32.7605 28.4532 32.4755 27.7632 31.9655C23.8632 29.1005 20.0982 29.1905 16.1082 31.9355C14.1732 33.2705 13.0032 32.3555 13.1382 29.3405H13.1232ZM27.0882 27.8105C25.3932 23.6405 27.0283 20.7005 30.1783 18.0755C25.7383 18.2405 23.3383 16.0805 21.9283 12.1805C20.6233 16.2605 17.9833 18.1805 13.6783 18.1655C17.2783 20.6555 18.1332 23.8205 16.8432 27.8705C20.3232 25.2905 23.5482 25.2605 27.0732 27.8105H27.0882Z" fill="#E57B42"/>
<path d="M51.8517 83.1183C38.8467 83.0733 28.4067 72.5283 28.4967 59.5083C28.5717 46.5483 39.1767 36.1383 52.1967 36.2133C65.0067 36.2883 75.4767 46.8633 75.4467 59.7333C75.4317 72.7233 64.8867 83.1633 51.8517 83.1183ZM34.8417 69.7983C36.1767 63.8733 38.1267 60.9333 42.2067 59.3283C43.8267 58.6983 44.0517 58.2933 43.2867 56.6133C41.6817 53.0733 42.1617 49.5183 44.7867 46.5783C47.3667 43.6833 50.6667 42.5583 54.5217 43.6683C60.2667 45.3183 63.0417 51.4233 60.5967 56.9283C60.3267 57.5283 59.0967 58.3383 60.6867 58.8933C65.8317 60.7083 68.3967 64.5333 68.9967 69.9783C74.3817 62.5833 72.5967 50.9883 65.3067 44.5833C57.4617 37.6983 45.8517 37.8633 38.2317 44.9583C31.2117 51.5133 29.6217 63.0783 34.8417 69.7983ZM62.8017 76.2633C63.3117 76.1133 63.5517 76.0833 63.7467 75.9933C66.4917 74.6433 65.5167 72.1083 65.5017 70.0083C65.5017 66.0033 62.7567 62.7333 59.0217 61.9083C55.0317 61.0233 54.5067 61.5483 55.3617 65.4933C55.5267 66.2583 55.5417 67.0833 55.8417 67.7733C57.4317 71.3883 55.8417 74.2083 53.7567 76.9683C52.5117 78.6033 51.5367 78.5883 50.2767 76.9683C48.0717 74.1633 46.6017 71.2683 48.1467 67.5633C48.6717 66.2883 48.7017 64.8183 49.0467 63.4683C49.4067 62.0883 48.8517 61.6833 47.5317 61.6233C43.4217 61.4133 39.9117 63.9033 38.7417 67.8783C38.2617 69.4983 38.5617 71.1333 38.3967 72.7533C38.1867 74.7933 39.3267 75.6333 41.1717 76.2483C41.1717 74.9733 41.1717 73.8783 41.1717 72.7833C41.1717 71.7783 41.6667 71.0733 42.6567 71.0283C43.7667 70.9683 44.3817 71.6883 44.4417 72.7683C44.5017 73.9383 44.6067 75.1233 44.4417 76.2633C44.1867 78.0783 45.0867 78.7383 46.6617 79.1133C50.2167 79.9683 53.7417 79.9533 57.3117 79.1133C59.0817 78.7083 59.8017 77.8533 59.5467 76.0383C59.4117 75.0483 59.5167 74.0133 59.5317 73.0083C59.5317 71.8383 60.0567 70.9683 61.3017 71.0133C62.4117 71.0583 62.8617 71.8683 62.8467 72.9633C62.8317 73.9683 62.8467 74.9883 62.8467 76.2333L62.8017 76.2633ZM58.1367 52.7583C58.1067 49.3083 55.2417 46.5033 51.8517 46.5783C48.4017 46.6533 45.7317 49.5033 45.8067 52.9983C45.8817 56.3283 48.6567 59.0733 51.9717 59.0583C55.3767 59.0583 58.1667 56.1933 58.1367 52.7433V52.7583ZM52.2717 66.9183C52.0767 66.9183 51.8817 66.9183 51.6867 66.9183C51.4317 68.3133 51.1317 69.7083 50.9367 71.1183C50.8167 71.9433 51.2217 72.9033 51.9717 72.9183C52.7667 72.9333 53.1117 71.9433 53.0217 71.1483C52.8417 69.7233 52.5267 68.3283 52.2717 66.9183Z" fill="#E57B42"/>
</svg>
