<svg width="104" height="95" viewBox="0 0 104 95" fill="none" xmlns="http://www.w3.org/2000/svg">
<path d="M25.1234 34.1579C25.4834 32.2679 25.8884 30.7079 26.0534 29.1179C26.1734 27.8729 26.7284 27.5729 27.8534 27.6179C30.0284 27.6929 32.5484 27.0029 34.3184 27.8579C36.2534 28.8029 35.1734 31.8179 36.2384 33.8429C37.8134 33.2879 39.0284 32.0729 40.3784 31.1279C41.2334 30.5429 41.9084 30.3479 42.5234 31.2779C44.0684 33.6029 46.3034 33.9329 48.8384 33.7379C50.6984 33.6029 52.5884 33.7979 54.4484 33.6779C56.0534 33.5729 56.6234 34.0829 56.5784 35.7479C56.4734 39.9629 56.5934 44.1779 56.5184 48.3779C56.4884 49.7129 56.9084 50.2979 58.2134 50.6429C62.2034 51.6929 66.1634 52.8329 70.1234 54.0179C71.1134 54.3179 71.9083 54.4079 72.5983 53.4929C72.8683 53.1329 73.2434 52.7579 73.6634 52.5929C77.2934 51.1079 76.1684 47.9579 76.2884 45.2279C76.3184 44.3429 75.6733 44.2979 75.0434 44.1779C72.2234 43.6379 70.2434 42.0479 69.2084 39.3629C68.8784 38.4929 68.3084 38.1329 67.4234 38.2529C65.7134 38.4929 65.5334 37.4879 65.6234 36.1379C65.7884 33.3179 66.1184 30.5429 67.0784 27.8879C67.5284 26.6429 67.5134 26.1479 65.9534 26.0129C62.9984 25.7729 62.3533 24.4529 62.6684 20.0729C62.8333 17.8679 63.8984 16.8179 66.4334 16.9829C68.8334 17.1479 70.2284 16.4279 71.6084 14.2829C75.0434 8.89786 81.9284 6.64786 88.0784 8.38786C94.4534 10.1879 98.6834 15.6029 99.1484 22.4879C99.7634 31.4879 97.1684 38.9429 89.0834 43.8479C87.6884 44.6879 87.5533 46.9679 88.9033 48.7829C92.0983 53.0429 93.1334 57.8579 93.1034 63.0779C93.0434 72.7529 93.0433 82.4279 93.1333 92.0879C93.1483 93.9479 92.7884 94.6679 90.7334 94.6229C83.6384 94.4879 76.5434 94.5029 69.4484 94.6229C67.4984 94.6529 67.0783 93.9629 67.1533 92.2079C67.2733 89.4779 67.1534 86.7479 67.1984 84.0179C67.2284 82.8329 66.8384 82.4278 65.6084 82.3679C59.5484 82.0528 59.5784 82.0229 59.5334 87.9629C59.5334 90.0629 60.4033 92.7779 59.1883 94.0829C57.8383 95.5229 55.0483 94.5329 52.9033 94.5479C41.3533 94.6079 29.8184 94.5779 18.2684 94.5779C9.77839 94.5779 4.78339 89.5379 4.76839 81.0179C4.76839 69.5579 4.75339 58.0829 4.76839 46.6229C4.76839 39.7529 8.60837 35.0879 15.3434 33.8429C16.8584 33.5579 17.5634 32.4629 18.4484 31.5479C19.3784 30.5729 20.0834 30.3629 21.1784 31.2929C22.3484 32.2829 23.6684 33.1079 25.1534 34.1579H25.1234ZM7.85838 54.0179C7.85838 55.3229 7.85838 55.9379 7.85838 56.5529C7.85838 65.3579 7.79839 74.1629 7.91839 82.9678C7.97839 87.5879 11.8784 91.2778 16.5734 91.4128C20.1584 91.5028 23.7434 91.3679 27.3284 91.4729C28.8434 91.5179 29.1434 90.9179 29.1134 89.5679C29.0384 86.4479 29.0834 83.3279 29.0834 80.2229C29.0834 76.3679 29.0834 76.2629 33.0434 76.3679C34.8884 76.4129 35.2484 75.7529 35.2034 74.0879C35.0984 70.3529 35.2184 66.6029 35.1434 62.8679C35.1134 61.4279 35.5784 60.9629 37.0184 61.0079C39.8984 61.0979 42.7934 61.0979 45.6734 61.0079C47.0534 60.9629 47.3984 61.5029 47.3684 62.7779C47.3084 66.6779 47.3384 70.5779 47.3684 74.4629C47.3684 75.2579 47.0684 76.3079 48.4634 76.3079C49.4684 76.3079 50.3534 76.4879 50.6384 74.9579C51.0734 72.5429 52.7084 70.9229 55.1084 70.3979C56.3084 70.1429 56.6084 69.6629 56.5784 68.5529C56.5184 65.8229 56.4434 63.0929 56.5934 60.3779C56.6984 58.5329 56.1284 58.0079 54.2684 58.0229C43.0484 58.1129 31.8284 57.9929 20.6084 58.0979C16.0784 58.1429 11.7434 57.8579 7.8734 54.0179H7.85838ZM78.8384 60.3629C78.0434 58.8029 77.2634 57.4529 76.6484 56.0429C76.1084 54.7829 75.5984 54.7829 74.6684 55.6979C71.8033 58.5179 70.2884 61.8929 70.1984 65.8979C70.1084 70.2329 70.1084 70.1279 74.4134 70.2779C76.2584 70.3379 77.2933 69.8129 77.9383 68.0729C78.5383 66.4829 79.4683 65.0129 80.1883 63.4529C80.6683 62.4179 81.0734 61.8029 82.4084 62.5379C83.5784 63.1829 83.5184 63.7379 82.9934 64.7279C81.8984 66.7829 80.8634 68.8829 79.8584 70.9829C79.0934 72.5879 77.8934 73.2329 76.1234 73.2029C73.0034 73.1279 69.8834 73.1879 66.7634 73.1879C62.4134 73.1879 62.4734 73.1879 62.5784 77.6129C62.6084 78.9779 63.0733 79.3079 64.3483 79.2929C68.6383 79.2329 72.9284 79.2929 77.2034 79.2479C80.3233 79.2029 83.0834 78.0179 85.0184 75.6329C90.1934 69.2579 91.2734 62.1029 88.5584 54.3479C88.1084 53.0879 87.6733 52.9529 86.6533 53.8229C84.1183 55.9979 81.5234 58.1129 78.8084 60.3629H78.8384ZM41.1434 54.8729C39.4034 51.2279 39.9734 50.2379 43.8284 49.6979C44.3684 49.6229 44.9084 49.4579 45.4484 49.4429C46.8734 49.3829 47.3984 48.7679 47.3984 47.2529C47.3984 45.7679 46.7534 45.3929 45.4934 45.2579C44.3384 45.1379 43.1833 44.9129 42.0434 44.6429C40.4083 44.2529 39.7484 42.5579 40.6484 41.1179C41.2184 40.1879 41.8484 39.2879 42.5234 38.4329C43.3184 37.4429 43.8134 36.7229 42.5834 35.5079C41.3534 34.2779 40.5434 34.5629 39.4634 35.4929C38.6384 36.1979 37.7234 36.8129 36.8084 37.3979C35.4134 38.2679 33.5984 37.4879 33.2684 35.8829C33.0434 34.8179 32.8934 33.7379 32.7584 32.6429C32.6084 31.3829 32.3534 30.5129 30.6884 30.5129C28.9184 30.5129 28.6184 31.3829 28.5134 32.7779C28.0934 38.2379 26.3684 39.3929 21.8684 35.5679C20.8634 34.6979 20.0534 34.1579 18.7484 35.4479C17.4284 36.7379 18.0284 37.5329 18.8384 38.5679C19.3634 39.2429 19.8584 39.9479 20.3384 40.6529C21.7334 42.7079 21.0884 44.3129 18.6134 44.8229C17.6984 45.0179 16.7684 45.0929 15.8384 45.2729C14.0984 45.6029 13.2284 47.0879 14.0534 48.5879C14.6984 49.7579 16.0934 49.4729 17.1734 49.6379C21.3284 50.2829 21.7934 50.9879 20.2784 54.6629C22.5884 55.0679 26.1284 55.0079 27.9134 54.5579C24.0134 52.2179 22.4384 49.3229 23.2184 45.8279C23.9534 42.5129 26.6234 40.0829 29.8334 39.8129C33.2984 39.5279 36.2234 41.2229 37.5884 44.2829C38.4884 46.3229 38.4584 48.3329 37.5884 50.4029C36.7484 52.3979 35.0984 53.5679 32.8934 54.8579H41.1584L41.1434 54.8729ZM44.2634 91.4429H50.5784C56.5334 91.4429 56.4883 91.4429 56.5633 85.5479C56.5933 83.6279 56.5634 82.0679 54.0884 81.7529C53.3384 81.6629 52.5584 80.9279 52.0484 80.2979C51.3734 79.4729 50.6383 79.2479 49.6333 79.2479C44.4133 79.2779 39.1934 79.2929 33.9584 79.2479C32.6984 79.2479 32.1284 79.5479 32.1734 80.9279C32.2634 83.8829 32.2634 86.8529 32.1734 89.8078C32.1284 91.2478 32.7584 91.4729 33.9884 91.4429C37.4234 91.3829 40.8433 91.4279 44.2783 91.4279L44.2634 91.4429ZM77.6684 26.0579C70.1083 26.0579 69.8234 26.2829 68.8784 33.0629C68.8634 33.2129 68.8484 33.3779 68.8184 33.5279C68.6084 34.6529 68.8634 35.3879 70.2134 35.1779C71.3384 35.0129 71.5934 35.5079 71.7134 36.6029C72.0584 39.8579 73.6934 41.2229 76.9784 41.2679C78.0734 41.2679 79.1684 41.2079 80.2484 41.2979C81.0884 41.3729 82.3484 40.6829 82.3934 42.5129C82.4384 43.9829 81.9284 44.4779 80.5334 44.3579C79.4384 44.2529 79.2284 45.0329 79.3334 45.8879C79.4684 46.9829 78.6884 48.7679 79.8434 49.0379C81.4334 49.4129 83.2034 48.5429 84.7184 47.8079C85.6634 47.3579 84.8684 46.2629 84.8384 45.4679C84.7034 41.7479 82.3634 37.7879 86.5484 34.5779C87.6434 33.7379 86.7284 32.3729 85.2284 32.2079C84.3134 32.1029 83.8484 31.8929 83.8034 30.8279C83.7434 29.2979 84.5833 27.1829 83.3833 26.4029C82.2133 25.6379 80.2183 26.1329 78.5983 26.0879C78.2833 26.0879 77.9683 26.0879 77.6684 26.0879V26.0579ZM89.9234 74.2679C85.6784 80.0879 82.2133 82.0978 77.0083 82.4128C74.7583 82.5479 71.6684 81.2579 70.4684 83.0729C69.3884 84.7079 70.2134 87.6029 70.1834 89.9279C70.1834 90.0029 70.1834 90.0779 70.1834 90.1679C70.1084 91.0229 70.4084 91.4429 71.3534 91.4429C77.1134 91.4279 82.8884 91.4279 88.6484 91.4429C89.5034 91.4429 89.9384 91.1879 89.9234 90.2579C89.8934 85.1429 89.9234 80.0429 89.9234 74.2679ZM73.6484 16.5779C73.8434 16.7579 73.8884 16.8479 73.9484 16.8479C77.1434 16.8779 80.3234 16.9229 83.5184 16.9229C85.3334 16.9229 86.3984 17.8079 86.9084 19.5179C87.2384 20.6429 86.2634 22.2779 87.5834 22.8779C88.6184 23.3429 90.0284 22.9979 91.2734 23.0129C92.2034 23.0129 93.1484 22.9229 94.0784 23.0279C95.8633 23.2529 96.1934 22.4879 95.8784 20.8979C94.9034 15.8879 91.1234 12.0029 86.1734 11.0279C81.3884 10.0829 76.4984 12.2279 73.6634 16.5629L73.6484 16.5779ZM53.4134 45.9629C53.4134 43.4729 53.3384 40.9679 53.4434 38.4779C53.5034 37.0229 52.9334 36.7679 51.5684 36.6029C48.5684 36.2429 46.6184 37.2329 45.1184 39.8879C44.1884 41.5379 43.8434 42.0479 46.1384 42.3179C50.4734 42.8279 50.4584 42.9629 50.4584 47.3429C50.4584 51.6179 50.4583 51.5879 46.1684 52.4429C45.4933 52.5779 44.2033 52.2029 44.2783 53.1929C44.3533 54.2579 45.2384 55.0229 46.6184 54.9479C48.4034 54.8429 50.2034 54.8729 51.9884 54.9479C53.1284 54.9929 53.4584 54.5129 53.4434 53.4329C53.3834 50.9429 53.4284 48.4529 53.4284 45.9479L53.4134 45.9629ZM91.4984 26.0729C90.7934 26.0729 90.0884 25.9829 89.3984 26.0879C88.5734 26.2229 87.3134 25.5179 87.0584 26.8379C86.8334 27.9779 86.7284 29.1179 88.0784 30.0779C90.3884 31.7429 90.5683 34.5929 88.8133 36.8729C88.3933 37.4279 87.8533 37.8779 87.4033 38.4179C86.8183 39.1229 86.9234 40.0079 87.3584 40.5929C88.0034 41.4479 88.6034 40.4879 89.0684 40.1579C92.2034 37.9229 94.3484 34.9229 95.3984 31.2029C96.7934 26.2379 96.6284 26.0729 91.4984 26.0729ZM38.2783 70.1129C38.2783 70.8179 38.2783 71.5079 38.2783 72.2129C38.2783 76.5629 38.2784 76.5029 42.7184 76.3529C44.1134 76.3079 44.4133 75.7529 44.3833 74.5229C44.3233 72.1079 44.3834 69.7079 44.3534 67.2929C44.3234 63.7829 44.7883 64.3229 41.2934 64.0979C38.9383 63.9479 37.8434 64.5629 38.2484 67.0829C38.4134 68.0729 38.2783 69.0929 38.2783 70.1129ZM26.1134 47.3429C26.1134 49.8779 28.1834 51.9779 30.6584 51.9479C33.0584 51.9179 35.0834 49.9079 35.1284 47.4929C35.1884 44.9579 33.1784 42.8279 30.6884 42.7829C28.1834 42.7379 26.1134 44.8079 26.1134 47.3429ZM7.85838 44.5229C7.85838 50.0579 10.8434 53.8229 14.7434 54.7229C16.1234 55.0379 16.7834 54.2579 16.9784 53.3129C17.1884 52.2779 16.0334 52.6079 15.4634 52.5029C10.8284 51.6029 10.8284 51.6029 10.8284 46.7879C10.8284 46.6379 10.8434 46.4729 10.8284 46.3229C10.4684 43.9529 11.0684 42.7229 13.8584 42.4679C17.5484 42.1529 17.4584 41.9129 15.2534 38.7029C14.3384 37.3829 13.5584 37.1729 12.2234 38.0429C9.41839 39.9029 7.9184 42.4379 7.8734 44.5229H7.85838ZM57.3884 53.5379C56.9534 53.4479 56.6384 53.5379 56.5934 54.0629C56.5184 54.8579 57.0584 54.9479 57.6284 54.9179C58.7384 54.8579 59.4884 54.9329 59.5484 56.4629C59.6684 60.1979 59.7584 60.1979 63.3734 61.2179C66.2834 62.0479 68.1984 61.0129 69.1184 58.1129C69.1184 58.1129 69.1784 57.9629 69.2084 57.9029C69.4484 57.3929 69.3434 56.9729 68.7734 56.8079C64.9784 55.7129 61.1684 54.6179 57.3734 53.5379H57.3884ZM74.6384 23.0129C77.2034 23.0129 79.7683 22.9829 82.3483 23.0279C83.3983 23.0429 83.8784 22.7879 83.8784 21.6179C83.8784 20.4329 83.5484 19.9529 82.2884 19.9679C77.2334 20.0129 72.1784 20.0129 67.1084 19.9679C65.8334 19.9679 65.5634 20.5379 65.5484 21.6779C65.5334 22.9379 66.1783 23.0429 67.1533 23.0279C69.6433 22.9979 72.1334 23.0279 74.6234 23.0279L74.6384 23.0129ZM63.2084 70.2179C67.4234 70.2179 67.3484 70.2179 67.1834 66.7529C67.0784 64.4279 65.1434 64.9679 63.9434 64.5929C59.4884 63.1529 59.5633 63.2279 59.4733 67.9379C59.4283 69.7979 60.0134 70.5029 61.8284 70.2329C62.2784 70.1579 62.7583 70.2329 63.2233 70.2329L63.2084 70.2179ZM59.5184 76.2029C59.2184 75.0329 60.4334 72.9779 57.5834 73.1429C55.0484 73.2929 53.4734 74.3129 53.4434 76.2029C53.4134 78.1229 54.9583 79.1128 57.5083 79.3078C60.2983 79.5179 59.3384 77.5979 59.5184 76.2029ZM84.5983 51.5879C84.5233 51.4529 84.4634 51.3029 84.3884 51.1679C82.9184 51.6029 81.4484 52.0379 79.9784 52.5029C79.4984 52.6529 78.7033 52.7129 78.7934 53.3429C78.8833 53.9879 79.2434 54.7229 79.7384 55.1429C80.2484 55.5779 80.6534 54.8429 81.0434 54.5279C82.2433 53.5679 83.4134 52.5629 84.5834 51.5729L84.5983 51.5879Z" fill="#E57B42"/>
<path d="M35.16 16.9783C35.16 15.3433 35.325 13.6783 35.115 12.0733C34.815 9.7033 35.805 9.1183 37.98 9.3133C39.495 9.4483 41.61 10.0933 41.31 7.09329C41.19 5.90829 42.405 6.3283 43.095 6.2383C43.98 6.1483 44.475 6.5683 44.34 7.4533C44.07 9.3283 45.165 9.44829 46.575 9.35829C47.895 9.28329 49.23 9.29829 50.55 9.35829C52.275 9.41829 53.7001 9.34329 54.9601 7.63329C56.4451 5.62329 59.385 5.83329 61.185 7.58829C62.97 9.34329 63.0301 12.0433 61.3351 13.9033C59.6551 15.7333 56.565 16.1233 55.125 14.1583C53.67 12.1783 51.975 12.2833 50.055 12.3133C49.2 12.3133 48.345 12.3133 47.475 12.3133C43.98 12.3583 44.355 11.8633 44.355 15.4183C44.355 18.8383 43.935 18.3283 47.34 18.3883C47.73 18.3883 48.12 18.3883 48.51 18.3883C49.59 18.3433 50.475 18.3133 50.475 19.9033C50.475 21.3583 49.815 21.5683 48.615 21.5383C46.74 21.4783 44.865 21.4333 43.005 21.5383C41.49 21.6283 41.145 20.9683 41.205 19.6183C41.295 17.6683 41.19 15.7183 41.235 13.7683C41.265 12.6583 40.86 12.2833 39.735 12.2683C38.625 12.2683 38.22 12.6583 38.235 13.7683C38.28 16.7233 38.205 19.6933 38.265 22.6483C38.28 23.8483 38.1 24.5083 36.645 24.5083C35.085 24.5083 35.1 23.6533 35.115 22.5583C35.145 20.6833 35.115 18.8233 35.115 16.9483L35.16 16.9783ZM57.9 12.2833C58.785 12.2533 59.385 11.8633 59.445 10.9483C59.505 10.0633 59.055 9.46329 58.125 9.4033C57.225 9.3433 56.64 9.7783 56.58 10.7083C56.52 11.5933 56.985 12.1483 57.885 12.2833H57.9Z" fill="#E57B42"/>
<path d="M18.2855 18.4345C15.9305 18.4045 13.7405 18.1195 11.8955 20.5045C10.4405 22.3795 7.27547 21.6595 5.74547 19.7095C4.26047 17.8195 4.48548 15.2245 6.27048 13.5895C8.13048 11.8795 10.9655 11.8195 12.4955 13.8445C13.6205 15.3295 14.8355 15.5395 16.4555 15.4795C19.0955 15.3895 21.7505 15.5095 24.4055 15.4345C25.7405 15.3895 26.1905 15.8695 26.1305 17.1895C26.0405 19.0495 26.0705 20.9245 26.1305 22.7995C26.1605 23.8795 26.0105 24.5395 24.6455 24.5545C23.2505 24.5695 22.9955 23.9995 22.9655 22.7545C22.8755 18.4345 22.8305 18.4345 18.2855 18.4495V18.4345ZM10.7855 16.9645C10.7255 16.0945 10.3055 15.5245 9.37549 15.5095C8.47549 15.5095 7.92047 15.9595 7.90547 16.8895C7.90547 17.7895 8.37049 18.3445 9.28549 18.3595C10.1855 18.3745 10.6805 17.8645 10.7855 16.9645Z" fill="#E57B42"/>
<path d="M30.6724 0.163086C32.5774 0.343086 34.0774 1.19809 34.8124 3.04309C35.5774 4.97809 35.2324 6.86809 33.5674 8.08309C32.3824 8.96809 32.1424 9.89808 32.1574 11.2181C32.2174 15.0281 32.1574 18.8531 32.2024 22.6631C32.2024 23.8331 32.0824 24.5381 30.6124 24.5381C29.0974 24.5381 29.0524 23.7431 29.0524 22.6181C29.0824 18.7331 29.0524 14.8331 29.0824 10.9481C29.0824 9.79309 28.8874 8.96808 27.8074 8.23308C26.0824 7.04808 25.6774 5.15809 26.3524 3.23809C27.0274 1.28809 28.5874 0.328086 30.6724 0.163086ZM30.6424 3.31309C29.7424 3.35809 29.1574 3.85309 29.1724 4.73809C29.1724 5.59309 29.6974 6.20809 30.6124 6.19309C31.4974 6.19309 32.0974 5.65309 32.0974 4.76809C32.0974 3.89809 31.5574 3.35809 30.6424 3.31309Z" fill="#E57B42"/>
<path d="M21.4357 12.3328C21.3607 12.3328 21.2857 12.3328 21.1957 12.3328C16.4257 12.3328 16.4408 12.3328 16.8758 7.57784C16.9658 6.57284 17.3108 6.19784 18.2858 6.24284C19.1558 6.28784 20.1757 6.15284 19.9957 7.47284C19.7557 9.36284 20.8207 9.49784 22.2457 9.37784C22.8607 9.31784 23.4907 9.36284 24.1207 9.37784C25.1107 9.37784 26.1308 9.13784 26.1608 10.8028C26.1908 12.6028 25.0807 12.3478 24.0157 12.3478C23.1607 12.3478 22.3057 12.3478 21.4357 12.3478V12.3328Z" fill="#E57B42"/>
<path d="M18.5221 3.24043C17.0371 3.49543 16.9021 2.68543 16.8871 1.60543C16.8721 0.450434 17.3521 0.165433 18.4171 0.135433C19.6171 0.105433 20.0821 0.480434 20.0521 1.72543C20.0221 2.92543 19.6921 3.54043 18.5221 3.24043Z" fill="#E57B42"/>
<path d="M43.0188 3.24033C41.6988 3.45033 41.2188 3.00033 41.2188 1.74033C41.2188 0.510326 41.6388 0.105325 42.8538 0.135325C43.9038 0.165325 44.4437 0.420326 44.3987 1.59033C44.3537 2.62533 44.3988 3.60033 43.0338 3.24033H43.0188Z" fill="#E57B42"/>
<path d="M56.5175 19.8928C56.6975 21.0478 56.3075 21.5878 55.0175 21.5728C53.8175 21.5728 53.3525 21.1978 53.3975 19.9528C53.4275 18.9178 53.6375 18.3628 54.8225 18.3928C55.8725 18.4228 56.7425 18.4828 56.5175 19.8778V19.8928Z" fill="#E57B42"/>
<path d="M24.69 64.1407C26.715 64.1407 28.74 64.1857 30.765 64.1257C31.89 64.0957 32.22 64.5607 32.235 65.6407C32.235 66.7807 31.815 67.1257 30.72 67.1107C26.595 67.0657 22.47 67.0657 18.345 67.1107C17.22 67.1107 16.89 66.6757 16.875 65.5957C16.875 64.4557 17.295 64.0957 18.39 64.1257C20.49 64.1707 22.59 64.1257 24.69 64.1407Z" fill="#E57B42"/>
<path d="M24.5372 73.1855C22.4372 73.1855 20.3372 73.1555 18.2372 73.1855C17.2322 73.2005 16.8722 72.7955 16.8872 71.8055C16.8872 70.8155 17.0372 70.1855 18.2522 70.2005C22.4522 70.2455 26.6522 70.2305 30.8522 70.2005C31.8572 70.2005 32.2172 70.5905 32.2022 71.5805C32.2022 72.5705 32.0522 73.2155 30.8372 73.1855C28.7372 73.1255 26.6372 73.1705 24.5372 73.1705V73.1855Z" fill="#E57B42"/>
<path d="M21.6888 76.3034C22.6188 76.3034 23.5637 76.3484 24.4787 76.3034C25.6337 76.2284 26.1588 76.5884 26.1288 77.8634C26.0988 79.0334 25.6187 79.3184 24.5687 79.2884C22.5437 79.2434 20.5338 79.2284 18.5088 79.2884C17.3538 79.3184 16.8587 79.0034 16.8438 77.7284C16.8438 76.3034 17.6238 76.2734 18.6288 76.3034C19.6338 76.3334 20.6538 76.3034 21.6588 76.3034H21.6888Z" fill="#E57B42"/>
<path d="M21.6444 85.3518C20.6394 85.3518 19.6193 85.3218 18.6143 85.3518C17.5643 85.3968 16.8594 85.2618 16.8594 83.8818C16.8594 82.5618 17.4594 82.3368 18.5694 82.3668C20.5944 82.4118 22.6044 82.4118 24.6294 82.3668C25.7094 82.3368 26.1444 82.7118 26.1294 83.8368C26.1294 84.9168 25.7994 85.4118 24.6744 85.3518C23.6694 85.2918 22.6494 85.3518 21.6444 85.3518Z" fill="#E57B42"/>
<path d="M38.2623 86.8512C38.4573 88.0362 38.0073 88.5162 36.7473 88.5162C35.4873 88.5162 35.1123 88.0962 35.1423 86.8812C35.1723 85.8312 35.4272 85.3062 36.5972 85.3362C37.6772 85.3662 38.5022 85.4562 38.2772 86.8512H38.2623Z" fill="#E57B42"/>
<path d="M44.3386 86.9882C44.5636 88.3532 43.7686 88.4882 42.6736 88.5032C41.5186 88.5182 41.2336 88.0382 41.2036 86.9732C41.1886 85.7882 41.5486 85.3232 42.7936 85.3232C44.0386 85.3232 44.5186 85.7732 44.3236 86.9732L44.3386 86.9882Z" fill="#E57B42"/>
<path d="M50.4252 86.9677C50.6502 88.3327 49.8701 88.4827 48.7751 88.4977C47.6351 88.5127 47.3202 88.0477 47.3052 86.9677C47.2902 85.7827 47.6351 85.3027 48.8951 85.3177C50.1251 85.3177 50.6352 85.7527 50.4402 86.9677H50.4252Z" fill="#E57B42"/>
<path d="M73.2888 32.0559C72.3738 32.0409 71.7888 31.5459 71.7738 30.6609C71.7588 29.8059 72.2538 29.1909 73.1838 29.1459C74.1138 29.1009 74.6388 29.7009 74.6988 30.5559C74.7588 31.4559 74.1738 31.9359 73.2888 32.0559Z" fill="#E57B42"/>
</svg>
