<svg width="106" height="95" viewBox="0 0 106 95" fill="none" xmlns="http://www.w3.org/2000/svg">
<path d="M105.561 25.4914C98.6913 31.6114 91.8063 37.7314 84.9663 43.8664C83.8713 44.8564 82.7763 45.7714 81.2463 45.0364C79.7913 44.3464 79.8812 42.9214 79.8662 41.5864C79.8462 38.1564 78.1513 36.4414 74.7813 36.4414C69.1563 36.4414 63.5463 36.4564 57.9213 36.4414C54.0213 36.4264 52.5212 34.9264 52.4912 31.0864C52.4613 25.5514 52.4613 20.0014 52.4912 14.4664C52.5062 10.8364 54.1563 9.18638 57.7863 9.17138C64.4163 9.14138 71.0462 9.09639 77.6763 9.20139C79.4613 9.23139 80.0463 8.70638 79.8513 6.96638C79.7163 5.81138 79.8513 4.62639 79.8213 3.45639C79.7913 2.19639 80.0913 1.13138 81.3363 0.546383C82.6263 -0.0686173 83.5863 0.606385 84.4863 1.41639C90.4713 6.77139 96.4563 12.1414 102.471 17.4664C103.446 18.3214 104.226 19.4464 105.546 19.8664V25.4914H105.561ZM83.1813 4.76138C83.1813 6.17138 83.1813 6.87637 83.1813 7.56637C83.1813 11.9914 82.6263 12.5164 78.1713 12.5314C71.7063 12.5314 65.2262 12.6064 58.7613 12.4864C56.5863 12.4414 55.7163 13.0114 55.7913 15.3514C55.9563 20.3314 55.9563 25.3264 55.7913 30.3214C55.7163 32.6764 56.5863 33.2014 58.7613 33.1564C65.5413 33.0364 72.3213 33.0964 79.1013 33.1264C82.1163 33.1264 83.1213 34.1164 83.1813 36.9514C83.2113 38.0764 83.1813 39.2014 83.1813 40.3864C83.6913 40.2814 83.8713 40.2964 83.9763 40.2064C90.1413 34.7164 96.2913 29.1964 102.486 23.7364C103.521 22.8214 102.951 22.3864 102.246 21.7564C98.6313 18.5464 95.0462 15.3064 91.4463 12.0964C88.8512 9.78638 86.2563 7.47639 83.1813 4.74639V4.76138Z" fill="#E57B42"/>
<path d="M27.3518 69.0638C27.5018 71.6288 27.6068 73.8488 27.7868 76.0688C27.9818 78.5138 27.0818 80.4488 25.2968 82.0988C21.3818 85.6838 17.5268 89.3288 13.6268 92.9138C11.0468 95.2838 7.88176 95.2688 5.70676 92.9738C3.60676 90.7538 3.78676 87.4389 6.27676 85.0688C9.32176 82.1588 12.4118 79.2938 15.5468 76.4588C16.5068 75.6038 16.8818 74.7488 16.7768 73.4138C16.4168 68.8238 16.2368 64.2188 15.9368 59.6288C15.8318 58.0238 16.1618 56.5388 16.7918 55.0838C17.8418 52.6538 18.8618 50.2239 19.9118 47.7638C16.5968 47.3288 15.2468 47.9888 13.8368 50.6288C12.7718 52.6238 11.7818 54.6638 10.6568 56.6138C8.97676 59.5088 5.99176 60.4238 3.27676 58.9838C0.59176 57.5588 -0.338238 54.4838 1.14676 51.5438C2.82676 48.1988 4.62676 44.9138 6.38176 41.6138C7.67176 39.1838 9.93677 38.2388 12.4718 37.7288C16.5968 36.9038 20.7218 36.0638 24.8468 35.2688C26.1968 35.0138 26.9918 34.7738 26.6768 32.9288C26.0618 29.3588 28.3718 25.8488 31.7318 24.5888C35.0918 23.3288 38.8418 24.3788 40.9868 27.1838C43.2218 30.1088 43.3418 34.1138 40.9268 36.9188C39.6068 38.4488 39.9218 38.9138 41.3918 40.1438C44.9918 43.1588 48.6218 43.9838 52.8668 41.7788C53.8868 41.2538 55.0718 41.0138 56.2118 40.7138C58.9118 39.9938 61.7618 41.3738 62.7668 43.8638C63.8318 46.5188 62.7668 49.7138 60.0218 50.7338C56.0918 52.1888 52.0418 53.4189 47.9768 54.4689C44.9468 55.2339 42.3668 53.7938 39.9518 52.0538C38.5718 51.0638 36.8018 49.2638 35.6768 49.5638C34.2068 49.9688 33.9968 52.4739 33.3068 54.0939C31.2668 58.8339 31.2968 58.8488 35.9318 61.1588C38.2268 62.2988 40.5668 63.4089 42.8168 64.6389C45.5318 66.1089 46.5218 68.7038 45.3818 71.5838C43.3418 76.7288 41.2418 81.8438 39.0518 86.9288C37.7618 89.9288 34.6418 91.1138 31.8668 89.8838C29.1968 88.7138 27.9968 85.7738 29.1218 82.8188C30.2768 79.7589 31.5368 76.7289 32.8268 73.7289C33.3668 72.4689 33.2168 71.7488 31.8518 71.2238C30.4118 70.6688 29.0768 69.8888 27.3818 69.0488L27.3518 69.0638ZM25.6868 42.7088C23.6768 47.4188 21.8468 51.6338 20.0468 55.8488C18.3968 59.7188 18.9068 61.0988 22.5968 62.9438C26.3618 64.8188 30.1418 66.6638 33.9068 68.5538C36.5318 69.8738 37.2068 71.5988 36.1418 74.3138C34.9418 77.3588 33.6818 80.3739 32.4068 83.3889C31.8218 84.7539 31.6118 86.0888 33.2168 86.7488C34.7768 87.3938 35.6618 86.4338 36.2318 85.0238C38.1068 80.4039 39.9518 75.7688 41.9318 71.2088C42.8018 69.1988 42.3368 68.0438 40.3718 67.1138C36.3518 65.2238 32.4218 63.1388 28.4168 61.2338C27.3068 60.7088 26.9018 60.2438 27.4568 58.9838C29.4218 54.5738 31.3418 50.1338 33.1418 45.6638C33.7568 44.1488 34.3418 44.2688 35.4818 45.0788C37.9718 46.8338 40.5368 48.4538 43.0718 50.1488C44.1368 50.8538 45.2618 51.4988 46.5518 51.2738C50.7068 50.5538 54.6368 49.0238 58.6268 47.7038C59.7368 47.3288 59.9618 46.1888 59.5718 45.1238C59.2118 44.1338 58.3718 43.6838 57.3218 43.8788C56.4818 44.0288 55.6268 44.2538 54.8768 44.6438C48.8618 47.7788 43.6268 46.7888 38.6018 42.2738C35.9318 39.8738 35.3918 38.1638 37.8218 35.5238C38.9468 34.3088 39.5618 32.9588 39.2468 31.2788C38.7818 28.7588 36.4118 27.0338 33.9518 27.4238C31.2668 27.8438 29.6918 30.1238 30.0668 33.1088C30.5018 36.6488 29.8718 37.5638 26.4068 38.2988C21.9068 39.2438 17.4068 40.1288 12.9068 41.0588C11.3318 41.3888 9.96676 41.9438 9.15676 43.5338C7.61176 46.5938 5.97676 49.6089 4.35676 52.6389C3.65176 53.9589 3.42676 55.2488 4.94176 56.0588C6.53176 56.9138 7.40176 55.7888 8.06176 54.5438C9.45676 51.9338 10.8218 49.3088 12.1868 46.6838C12.5468 45.9938 12.8018 45.3188 13.7618 45.1538C17.5718 44.4338 21.3668 43.6388 25.6868 42.7538V42.7088ZM24.2468 73.4738C24.1718 72.0188 23.9918 71.0738 24.0818 70.1588C24.3218 67.9388 23.2868 66.7988 21.3068 65.9888C19.7018 65.3288 19.6418 65.8988 19.7468 67.2038C19.9268 69.2888 19.9268 71.4038 20.1518 73.4888C20.3768 75.5138 19.8368 77.0889 18.2918 78.4689C15.0968 81.3189 12.0218 84.2889 8.87176 87.1839C7.80676 88.1739 6.98176 89.2688 8.12176 90.5738C9.36676 91.9988 10.5818 91.2338 11.7068 90.1688C14.7218 87.3488 17.6318 84.4088 20.8118 81.8138C23.7368 79.4288 25.4318 76.8188 24.2318 73.4738H24.2468Z" fill="#E57B42"/>
</svg>
