<svg width="73" height="67" viewBox="0 0 73 67" fill="none" xmlns="http://www.w3.org/2000/svg">
<path d="M54.35 0.934204H18.12L0 33.7944L18.12 66.6546H54.36L72.48 33.7944L54.36 0.934204H54.35ZM21.28 8.24345H51.05L44.64 15.5213H17.31L21.29 8.24345H21.28ZM28.08 17.3434L35.24 26.2652L29.54 32.4854L17.31 17.3434H28.09H28.08ZM16.26 50.9261L52.25 10.2016L56.39 17.3434L20.22 58.4343L16.26 50.9261ZM54.83 51.0203H44.23L37.24 42.1613L42.94 35.962L54.83 51.0308V51.0203ZM51.22 60.2145H21.6L27.61 53.3555H55.05L51.22 60.2145Z" fill="#373C3F"/>
</svg>
